<svg width="513" height="57" viewBox="0 0 513 57" fill="none" xmlns="http://www.w3.org/2000/svg">
<g clip-path="url(#clip0_21_12)">
<path d="M14.304 10.7244H10.7528C10.7055 10.3598 10.6084 10.0308 10.4616 9.73722C10.3149 9.44366 10.1207 9.19271 9.87926 8.98438C9.63778 8.77604 9.35133 8.61742 9.01989 8.50852C8.69318 8.39489 8.33097 8.33807 7.93324 8.33807C7.22775 8.33807 6.61932 8.51089 6.10795 8.85653C5.60133 9.20218 5.2107 9.7017 4.93608 10.3551C4.66619 11.0085 4.53125 11.7992 4.53125 12.7273C4.53125 13.6932 4.66856 14.5028 4.94318 15.1562C5.22254 15.8049 5.61316 16.295 6.11506 16.6264C6.62169 16.9531 7.22064 17.1165 7.91193 17.1165C8.30019 17.1165 8.65294 17.0668 8.97017 16.9673C9.29214 16.8679 9.57386 16.7235 9.81534 16.5341C10.0616 16.34 10.2628 16.1056 10.419 15.831C10.58 15.5516 10.6913 15.2367 10.7528 14.8864L14.304 14.9077C14.2424 15.5516 14.0554 16.1861 13.7429 16.8111C13.4351 17.4361 13.0114 18.0066 12.4716 18.5227C11.9318 19.0341 11.2737 19.4413 10.4972 19.7443C9.72538 20.0473 8.83996 20.1989 7.84091 20.1989C6.52462 20.1989 5.34564 19.91 4.30398 19.3324C3.26705 18.75 2.44792 17.9025 1.84659 16.7898C1.24527 15.6771 0.944602 14.3229 0.944602 12.7273C0.944602 11.1269 1.25 9.77036 1.8608 8.65767C2.47159 7.54498 3.29782 6.69981 4.33949 6.12216C5.38116 5.54451 6.5483 5.25568 7.84091 5.25568C8.72159 5.25568 9.53598 5.37879 10.2841 5.625C11.0322 5.86648 11.6903 6.22159 12.2585 6.69034C12.8267 7.15436 13.2884 7.72491 13.6435 8.40199C13.9986 9.07907 14.2188 9.85322 14.304 10.7244ZM18.3157 20V5.45455H21.8313V11.2926H27.5629V5.45455H31.0714V20H27.5629V14.1548H21.8313V20H18.3157ZM38.4229 20H34.6445L39.5522 5.45455H44.2326L49.1403 20H45.3619L41.9457 9.11932H41.832L38.4229 20ZM37.9187 14.2756H45.8164V16.946H37.9187V14.2756ZM50.4141 8.30966V5.45455H62.7081V8.30966H58.2976V20H54.8317V8.30966H50.4141Z" fill="white"/>
<path d="M72.7219 20V5.45455H76.2376V17.1449H82.2887V20H72.7219ZM89.6243 5.45455V20H86.1087V5.45455H89.6243ZM97.1339 5.45455L100.387 16.108H100.507L103.76 5.45455H107.695L102.787 20H98.1069L93.1992 5.45455H97.1339ZM111.261 20V5.45455H121.403V8.30966H114.777V11.2926H120.885V14.1548H114.777V17.1449H121.403V20H111.261Z" fill="#E4B800"/>
<path d="M226.281 3.81818V14H224.193L220.141 8.12358H220.077V14H217.616V3.81818H219.734L223.741 9.68466H223.825V3.81818H226.281ZM229.229 14V3.81818H236.328V5.81676H231.69V7.90483H235.965V9.90838H231.69V12.0014H236.328V14H229.229ZM244.773 6.87074C244.74 6.50615 244.592 6.22277 244.33 6.0206C244.072 5.8151 243.702 5.71236 243.222 5.71236C242.903 5.71236 242.638 5.75379 242.426 5.83665C242.214 5.91951 242.055 6.03385 241.949 6.17969C241.843 6.32221 241.788 6.48627 241.785 6.67188C241.778 6.82434 241.808 6.95857 241.874 7.07457C241.944 7.19058 242.043 7.29332 242.173 7.38281C242.305 7.46899 242.464 7.54522 242.65 7.61151C242.836 7.67779 243.044 7.7358 243.276 7.78551L244.151 7.98438C244.655 8.09375 245.099 8.23958 245.484 8.42188C245.872 8.60417 246.196 8.82126 246.458 9.07315C246.723 9.32505 246.924 9.61506 247.06 9.94318C247.196 10.2713 247.265 10.6392 247.269 11.0469C247.265 11.6899 247.103 12.2417 246.781 12.7024C246.46 13.1631 245.997 13.5161 245.394 13.7614C244.794 14.0066 244.07 14.1293 243.222 14.1293C242.37 14.1293 241.627 14.0017 240.994 13.7464C240.361 13.4912 239.869 13.1035 239.518 12.5831C239.166 12.0627 238.986 11.4048 238.976 10.6094H241.332C241.352 10.9375 241.44 11.2109 241.596 11.4297C241.752 11.6484 241.965 11.8142 242.237 11.9268C242.512 12.0395 242.831 12.0959 243.192 12.0959C243.523 12.0959 243.805 12.0511 244.037 11.9616C244.272 11.8722 244.453 11.7479 244.579 11.5888C244.705 11.4297 244.769 11.2474 244.773 11.0419C244.769 10.8497 244.71 10.6856 244.594 10.5497C244.478 10.4105 244.299 10.2912 244.057 10.1918C243.818 10.089 243.513 9.99455 243.142 9.90838L242.078 9.6598C241.197 9.45762 240.502 9.13116 239.995 8.6804C239.488 8.22633 239.236 7.61316 239.239 6.84091C239.236 6.21117 239.405 5.65933 239.746 5.18537C240.088 4.71141 240.56 4.34186 241.163 4.0767C241.767 3.81155 242.454 3.67898 243.227 3.67898C244.015 3.67898 244.7 3.81321 245.28 4.08168C245.863 4.34683 246.316 4.7197 246.637 5.20028C246.959 5.68087 247.123 6.23769 247.129 6.87074H244.773ZM255.415 6.87074C255.382 6.50615 255.234 6.22277 254.972 6.0206C254.714 5.8151 254.344 5.71236 253.864 5.71236C253.546 5.71236 253.28 5.75379 253.068 5.83665C252.856 5.91951 252.697 6.03385 252.591 6.17969C252.485 6.32221 252.43 6.48627 252.427 6.67188C252.42 6.82434 252.45 6.95857 252.517 7.07457C252.586 7.19058 252.686 7.29332 252.815 7.38281C252.947 7.46899 253.106 7.54522 253.292 7.61151C253.478 7.67779 253.687 7.7358 253.919 7.78551L254.794 7.98438C255.297 8.09375 255.741 8.23958 256.126 8.42188C256.514 8.60417 256.838 8.82126 257.1 9.07315C257.365 9.32505 257.566 9.61506 257.702 9.94318C257.838 10.2713 257.907 10.6392 257.911 11.0469C257.907 11.6899 257.745 12.2417 257.423 12.7024C257.102 13.1631 256.64 13.5161 256.036 13.7614C255.437 14.0066 254.712 14.1293 253.864 14.1293C253.012 14.1293 252.27 14.0017 251.637 13.7464C251.004 13.4912 250.511 13.1035 250.16 12.5831C249.809 12.0627 249.628 11.4048 249.618 10.6094H251.975C251.995 10.9375 252.082 11.2109 252.238 11.4297C252.394 11.6484 252.608 11.8142 252.879 11.9268C253.155 12.0395 253.473 12.0959 253.834 12.0959C254.165 12.0959 254.447 12.0511 254.679 11.9616C254.914 11.8722 255.095 11.7479 255.221 11.5888C255.347 11.4297 255.412 11.2474 255.415 11.0419C255.412 10.8497 255.352 10.6856 255.236 10.5497C255.12 10.4105 254.941 10.2912 254.699 10.1918C254.46 10.089 254.155 9.99455 253.784 9.90838L252.72 9.6598C251.839 9.45762 251.144 9.13116 250.637 8.6804C250.13 8.22633 249.878 7.61316 249.882 6.84091C249.878 6.21117 250.047 5.65933 250.389 5.18537C250.73 4.71141 251.202 4.34186 251.806 4.0767C252.409 3.81155 253.097 3.67898 253.869 3.67898C254.658 3.67898 255.342 3.81321 255.922 4.08168C256.505 4.34683 256.958 4.7197 257.279 5.20028C257.601 5.68087 257.765 6.23769 257.772 6.87074H255.415ZM266.713 3.81818H269.169V10.3857C269.169 11.1446 268.989 11.8059 268.627 12.3693C268.266 12.9295 267.762 13.3636 267.116 13.6719C266.47 13.9768 265.719 14.1293 264.864 14.1293C263.999 14.1293 263.243 13.9768 262.597 13.6719C261.951 13.3636 261.448 12.9295 261.091 12.3693C260.733 11.8059 260.554 11.1446 260.554 10.3857V3.81818H263.015V10.1719C263.015 10.5232 263.091 10.8364 263.243 11.1115C263.399 11.3866 263.616 11.602 263.895 11.7578C264.173 11.9136 264.496 11.9915 264.864 11.9915C265.232 11.9915 265.553 11.9136 265.828 11.7578C266.107 11.602 266.324 11.3866 266.48 11.1115C266.636 10.8364 266.713 10.5232 266.713 10.1719V3.81818ZM280.777 3.81818V14H278.689L274.637 8.12358H274.573V14H272.112V3.81818H274.23L278.237 9.68466H278.321V3.81818H280.777ZM285.927 14H283.282L286.718 3.81818H289.994L293.429 14H290.784L288.393 6.38352H288.313L285.927 14ZM285.574 9.9929H291.103V11.8622H285.574V9.9929ZM203.765 31.1442C202.96 31.1442 202.269 30.9785 201.692 30.647C201.119 30.3156 200.678 29.8549 200.37 29.2649C200.061 28.6716 199.907 27.9856 199.907 27.2067C199.907 26.4245 200.061 25.7384 200.37 25.1484C200.681 24.5552 201.124 24.0928 201.697 23.7614C202.274 23.4299 202.961 23.2642 203.76 23.2642C204.466 23.2642 205.081 23.3918 205.605 23.647C206.132 23.9022 206.543 24.2635 206.838 24.7308C207.136 25.1948 207.293 25.7401 207.31 26.3665H205.038C204.991 25.9754 204.859 25.6688 204.64 25.4467C204.425 25.2247 204.143 25.1136 203.795 25.1136C203.513 25.1136 203.266 25.1932 203.054 25.3523C202.842 25.508 202.676 25.7401 202.557 26.0483C202.441 26.3532 202.383 26.7311 202.383 27.1818C202.383 27.6326 202.441 28.0137 202.557 28.3253C202.676 28.6335 202.842 28.8672 203.054 29.0263C203.266 29.1821 203.513 29.2599 203.795 29.2599C204.02 29.2599 204.219 29.2119 204.392 29.1158C204.567 29.0196 204.711 28.8788 204.824 28.6932C204.937 28.5043 205.008 28.2756 205.038 28.0071H207.31C207.287 28.6368 207.129 29.187 206.838 29.6577C206.549 30.1283 206.143 30.4946 205.62 30.7564C205.099 31.0149 204.481 31.1442 203.765 31.1442ZM213.519 31.1442C212.717 31.1442 212.027 30.9801 211.45 30.652C210.877 30.3205 210.435 29.8598 210.123 29.2699C209.815 28.6766 209.661 27.9889 209.661 27.2067C209.661 26.4212 209.815 25.7334 210.123 25.1435C210.435 24.5502 210.877 24.0895 211.45 23.7614C212.027 23.4299 212.717 23.2642 213.519 23.2642C214.321 23.2642 215.008 23.4299 215.582 23.7614C216.159 24.0895 216.601 24.5502 216.909 25.1435C217.221 25.7334 217.377 26.4212 217.377 27.2067C217.377 27.9889 217.221 28.6766 216.909 29.2699C216.601 29.8598 216.159 30.3205 215.582 30.652C215.008 30.9801 214.321 31.1442 213.519 31.1442ZM213.534 29.3097C213.825 29.3097 214.072 29.2202 214.274 29.0412C214.476 28.8622 214.631 28.6136 214.737 28.2955C214.846 27.9773 214.901 27.6094 214.901 27.1918C214.901 26.7675 214.846 26.3963 214.737 26.0781C214.631 25.7599 214.476 25.5114 214.274 25.3324C214.072 25.1534 213.825 25.0639 213.534 25.0639C213.232 25.0639 212.977 25.1534 212.768 25.3324C212.562 25.5114 212.405 25.7599 212.296 26.0781C212.19 26.3963 212.137 26.7675 212.137 27.1918C212.137 27.6094 212.19 27.9773 212.296 28.2955C212.405 28.6136 212.562 28.8622 212.768 29.0412C212.977 29.2202 213.232 29.3097 213.534 29.3097ZM220.022 31V23.3636H222.334V24.7656H222.418C222.577 24.3016 222.846 23.9354 223.224 23.6669C223.602 23.3984 224.052 23.2642 224.576 23.2642C225.106 23.2642 225.56 23.4001 225.938 23.6719C226.316 23.9437 226.556 24.3082 226.659 24.7656H226.739C226.881 24.3116 227.16 23.9486 227.574 23.6768C227.988 23.4018 228.477 23.2642 229.04 23.2642C229.763 23.2642 230.35 23.4962 230.8 23.9602C231.251 24.4209 231.477 25.054 231.477 25.8594V31H229.045V26.4162C229.045 26.035 228.948 25.745 228.752 25.5462C228.557 25.344 228.303 25.2429 227.991 25.2429C227.657 25.2429 227.393 25.3523 227.201 25.571C227.012 25.7865 226.918 26.0765 226.918 26.4411V31H224.581V26.3913C224.581 26.0367 224.485 25.7566 224.293 25.5511C224.1 25.3456 223.847 25.2429 223.532 25.2429C223.32 25.2429 223.133 25.2943 222.97 25.397C222.808 25.4964 222.68 25.639 222.587 25.8246C222.498 26.0102 222.453 26.2289 222.453 26.4808V31H220.022ZM234.383 31V23.3636H236.695V24.7656H236.779C236.938 24.3016 237.207 23.9354 237.585 23.6669C237.962 23.3984 238.413 23.2642 238.937 23.2642C239.467 23.2642 239.921 23.4001 240.299 23.6719C240.677 23.9437 240.917 24.3082 241.02 24.7656H241.1C241.242 24.3116 241.52 23.9486 241.935 23.6768C242.349 23.4018 242.838 23.2642 243.401 23.2642C244.124 23.2642 244.711 23.4962 245.161 23.9602C245.612 24.4209 245.837 25.054 245.837 25.8594V31H243.406V26.4162C243.406 26.035 243.309 25.745 243.113 25.5462C242.917 25.344 242.664 25.2429 242.352 25.2429C242.018 25.2429 241.754 25.3523 241.562 25.571C241.373 25.7865 241.278 26.0765 241.278 26.4411V31H238.942V26.3913C238.942 26.0367 238.846 25.7566 238.653 25.5511C238.461 25.3456 238.208 25.2429 237.893 25.2429C237.681 25.2429 237.493 25.2943 237.331 25.397C237.169 25.4964 237.041 25.639 236.948 25.8246C236.859 26.0102 236.814 26.2289 236.814 26.4808V31H234.383ZM248.744 31V23.3636H251.175V31H248.744ZM249.962 22.4737C249.62 22.4737 249.327 22.361 249.082 22.1357C248.837 21.907 248.714 21.6319 248.714 21.3104C248.714 20.9922 248.837 20.7204 249.082 20.495C249.327 20.2663 249.62 20.152 249.962 20.152C250.307 20.152 250.6 20.2663 250.842 20.495C251.087 20.7204 251.21 20.9922 251.21 21.3104C251.21 21.6319 251.087 21.907 250.842 22.1357C250.6 22.361 250.307 22.4737 249.962 22.4737ZM260.789 25.6953L258.557 25.755C258.534 25.5959 258.471 25.455 258.368 25.3324C258.265 25.2064 258.131 25.1087 257.965 25.0391C257.803 24.9661 257.614 24.9297 257.399 24.9297C257.117 24.9297 256.877 24.986 256.678 25.0987C256.482 25.2114 256.386 25.3639 256.389 25.5561C256.386 25.7053 256.446 25.8345 256.568 25.9439C256.694 26.0533 256.918 26.1411 257.24 26.2074L258.711 26.4858C259.473 26.6316 260.04 26.8736 260.411 27.2116C260.786 27.5497 260.975 27.9972 260.978 28.554C260.975 29.0777 260.819 29.5334 260.511 29.9212C260.206 30.3089 259.788 30.6106 259.258 30.826C258.728 31.0381 258.121 31.1442 257.438 31.1442C256.348 31.1442 255.488 30.9205 254.858 30.473C254.232 30.0223 253.874 29.419 253.784 28.6634L256.186 28.6037C256.239 28.8821 256.376 29.0942 256.598 29.2401C256.82 29.3859 257.104 29.4588 257.448 29.4588C257.76 29.4588 258.013 29.4008 258.209 29.2848C258.405 29.1688 258.504 29.0147 258.507 28.8224C258.504 28.6501 258.428 28.5125 258.279 28.4098C258.129 28.3037 257.896 28.2209 257.578 28.1612L256.245 27.9077C255.48 27.7685 254.91 27.5116 254.535 27.1371C254.16 26.7592 253.975 26.2786 253.978 25.6953C253.975 25.1849 254.111 24.7491 254.386 24.3878C254.661 24.0232 255.052 23.7448 255.559 23.5526C256.066 23.3603 256.664 23.2642 257.354 23.2642C258.388 23.2642 259.203 23.4813 259.8 23.9155C260.397 24.3464 260.726 24.9396 260.789 25.6953ZM270.242 25.6953L268.01 25.755C267.987 25.5959 267.924 25.455 267.821 25.3324C267.718 25.2064 267.584 25.1087 267.418 25.0391C267.256 24.9661 267.067 24.9297 266.851 24.9297C266.57 24.9297 266.329 24.986 266.13 25.0987C265.935 25.2114 265.839 25.3639 265.842 25.5561C265.839 25.7053 265.898 25.8345 266.021 25.9439C266.147 26.0533 266.371 26.1411 266.692 26.2074L268.164 26.4858C268.926 26.6316 269.493 26.8736 269.864 27.2116C270.239 27.5497 270.428 27.9972 270.431 28.554C270.428 29.0777 270.272 29.5334 269.964 29.9212C269.659 30.3089 269.241 30.6106 268.711 30.826C268.18 31.0381 267.574 31.1442 266.891 31.1442C265.801 31.1442 264.941 30.9205 264.311 30.473C263.684 30.0223 263.327 29.419 263.237 28.6634L265.638 28.6037C265.691 28.8821 265.829 29.0942 266.051 29.2401C266.273 29.3859 266.556 29.4588 266.901 29.4588C267.213 29.4588 267.466 29.4008 267.662 29.2848C267.857 29.1688 267.957 29.0147 267.96 28.8224C267.957 28.6501 267.88 28.5125 267.731 28.4098C267.582 28.3037 267.349 28.2209 267.03 28.1612L265.698 27.9077C264.932 27.7685 264.362 27.5116 263.988 27.1371C263.613 26.7592 263.428 26.2786 263.431 25.6953C263.428 25.1849 263.563 24.7491 263.839 24.3878C264.114 24.0232 264.505 23.7448 265.012 23.5526C265.519 23.3603 266.117 23.2642 266.807 23.2642C267.841 23.2642 268.656 23.4813 269.253 23.9155C269.849 24.3464 270.179 24.9396 270.242 25.6953ZM273.028 31V23.3636H275.459V31H273.028ZM274.246 22.4737C273.904 22.4737 273.611 22.361 273.366 22.1357C273.121 21.907 272.998 21.6319 272.998 21.3104C272.998 20.9922 273.121 20.7204 273.366 20.495C273.611 20.2663 273.904 20.152 274.246 20.152C274.591 20.152 274.884 20.2663 275.126 20.495C275.371 20.7204 275.494 20.9922 275.494 21.3104C275.494 21.6319 275.371 21.907 275.126 22.1357C274.884 22.361 274.591 22.4737 274.246 22.4737ZM281.971 31.1442C281.169 31.1442 280.479 30.9801 279.903 30.652C279.329 30.3205 278.887 29.8598 278.575 29.2699C278.267 28.6766 278.113 27.9889 278.113 27.2067C278.113 26.4212 278.267 25.7334 278.575 25.1435C278.887 24.5502 279.329 24.0895 279.903 23.7614C280.479 23.4299 281.169 23.2642 281.971 23.2642C282.773 23.2642 283.461 23.4299 284.034 23.7614C284.611 24.0895 285.053 24.5502 285.362 25.1435C285.673 25.7334 285.829 26.4212 285.829 27.2067C285.829 27.9889 285.673 28.6766 285.362 29.2699C285.053 29.8598 284.611 30.3205 284.034 30.652C283.461 30.9801 282.773 31.1442 281.971 31.1442ZM281.986 29.3097C282.278 29.3097 282.524 29.2202 282.727 29.0412C282.929 28.8622 283.083 28.6136 283.189 28.2955C283.298 27.9773 283.353 27.6094 283.353 27.1918C283.353 26.7675 283.298 26.3963 283.189 26.0781C283.083 25.7599 282.929 25.5114 282.727 25.3324C282.524 25.1534 282.278 25.0639 281.986 25.0639C281.684 25.0639 281.429 25.1534 281.22 25.3324C281.015 25.5114 280.857 25.7599 280.748 26.0781C280.642 26.3963 280.589 26.7675 280.589 27.1918C280.589 27.6094 280.642 27.9773 280.748 28.2955C280.857 28.6136 281.015 28.8622 281.22 29.0412C281.429 29.2202 281.684 29.3097 281.986 29.3097ZM290.905 26.6449V31H288.474V23.3636H290.786V24.7656H290.871C291.04 24.2983 291.328 23.9321 291.736 23.6669C292.143 23.3984 292.629 23.2642 293.192 23.2642C293.729 23.2642 294.195 23.3852 294.589 23.6271C294.987 23.8658 295.295 24.2005 295.514 24.6314C295.736 25.0589 295.846 25.5594 295.842 26.1328V31H293.411V26.6101C293.414 26.1858 293.307 25.8544 293.088 25.6158C292.873 25.3771 292.573 25.2578 292.188 25.2578C291.933 25.2578 291.707 25.3142 291.512 25.4268C291.32 25.5362 291.171 25.6937 291.065 25.8991C290.962 26.1046 290.909 26.3532 290.905 26.6449ZM302.317 31.1442C301.518 31.1442 300.829 30.9867 300.249 30.6719C299.672 30.3537 299.228 29.9013 298.916 29.3146C298.608 28.7247 298.454 28.0237 298.454 27.2116C298.454 26.4228 298.61 25.7334 298.921 25.1435C299.233 24.5502 299.672 24.0895 300.239 23.7614C300.806 23.4299 301.473 23.2642 302.242 23.2642C302.786 23.2642 303.283 23.3487 303.734 23.5178C304.185 23.6868 304.574 23.937 304.902 24.2685C305.23 24.5999 305.486 25.0092 305.668 25.4964C305.85 25.9804 305.941 26.5355 305.941 27.1619V27.7685H299.304V26.3565H303.679C303.676 26.098 303.615 25.8677 303.495 25.6655C303.376 25.4633 303.212 25.3059 303.003 25.1932C302.798 25.0772 302.561 25.0192 302.292 25.0192C302.02 25.0192 301.777 25.0805 301.561 25.2031C301.346 25.3224 301.175 25.4865 301.049 25.6953C300.923 25.9008 300.857 26.1345 300.85 26.3963V27.8331C300.85 28.1446 300.912 28.4181 301.034 28.6534C301.157 28.8854 301.331 29.0661 301.556 29.1953C301.782 29.3246 302.05 29.3892 302.362 29.3892C302.577 29.3892 302.773 29.3594 302.948 29.2997C303.124 29.2401 303.275 29.1522 303.401 29.0362C303.527 28.9202 303.621 28.7777 303.684 28.6087L305.916 28.6733C305.824 29.1738 305.62 29.6096 305.305 29.9808C304.993 30.3487 304.584 30.6354 304.077 30.8409C303.57 31.0431 302.983 31.1442 302.317 31.1442ZM311.442 20.8182L311.213 27.8828H309.17L308.941 20.8182H311.442ZM310.189 31.1442C309.834 31.1442 309.529 31.0182 309.274 30.7663C309.022 30.5144 308.896 30.2095 308.896 29.8516C308.896 29.5002 309.022 29.2003 309.274 28.9517C309.529 28.6998 309.834 28.5739 310.189 28.5739C310.53 28.5739 310.83 28.6998 311.089 28.9517C311.35 29.2003 311.481 29.5002 311.481 29.8516C311.481 30.0902 311.42 30.3073 311.297 30.5028C311.178 30.6984 311.021 30.8542 310.825 30.9702C310.633 31.0862 310.421 31.1442 310.189 31.1442Z" fill="white"/>
<path d="M41.5057 49V47.7216L46.3068 42.4659C46.8703 41.8504 47.3343 41.3153 47.6989 40.8608C48.0634 40.4015 48.3333 39.9706 48.5085 39.5682C48.6884 39.161 48.7784 38.7348 48.7784 38.2898C48.7784 37.7784 48.6553 37.3357 48.4091 36.9616C48.1676 36.5876 47.8362 36.2988 47.4148 36.0952C46.9934 35.8916 46.5199 35.7898 45.9943 35.7898C45.4356 35.7898 44.9479 35.9058 44.5312 36.1378C44.1193 36.3651 43.7997 36.6847 43.5724 37.0966C43.3499 37.5085 43.2386 37.9915 43.2386 38.5455H41.5625C41.5625 37.6932 41.759 36.9451 42.152 36.3011C42.545 35.6572 43.08 35.1553 43.7571 34.7955C44.4389 34.4356 45.2036 34.2557 46.0511 34.2557C46.9034 34.2557 47.6586 34.4356 48.3168 34.7955C48.9749 35.1553 49.491 35.6406 49.8651 36.2514C50.2391 36.8622 50.4261 37.5417 50.4261 38.2898C50.4261 38.8248 50.3291 39.348 50.1349 39.8594C49.9455 40.366 49.6141 40.9318 49.1406 41.5568C48.6719 42.1771 48.0208 42.9347 47.1875 43.8295L43.9205 47.3239V47.4375H50.6818V49H41.5057ZM52.9616 46.017V44.5682L59.3537 34.4545H60.4048V36.6989H59.6946L54.8651 44.3409V44.4545H63.473V46.017H52.9616ZM59.8082 49V45.5767V44.902V34.4545H61.4844V49H59.8082ZM71.305 33.7727L66.6175 51.1875H65.0835L69.771 33.7727H71.305ZM73.718 49L80.2237 36.1307V36.017H72.7237V34.4545H82.0419V36.1023L75.5646 49H73.718Z" fill="white"/>
<path d="M235.935 45H233.915V38.4545H236.024C236.659 38.4545 237.202 38.5856 237.654 38.8477C238.106 39.1076 238.452 39.4815 238.693 39.9695C238.934 40.4553 239.054 41.0369 239.054 41.7145C239.054 42.3963 238.932 42.9833 238.69 43.4755C238.447 43.9656 238.093 44.3427 237.628 44.6069C237.164 44.869 236.599 45 235.935 45ZM234.707 44.2969H235.883C236.425 44.2969 236.873 44.1925 237.229 43.9837C237.585 43.7749 237.85 43.4776 238.025 43.092C238.199 42.7063 238.287 42.2472 238.287 41.7145C238.287 41.1861 238.201 40.7312 238.028 40.3498C237.855 39.9663 237.598 39.6722 237.255 39.4677C236.911 39.261 236.484 39.1577 235.973 39.1577H234.707V44.2969ZM242.339 45.1023C241.866 45.1023 241.458 44.9979 241.115 44.7891C240.774 44.5781 240.511 44.2841 240.326 43.907C240.143 43.5277 240.051 43.0866 240.051 42.5838C240.051 42.081 240.143 41.6378 240.326 41.2543C240.511 40.8686 240.769 40.5682 241.099 40.353C241.432 40.1357 241.82 40.027 242.263 40.027C242.518 40.027 242.771 40.0696 243.02 40.1548C243.269 40.2401 243.496 40.3786 243.701 40.5703C243.905 40.7599 244.068 41.0114 244.19 41.3246C244.311 41.6378 244.372 42.0234 244.372 42.4815V42.8011H240.588V42.1491H243.605C243.605 41.8722 243.55 41.625 243.439 41.4077C243.33 41.1903 243.175 41.0188 242.972 40.8931C242.772 40.7674 242.535 40.7045 242.263 40.7045C241.962 40.7045 241.702 40.7791 241.483 40.9283C241.266 41.0753 241.098 41.267 240.981 41.5036C240.864 41.7401 240.805 41.9936 240.805 42.2642V42.6989C240.805 43.0696 240.869 43.3839 240.997 43.6417C241.127 43.8974 241.307 44.0923 241.537 44.2266C241.767 44.3587 242.035 44.4247 242.339 44.4247C242.538 44.4247 242.717 44.397 242.876 44.3416C243.038 44.2841 243.178 44.1989 243.295 44.0859C243.412 43.9709 243.503 43.8281 243.567 43.6577L244.295 43.8622C244.219 44.1094 244.09 44.3267 243.909 44.5142C243.728 44.6996 243.504 44.8445 243.237 44.9489C242.971 45.0511 242.672 45.1023 242.339 45.1023ZM245.519 46.8409V40.0909H246.248V40.8707H246.338C246.393 40.7855 246.47 40.6768 246.568 40.5447C246.668 40.4105 246.811 40.2912 246.996 40.1868C247.184 40.0803 247.437 40.027 247.757 40.027C248.17 40.027 248.534 40.1303 248.85 40.337C249.165 40.5437 249.411 40.8366 249.588 41.2159C249.765 41.5952 249.853 42.0426 249.853 42.5582C249.853 43.0781 249.765 43.5288 249.588 43.9102C249.411 44.2894 249.166 44.5835 248.853 44.7923C248.54 44.9989 248.179 45.1023 247.769 45.1023C247.454 45.1023 247.202 45.0501 247.012 44.9457C246.822 44.8391 246.676 44.7187 246.574 44.5845C246.472 44.4482 246.393 44.3352 246.338 44.2457H246.274V46.8409H245.519ZM246.261 42.5455C246.261 42.9162 246.315 43.2433 246.424 43.5266C246.533 43.8079 246.691 44.0284 246.9 44.1882C247.109 44.3459 247.365 44.4247 247.667 44.4247C247.983 44.4247 248.246 44.3416 248.457 44.1754C248.67 44.0071 248.829 43.7812 248.936 43.4979C249.045 43.2124 249.099 42.8949 249.099 42.5455C249.099 42.2003 249.046 41.8892 248.939 41.6122C248.835 41.3331 248.676 41.1126 248.463 40.9506C248.252 40.7866 247.987 40.7045 247.667 40.7045C247.36 40.7045 247.103 40.7823 246.894 40.9379C246.685 41.0913 246.527 41.3065 246.421 41.5835C246.314 41.8583 246.261 42.179 246.261 42.5455ZM252.998 45.1023C252.555 45.1023 252.166 44.9968 251.832 44.7859C251.499 44.5749 251.239 44.2798 251.052 43.9006C250.866 43.5213 250.774 43.0781 250.774 42.571C250.774 42.0597 250.866 41.6133 251.052 41.2319C251.239 40.8505 251.499 40.5543 251.832 40.3434C252.166 40.1325 252.555 40.027 252.998 40.027C253.441 40.027 253.829 40.1325 254.161 40.3434C254.496 40.5543 254.756 40.8505 254.941 41.2319C255.129 41.6133 255.223 42.0597 255.223 42.571C255.223 43.0781 255.129 43.5213 254.941 43.9006C254.756 44.2798 254.496 44.5749 254.161 44.7859C253.829 44.9968 253.441 45.1023 252.998 45.1023ZM252.998 44.4247C253.335 44.4247 253.612 44.3384 253.829 44.1658C254.046 43.9933 254.207 43.7663 254.312 43.4851C254.416 43.2038 254.468 42.8991 254.468 42.571C254.468 42.2429 254.416 41.9371 254.312 41.6538C254.207 41.3704 254.046 41.1413 253.829 40.9666C253.612 40.7919 253.335 40.7045 252.998 40.7045C252.661 40.7045 252.384 40.7919 252.167 40.9666C251.95 41.1413 251.789 41.3704 251.685 41.6538C251.58 41.9371 251.528 42.2429 251.528 42.571C251.528 42.8991 251.58 43.2038 251.685 43.4851C251.789 43.7663 251.95 43.9933 252.167 44.1658C252.384 44.3384 252.661 44.4247 252.998 44.4247ZM259.851 41.1903L259.174 41.3821C259.131 41.2692 259.068 41.1594 258.985 41.0529C258.904 40.9442 258.793 40.8548 258.653 40.7844C258.512 40.7141 258.332 40.679 258.113 40.679C257.812 40.679 257.562 40.7482 257.362 40.8867C257.163 41.0231 257.064 41.1967 257.064 41.4077C257.064 41.5952 257.132 41.7433 257.269 41.8519C257.405 41.9606 257.618 42.0511 257.908 42.1236L258.637 42.3026C259.076 42.4091 259.403 42.5721 259.618 42.7915C259.833 43.0089 259.941 43.2891 259.941 43.6321C259.941 43.9134 259.86 44.1648 259.698 44.3864C259.538 44.608 259.314 44.7827 259.027 44.9105C258.739 45.0384 258.404 45.1023 258.023 45.1023C257.522 45.1023 257.108 44.9936 256.78 44.7763C256.452 44.5589 256.244 44.2415 256.157 43.8239L256.873 43.6449C256.941 43.9091 257.07 44.1072 257.259 44.2393C257.451 44.3714 257.701 44.4375 258.01 44.4375C258.362 44.4375 258.641 44.3629 258.848 44.2138C259.056 44.0625 259.161 43.8814 259.161 43.6705C259.161 43.5 259.101 43.3572 258.982 43.2422C258.863 43.125 258.679 43.0376 258.432 42.9801L257.614 42.7884C257.164 42.6818 256.834 42.5167 256.623 42.293C256.414 42.0671 256.31 41.7848 256.31 41.446C256.31 41.169 256.388 40.924 256.543 40.7109C256.701 40.4979 256.915 40.3306 257.186 40.2092C257.458 40.0877 257.767 40.027 258.113 40.027C258.598 40.027 258.98 40.1335 259.257 40.3466C259.536 40.5597 259.734 40.8409 259.851 41.1903ZM261.076 45V40.0909H261.83V45H261.076ZM261.46 39.2727C261.313 39.2727 261.186 39.2227 261.079 39.1225C260.975 39.0224 260.923 38.902 260.923 38.7614C260.923 38.6207 260.975 38.5004 261.079 38.4002C261.186 38.3001 261.313 38.25 261.46 38.25C261.607 38.25 261.732 38.3001 261.837 38.4002C261.943 38.5004 261.997 38.6207 261.997 38.7614C261.997 38.902 261.943 39.0224 261.837 39.1225C261.732 39.2227 261.607 39.2727 261.46 39.2727ZM265.347 40.0909V40.7301H262.803V40.0909H265.347ZM263.544 38.9148H264.298V43.5938C264.298 43.8068 264.329 43.9666 264.391 44.0732C264.455 44.1776 264.536 44.2479 264.634 44.2841C264.734 44.3182 264.84 44.3352 264.95 44.3352C265.034 44.3352 265.102 44.331 265.155 44.3224C265.208 44.3118 265.251 44.3033 265.283 44.2969L265.436 44.9744C265.385 44.9936 265.314 45.0128 265.222 45.032C265.131 45.0533 265.014 45.0639 264.874 45.0639C264.661 45.0639 264.452 45.0181 264.247 44.9265C264.045 44.8349 263.877 44.6953 263.742 44.5078C263.61 44.3203 263.544 44.0838 263.544 43.7983V38.9148ZM268.423 45.1023C267.98 45.1023 267.591 44.9968 267.256 44.7859C266.924 44.5749 266.664 44.2798 266.477 43.9006C266.291 43.5213 266.199 43.0781 266.199 42.571C266.199 42.0597 266.291 41.6133 266.477 41.2319C266.664 40.8505 266.924 40.5543 267.256 40.3434C267.591 40.1325 267.98 40.027 268.423 40.027C268.866 40.027 269.254 40.1325 269.586 40.3434C269.921 40.5543 270.181 40.8505 270.366 41.2319C270.554 41.6133 270.647 42.0597 270.647 42.571C270.647 43.0781 270.554 43.5213 270.366 43.9006C270.181 44.2798 269.921 44.5749 269.586 44.7859C269.254 44.9968 268.866 45.1023 268.423 45.1023ZM268.423 44.4247C268.76 44.4247 269.037 44.3384 269.254 44.1658C269.471 43.9933 269.632 43.7663 269.737 43.4851C269.841 43.2038 269.893 42.8991 269.893 42.571C269.893 42.2429 269.841 41.9371 269.737 41.6538C269.632 41.3704 269.471 41.1413 269.254 40.9666C269.037 40.7919 268.76 40.7045 268.423 40.7045C268.086 40.7045 267.809 40.7919 267.592 40.9666C267.375 41.1413 267.214 41.3704 267.109 41.6538C267.005 41.9371 266.953 42.2429 266.953 42.571C266.953 42.8991 267.005 43.2038 267.109 43.4851C267.214 43.7663 267.375 43.9933 267.592 44.1658C267.809 44.3384 268.086 44.4247 268.423 44.4247ZM276.388 45.1023C275.915 45.1023 275.507 44.9979 275.164 44.7891C274.823 44.5781 274.56 44.2841 274.375 43.907C274.191 43.5277 274.1 43.0866 274.1 42.5838C274.1 42.081 274.191 41.6378 274.375 41.2543C274.56 40.8686 274.818 40.5682 275.148 40.353C275.481 40.1357 275.868 40.027 276.312 40.027C276.567 40.027 276.82 40.0696 277.069 40.1548C277.318 40.2401 277.545 40.3786 277.75 40.5703C277.954 40.7599 278.117 41.0114 278.239 41.3246C278.36 41.6378 278.421 42.0234 278.421 42.4815V42.8011H274.637V42.1491H277.654C277.654 41.8722 277.598 41.625 277.488 41.4077C277.379 41.1903 277.223 41.0188 277.021 40.8931C276.821 40.7674 276.584 40.7045 276.312 40.7045C276.011 40.7045 275.751 40.7791 275.532 40.9283C275.314 41.0753 275.147 41.267 275.03 41.5036C274.913 41.7401 274.854 41.9936 274.854 42.2642V42.6989C274.854 43.0696 274.918 43.3839 275.046 43.6417C275.176 43.8974 275.356 44.0923 275.586 44.2266C275.816 44.3587 276.084 44.4247 276.388 44.4247C276.586 44.4247 276.765 44.397 276.925 44.3416C277.087 44.2841 277.227 44.1989 277.344 44.0859C277.461 43.9709 277.552 43.8281 277.616 43.6577L278.344 43.8622C278.267 44.1094 278.139 44.3267 277.957 44.5142C277.776 44.6996 277.553 44.8445 277.286 44.9489C277.02 45.0511 276.721 45.1023 276.388 45.1023ZM239.935 56V49.4545H242.147C242.66 49.4545 243.08 49.5472 243.406 49.7326C243.734 49.9158 243.977 50.1641 244.135 50.4773C244.292 50.7905 244.371 51.1399 244.371 51.5256C244.371 51.9112 244.292 52.2617 244.135 52.5771C243.979 52.8924 243.738 53.1438 243.412 53.3313C243.086 53.5167 242.669 53.6094 242.16 53.6094H240.574V52.9062H242.134C242.486 52.9062 242.768 52.8455 242.981 52.7241C243.194 52.6026 243.349 52.4386 243.444 52.2319C243.542 52.0231 243.591 51.7876 243.591 51.5256C243.591 51.2635 243.542 51.0291 243.444 50.8224C243.349 50.6158 243.193 50.4538 242.978 50.3366C242.763 50.2173 242.477 50.1577 242.121 50.1577H240.728V56H239.935ZM245.546 56V51.0909H246.275V51.8324H246.326C246.415 51.5895 246.577 51.3924 246.811 51.2411C247.046 51.0898 247.31 51.0142 247.604 51.0142C247.659 51.0142 247.729 51.0153 247.812 51.0174C247.895 51.0195 247.958 51.0227 248 51.027V51.794C247.975 51.7876 247.916 51.7781 247.825 51.7653C247.735 51.7504 247.64 51.7429 247.54 51.7429C247.301 51.7429 247.088 51.793 246.901 51.8931C246.716 51.9911 246.569 52.1275 246.46 52.3022C246.353 52.4748 246.3 52.6719 246.3 52.8935V56H245.546ZM250.803 56.1023C250.33 56.1023 249.922 55.9979 249.579 55.7891C249.238 55.5781 248.975 55.2841 248.79 54.907C248.607 54.5277 248.515 54.0866 248.515 53.5838C248.515 53.081 248.607 52.6378 248.79 52.2543C248.975 51.8686 249.233 51.5682 249.563 51.353C249.896 51.1357 250.283 51.027 250.727 51.027C250.982 51.027 251.235 51.0696 251.484 51.1548C251.733 51.2401 251.96 51.3786 252.165 51.5703C252.369 51.7599 252.532 52.0114 252.654 52.3246C252.775 52.6378 252.836 53.0234 252.836 53.4815V53.8011H249.052V53.1491H252.069C252.069 52.8722 252.013 52.625 251.903 52.4077C251.794 52.1903 251.638 52.0188 251.436 51.8931C251.236 51.7674 250.999 51.7045 250.727 51.7045C250.426 51.7045 250.166 51.7791 249.947 51.9283C249.729 52.0753 249.562 52.267 249.445 52.5036C249.328 52.7401 249.269 52.9936 249.269 53.2642V53.6989C249.269 54.0696 249.333 54.3839 249.461 54.6417C249.591 54.8974 249.771 55.0923 250.001 55.2266C250.231 55.3587 250.499 55.4247 250.803 55.4247C251.001 55.4247 251.18 55.397 251.34 55.3416C251.502 55.2841 251.642 55.1989 251.759 55.0859C251.876 54.9709 251.967 54.8281 252.031 54.6577L252.759 54.8622C252.683 55.1094 252.554 55.3267 252.373 55.5142C252.191 55.6996 251.968 55.8445 251.701 55.9489C251.435 56.0511 251.136 56.1023 250.803 56.1023ZM254.738 49.4545V56H253.983V49.4545H254.738ZM256.119 56V51.0909H256.873V56H256.119ZM256.503 50.2727C256.356 50.2727 256.229 50.2227 256.122 50.1225C256.018 50.0224 255.966 49.902 255.966 49.7614C255.966 49.6207 256.018 49.5004 256.122 49.4002C256.229 49.3001 256.356 49.25 256.503 49.25C256.65 49.25 256.775 49.3001 256.88 49.4002C256.986 49.5004 257.04 49.6207 257.04 49.7614C257.04 49.902 256.986 50.0224 256.88 50.1225C256.775 50.2227 256.65 50.2727 256.503 50.2727ZM260.313 56.1023C259.84 56.1023 259.432 55.9979 259.089 55.7891C258.748 55.5781 258.485 55.2841 258.3 54.907C258.116 54.5277 258.025 54.0866 258.025 53.5838C258.025 53.081 258.116 52.6378 258.3 52.2543C258.485 51.8686 258.743 51.5682 259.073 51.353C259.405 51.1357 259.793 51.027 260.236 51.027C260.492 51.027 260.744 51.0696 260.994 51.1548C261.243 51.2401 261.47 51.3786 261.675 51.5703C261.879 51.7599 262.042 52.0114 262.164 52.3246C262.285 52.6378 262.346 53.0234 262.346 53.4815V53.8011H258.562V53.1491H261.579C261.579 52.8722 261.523 52.625 261.412 52.4077C261.304 52.1903 261.148 52.0188 260.946 51.8931C260.746 51.7674 260.509 51.7045 260.236 51.7045C259.936 51.7045 259.676 51.7791 259.456 51.9283C259.239 52.0753 259.072 52.267 258.955 52.5036C258.838 52.7401 258.779 52.9936 258.779 53.2642V53.6989C258.779 54.0696 258.843 54.3839 258.971 54.6417C259.101 54.8974 259.281 55.0923 259.511 55.2266C259.741 55.3587 260.008 55.4247 260.313 55.4247C260.511 55.4247 260.69 55.397 260.85 55.3416C261.012 55.2841 261.151 55.1989 261.269 55.0859C261.386 54.9709 261.476 54.8281 261.54 54.6577L262.269 54.8622C262.192 55.1094 262.063 55.3267 261.882 55.5142C261.701 55.6996 261.477 55.8445 261.211 55.9489C260.945 56.0511 260.645 56.1023 260.313 56.1023ZM267.358 51.0909L265.543 56H264.775L262.96 51.0909H263.778L265.133 55.0028H265.185L266.54 51.0909H267.358ZM270.172 56.1023C269.729 56.1023 269.34 55.9968 269.005 55.7859C268.673 55.5749 268.413 55.2798 268.226 54.9006C268.04 54.5213 267.948 54.0781 267.948 53.571C267.948 53.0597 268.04 52.6133 268.226 52.2319C268.413 51.8505 268.673 51.5543 269.005 51.3434C269.34 51.1325 269.729 51.027 270.172 51.027C270.615 51.027 271.003 51.1325 271.335 51.3434C271.67 51.5543 271.93 51.8505 272.115 52.2319C272.303 52.6133 272.396 53.0597 272.396 53.571C272.396 54.0781 272.303 54.5213 272.115 54.9006C271.93 55.2798 271.67 55.5749 271.335 55.7859C271.003 55.9968 270.615 56.1023 270.172 56.1023ZM270.172 55.4247C270.509 55.4247 270.786 55.3384 271.003 55.1658C271.22 54.9933 271.381 54.7663 271.486 54.4851C271.59 54.2038 271.642 53.8991 271.642 53.571C271.642 53.2429 271.59 52.9371 271.486 52.6538C271.381 52.3704 271.22 52.1413 271.003 51.9666C270.786 51.7919 270.509 51.7045 270.172 51.7045C269.835 51.7045 269.558 51.7919 269.341 51.9666C269.124 52.1413 268.963 52.3704 268.858 52.6538C268.754 52.9371 268.702 53.2429 268.702 53.571C268.702 53.8991 268.754 54.2038 268.858 54.4851C268.963 54.7663 269.124 54.9933 269.341 55.1658C269.558 55.3384 269.835 55.4247 270.172 55.4247Z" fill="white"/>
<path d="M422.637 51.3182C421.827 51.3182 421.131 51.214 420.549 51.0057C419.966 50.8021 419.481 50.5322 419.093 50.196C418.709 49.8646 418.404 49.5095 418.176 49.1307L419.512 48.1932C419.663 48.392 419.855 48.6193 420.087 48.875C420.319 49.1354 420.636 49.3603 421.039 49.5497C421.446 49.7438 421.979 49.8409 422.637 49.8409C423.517 49.8409 424.244 49.6278 424.817 49.2017C425.39 48.7756 425.676 48.108 425.676 47.1989V44.983H425.534C425.411 45.1818 425.236 45.428 425.009 45.7216C424.786 46.0104 424.464 46.2685 424.043 46.4957C423.626 46.7183 423.063 46.8295 422.353 46.8295C421.472 46.8295 420.681 46.6212 419.98 46.2045C419.284 45.7879 418.733 45.1818 418.326 44.3864C417.923 43.5909 417.722 42.625 417.722 41.4886C417.722 40.3712 417.918 39.3982 418.311 38.5696C418.704 37.7363 419.251 37.0923 419.952 36.6378C420.653 36.1785 421.462 35.9489 422.381 35.9489C423.091 35.9489 423.655 36.0672 424.071 36.304C424.493 36.536 424.815 36.8011 425.037 37.0994C425.265 37.393 425.44 37.6345 425.563 37.8239H425.733V36.0909H427.353V47.3125C427.353 48.25 427.14 49.0123 426.713 49.5994C426.292 50.1913 425.724 50.6245 425.009 50.8991C424.299 51.1785 423.508 51.3182 422.637 51.3182ZM422.58 45.3239C423.252 45.3239 423.82 45.17 424.284 44.8622C424.748 44.5545 425.101 44.1117 425.343 43.5341C425.584 42.9564 425.705 42.2652 425.705 41.4602C425.705 40.6742 425.587 39.9806 425.35 39.3793C425.113 38.7779 424.763 38.3068 424.299 37.9659C423.835 37.625 423.262 37.4545 422.58 37.4545C421.87 37.4545 421.278 37.6345 420.804 37.9943C420.336 38.3542 419.983 38.8371 419.746 39.4432C419.514 40.0492 419.398 40.7216 419.398 41.4602C419.398 42.2178 419.516 42.8878 419.753 43.4702C419.995 44.0478 420.35 44.5024 420.819 44.8338C421.292 45.1605 421.879 45.3239 422.58 45.3239ZM430.421 47V36.0909H432.097V47H430.421ZM431.273 34.2727C430.946 34.2727 430.665 34.1615 430.428 33.9389C430.196 33.7164 430.08 33.4489 430.08 33.1364C430.08 32.8239 430.196 32.5563 430.428 32.3338C430.665 32.1113 430.946 32 431.273 32C431.6 32 431.879 32.1113 432.111 32.3338C432.348 32.5563 432.466 32.8239 432.466 33.1364C432.466 33.4489 432.348 33.7164 432.111 33.9389C431.879 34.1615 431.6 34.2727 431.273 34.2727ZM439.599 47.2273C438.614 47.2273 437.75 46.9929 437.006 46.5241C436.268 46.0554 435.69 45.3996 435.273 44.5568C434.862 43.714 434.656 42.7292 434.656 41.6023C434.656 40.4659 434.862 39.474 435.273 38.6264C435.69 37.7789 436.268 37.1207 437.006 36.652C437.75 36.1832 438.614 35.9489 439.599 35.9489C440.584 35.9489 441.445 36.1832 442.184 36.652C442.927 37.1207 443.505 37.7789 443.917 38.6264C444.334 39.474 444.542 40.4659 444.542 41.6023C444.542 42.7292 444.334 43.714 443.917 44.5568C443.505 45.3996 442.927 46.0554 442.184 46.5241C441.445 46.9929 440.584 47.2273 439.599 47.2273ZM439.599 45.7216C440.347 45.7216 440.962 45.5298 441.445 45.1463C441.928 44.7628 442.286 44.2585 442.518 43.6335C442.75 43.0085 442.866 42.3314 442.866 41.6023C442.866 40.8731 442.75 40.1937 442.518 39.5639C442.286 38.9342 441.928 38.4252 441.445 38.0369C440.962 37.6487 440.347 37.4545 439.599 37.4545C438.851 37.4545 438.235 37.6487 437.752 38.0369C437.269 38.4252 436.912 38.9342 436.68 39.5639C436.448 40.1937 436.332 40.8731 436.332 41.6023C436.332 42.3314 436.448 43.0085 436.68 43.6335C436.912 44.2585 437.269 44.7628 437.752 45.1463C438.235 45.5298 438.851 45.7216 439.599 45.7216ZM451.532 47.2273C450.51 47.2273 449.629 46.9858 448.89 46.5028C448.152 46.0199 447.583 45.3546 447.186 44.5071C446.788 43.6596 446.589 42.6913 446.589 41.6023C446.589 40.4943 446.793 39.5166 447.2 38.669C447.612 37.8168 448.185 37.1515 448.919 36.6733C449.657 36.1903 450.519 35.9489 451.504 35.9489C452.271 35.9489 452.962 36.0909 453.578 36.375C454.193 36.6591 454.698 37.0568 455.091 37.5682C455.484 38.0795 455.727 38.6761 455.822 39.358H454.146C454.018 38.8608 453.734 38.4205 453.294 38.0369C452.858 37.6487 452.271 37.4545 451.532 37.4545C450.879 37.4545 450.306 37.625 449.814 37.9659C449.326 38.3021 448.945 38.7779 448.67 39.3935C448.4 40.0043 448.265 40.7216 448.265 41.5455C448.265 42.3883 448.398 43.1222 448.663 43.7472C448.933 44.3722 449.312 44.8575 449.799 45.2031C450.292 45.5488 450.869 45.7216 451.532 45.7216C451.968 45.7216 452.363 45.6458 452.718 45.4943C453.074 45.3428 453.374 45.125 453.62 44.8409C453.867 44.5568 454.042 44.2159 454.146 43.8182H455.822C455.727 44.4621 455.493 45.0421 455.119 45.5582C454.75 46.0696 454.26 46.4768 453.649 46.7798C453.043 47.0781 452.337 47.2273 451.532 47.2273ZM459.949 40.4375V47H458.272V32.4545H459.949V37.7955H460.091C460.346 37.232 460.73 36.7846 461.241 36.4531C461.757 36.117 462.444 35.9489 463.301 35.9489C464.044 35.9489 464.695 36.098 465.254 36.3963C465.813 36.6899 466.246 37.142 466.554 37.7528C466.866 38.3589 467.022 39.1307 467.022 40.0682V47H465.346V40.1818C465.346 39.3153 465.121 38.6454 464.672 38.1719C464.226 37.6937 463.609 37.4545 462.818 37.4545C462.269 37.4545 461.776 37.5705 461.341 37.8026C460.91 38.0346 460.569 38.3731 460.318 38.8182C460.072 39.2633 459.949 39.803 459.949 40.4375ZM470.089 47V36.0909H471.765V47H470.089ZM470.941 34.2727C470.614 34.2727 470.333 34.1615 470.096 33.9389C469.864 33.7164 469.748 33.4489 469.748 33.1364C469.748 32.8239 469.864 32.5563 470.096 32.3338C470.333 32.1113 470.614 32 470.941 32C471.268 32 471.547 32.1113 471.779 32.3338C472.016 32.5563 472.134 32.8239 472.134 33.1364C472.134 33.4489 472.016 33.7164 471.779 33.9389C471.547 34.1615 471.268 34.2727 470.941 34.2727Z" fill="white"/>
<path d="M387.381 14.9091C387.381 16.0294 387.165 16.9789 386.734 17.7578C386.304 18.5367 385.72 19.1283 384.984 19.5327C384.252 19.937 383.43 20.1392 382.518 20.1392C381.604 20.1392 380.78 19.9354 380.048 19.5277C379.315 19.12 378.733 18.5284 378.303 17.7528C377.875 16.974 377.661 16.026 377.661 14.9091C377.661 13.7888 377.875 12.8393 378.303 12.0604C378.733 11.2815 379.315 10.6899 380.048 10.2855C380.78 9.88115 381.604 9.67898 382.518 9.67898C383.43 9.67898 384.252 9.88115 384.984 10.2855C385.72 10.6899 386.304 11.2815 386.734 12.0604C387.165 12.8393 387.381 13.7888 387.381 14.9091ZM384.865 14.9091C384.865 14.2462 384.771 13.6861 384.582 13.2287C384.396 12.7713 384.128 12.425 383.776 12.1896C383.428 11.9543 383.009 11.8366 382.518 11.8366C382.031 11.8366 381.612 11.9543 381.261 12.1896C380.909 12.425 380.639 12.7713 380.45 13.2287C380.265 13.6861 380.172 14.2462 380.172 14.9091C380.172 15.572 380.265 16.1321 380.45 16.5895C380.639 17.0469 380.909 17.3932 381.261 17.6286C381.612 17.8639 382.031 17.9815 382.518 17.9815C383.009 17.9815 383.428 17.8639 383.776 17.6286C384.128 17.3932 384.396 17.0469 384.582 16.5895C384.771 16.1321 384.865 15.572 384.865 14.9091ZM390.077 20V9.81818H392.538V18.0014H396.774V20H390.077ZM397.731 11.8168V9.81818H406.337V11.8168H403.249V20H400.823V11.8168H397.731ZM408.799 20V9.81818H413.005C413.767 9.81818 414.425 9.95573 414.978 10.2308C415.535 10.5026 415.964 10.8937 416.266 11.4041C416.568 11.9112 416.718 12.5128 416.718 13.2088C416.718 13.9148 416.564 14.5147 416.256 15.0085C415.948 15.4991 415.51 15.8736 414.944 16.1321C414.377 16.3873 413.706 16.5149 412.93 16.5149H410.27V14.576H412.473C412.844 14.576 413.154 14.5279 413.402 14.4318C413.654 14.3324 413.845 14.1832 413.974 13.9844C414.103 13.7822 414.168 13.5237 414.168 13.2088C414.168 12.8939 414.103 12.6338 413.974 12.4283C413.845 12.2195 413.654 12.0637 413.402 11.9609C413.15 11.8549 412.841 11.8018 412.473 11.8018H411.26V20H408.799ZM414.531 15.3466L417.066 20H414.382L411.896 15.3466H414.531ZM419.328 20V9.81818H426.428V11.8168H421.789V13.9048H426.065V15.9084H421.789V18.0014H426.428V20H419.328Z" fill="white"/>
<path d="M435.628 20V17.4716L440.933 12.8267C441.331 12.4669 441.669 12.1378 441.949 11.8395C442.228 11.5365 442.441 11.2334 442.588 10.9304C442.735 10.6226 442.808 10.2888 442.808 9.92898C442.808 9.52652 442.72 9.18324 442.545 8.89915C442.37 8.61032 442.128 8.38778 441.821 8.23153C441.513 8.07528 441.16 7.99716 440.762 7.99716C440.36 7.99716 440.007 8.08002 439.704 8.24574C439.401 8.40672 439.164 8.6411 438.994 8.94886C438.828 9.25663 438.745 9.63068 438.745 10.071H435.414C435.414 9.08144 435.637 8.2268 436.082 7.5071C436.527 6.78741 437.152 6.23343 437.957 5.84517C438.767 5.45218 439.707 5.25568 440.777 5.25568C441.88 5.25568 442.839 5.44034 443.653 5.80966C444.467 6.17898 445.097 6.69508 445.542 7.35795C445.992 8.0161 446.217 8.78078 446.217 9.65199C446.217 10.206 446.106 10.7552 445.883 11.2997C445.661 11.8442 445.261 12.4455 444.683 13.1037C444.11 13.7618 443.296 14.5502 442.24 15.4688L440.5 17.0739V17.1662H446.395V20H435.628ZM456.197 20.3551C454.928 20.3551 453.834 20.0545 452.916 19.4531C451.997 18.8471 451.289 17.9782 450.792 16.8466C450.295 15.7102 450.049 14.3442 450.054 12.7486C450.058 11.1529 450.307 9.79877 450.799 8.68608C451.296 7.56865 452.002 6.71875 452.916 6.13636C453.834 5.54924 454.928 5.25568 456.197 5.25568C457.466 5.25568 458.56 5.54924 459.478 6.13636C460.402 6.71875 461.112 7.56865 461.609 8.68608C462.106 9.8035 462.352 11.1577 462.348 12.7486C462.348 14.349 462.099 15.7173 461.602 16.8537C461.105 17.9901 460.397 18.8589 459.478 19.4602C458.564 20.0568 457.471 20.3551 456.197 20.3551ZM456.197 17.4787C456.955 17.4787 457.568 17.0928 458.037 16.321C458.505 15.5445 458.737 14.3537 458.733 12.7486C458.733 11.6974 458.626 10.831 458.413 10.1491C458.2 9.46259 457.904 8.95123 457.525 8.61506C457.146 8.27888 456.704 8.1108 456.197 8.1108C455.444 8.1108 454.836 8.49195 454.372 9.25426C453.908 10.0118 453.673 11.1766 453.669 12.7486C453.664 13.8139 453.766 14.697 453.974 15.3977C454.187 16.0985 454.485 16.6217 454.869 16.9673C455.252 17.3082 455.695 17.4787 456.197 17.4787ZM472.177 20.3551C470.908 20.3551 469.814 20.0545 468.895 19.4531C467.977 18.8471 467.269 17.9782 466.772 16.8466C466.275 15.7102 466.029 14.3442 466.033 12.7486C466.038 11.1529 466.287 9.79877 466.779 8.68608C467.276 7.56865 467.982 6.71875 468.895 6.13636C469.814 5.54924 470.908 5.25568 472.177 5.25568C473.446 5.25568 474.539 5.54924 475.458 6.13636C476.381 6.71875 477.092 7.56865 477.589 8.68608C478.086 9.8035 478.332 11.1577 478.327 12.7486C478.327 14.349 478.079 15.7173 477.582 16.8537C477.084 17.9901 476.377 18.8589 475.458 19.4602C474.544 20.0568 473.45 20.3551 472.177 20.3551ZM472.177 17.4787C472.934 17.4787 473.547 17.0928 474.016 16.321C474.485 15.5445 474.717 14.3537 474.712 12.7486C474.712 11.6974 474.606 10.831 474.393 10.1491C474.18 9.46259 473.884 8.95123 473.505 8.61506C473.126 8.27888 472.683 8.1108 472.177 8.1108C471.424 8.1108 470.815 8.49195 470.351 9.25426C469.887 10.0118 469.653 11.1766 469.648 12.7486C469.644 13.8139 469.745 14.697 469.954 15.3977C470.167 16.0985 470.465 16.6217 470.849 16.9673C471.232 17.3082 471.675 17.4787 472.177 17.4787ZM488.156 20.3551C486.887 20.3551 485.794 20.0545 484.875 19.4531C483.957 18.8471 483.249 17.9782 482.752 16.8466C482.254 15.7102 482.008 14.3442 482.013 12.7486C482.018 11.1529 482.266 9.79877 482.759 8.68608C483.256 7.56865 483.961 6.71875 484.875 6.13636C485.794 5.54924 486.887 5.25568 488.156 5.25568C489.425 5.25568 490.519 5.54924 491.438 6.13636C492.361 6.71875 493.071 7.56865 493.568 8.68608C494.066 9.8035 494.312 11.1577 494.307 12.7486C494.307 14.349 494.058 15.7173 493.561 16.8537C493.064 17.9901 492.356 18.8589 491.438 19.4602C490.524 20.0568 489.43 20.3551 488.156 20.3551ZM488.156 17.4787C488.914 17.4787 489.527 17.0928 489.996 16.321C490.465 15.5445 490.697 14.3537 490.692 12.7486C490.692 11.6974 490.585 10.831 490.372 10.1491C490.159 9.46259 489.863 8.95123 489.485 8.61506C489.106 8.27888 488.663 8.1108 488.156 8.1108C487.404 8.1108 486.795 8.49195 486.331 9.25426C485.867 10.0118 485.633 11.1766 485.628 12.7486C485.623 13.8139 485.725 14.697 485.933 15.3977C486.146 16.0985 486.445 16.6217 486.828 16.9673C487.212 17.3082 487.655 17.4787 488.156 17.4787ZM502.481 17.8977V7.61364H505.344V17.8977H502.481ZM498.767 14.1903V11.321H509.051V14.1903H498.767Z" fill="#F1C300"/>
</g>
<defs>
<clipPath id="clip0_21_12">
<rect width="513" height="57" fill="white"/>
</clipPath>
</defs>
</svg>
