<svg width="513" height="128" viewBox="0 0 513 128" fill="none" xmlns="http://www.w3.org/2000/svg">
<path d="M14.304 11.8228H10.7528C10.7055 11.4582 10.6084 11.1292 10.4616 10.8356C10.3149 10.542 10.1207 10.2911 9.87926 10.0828C9.63778 9.87443 9.35133 9.71581 9.01989 9.60691C8.69318 9.49327 8.33097 9.43646 7.93324 9.43646C7.22775 9.43646 6.61932 9.60928 6.10795 9.95492C5.60133 10.3006 5.2107 10.8001 4.93608 11.4535C4.66619 12.1069 4.53125 12.8976 4.53125 13.8257C4.53125 14.7916 4.66856 15.6012 4.94318 16.2546C5.22254 16.9033 5.61316 17.3934 6.11506 17.7248C6.62169 18.0515 7.22064 18.2149 7.91193 18.2149C8.30019 18.2149 8.65294 18.1651 8.97017 18.0657C9.29214 17.9663 9.57386 17.8219 9.81534 17.6325C10.0616 17.4384 10.2628 17.204 10.419 16.9294C10.58 16.65 10.6913 16.3351 10.7528 15.9848L14.304 16.0061C14.2424 16.65 14.0554 17.2845 13.7429 17.9095C13.4351 18.5345 13.0114 19.105 12.4716 19.6211C11.9318 20.1325 11.2737 20.5397 10.4972 20.8427C9.72538 21.1457 8.83996 21.2973 7.84091 21.2973C6.52462 21.2973 5.34564 21.0084 4.30398 20.4308C3.26705 19.8484 2.44792 19.0009 1.84659 17.8882C1.24527 16.7755 0.944602 15.4213 0.944602 13.8257C0.944602 12.2253 1.25 10.8687 1.8608 9.75606C2.47159 8.64337 3.29782 7.7982 4.33949 7.22055C5.38116 6.6429 6.5483 6.35407 7.84091 6.35407C8.72159 6.35407 9.53598 6.47718 10.2841 6.72339C11.0322 6.96487 11.6903 7.31998 12.2585 7.78873C12.8267 8.25274 13.2884 8.82329 13.6435 9.50038C13.9986 10.1775 14.2188 10.9516 14.304 11.8228ZM18.3157 21.0984V6.55293H21.8313V12.391H27.5629V6.55293H31.0714V21.0984H27.5629V15.2532H21.8313V21.0984H18.3157ZM38.4229 21.0984H34.6445L39.5522 6.55293H44.2326L49.1403 21.0984H45.3619L41.9457 10.2177H41.832L38.4229 21.0984ZM37.9187 15.374H45.8164V18.0444H37.9187V15.374ZM50.4141 9.40805V6.55293H62.7081V9.40805H58.2976V21.0984H54.8317V9.40805H50.4141Z" fill="white"/>
<path d="M72.7219 21.0984V6.55293H76.2376V18.2433H82.2887V21.0984H72.7219ZM89.6243 6.55293V21.0984H86.1087V6.55293H89.6243ZM97.1339 6.55293L100.387 17.2063H100.507L103.76 6.55293H107.695L102.787 21.0984H98.1069L93.1992 6.55293H97.1339ZM111.261 21.0984V6.55293H121.403V9.40805H114.777V12.391H120.885V15.2532H114.777V18.2433H121.403V21.0984H111.261Z" fill="#E4B800"/>
<path d="M201.545 4.45455V19H198.562L192.773 10.6051H192.681V19H189.165V4.45455H192.191L197.915 12.8352H198.036V4.45455H201.545ZM205.755 19V4.45455H215.897V7.30966H209.271V10.2926H215.379V13.1548H209.271V16.1449H215.897V19H205.755ZM227.961 8.81534C227.914 8.29451 227.703 7.88968 227.329 7.60085C226.96 7.30729 226.432 7.16051 225.745 7.16051C225.291 7.16051 224.912 7.2197 224.609 7.33807C224.306 7.45644 224.079 7.61979 223.927 7.82812C223.776 8.03172 223.697 8.2661 223.693 8.53125C223.683 8.74905 223.726 8.94081 223.82 9.10653C223.92 9.27225 224.062 9.41903 224.247 9.54688C224.436 9.66998 224.663 9.77888 224.928 9.87358C225.194 9.96828 225.492 10.0511 225.823 10.1222L227.073 10.4062C227.793 10.5625 228.427 10.7708 228.977 11.0312C229.531 11.2917 229.995 11.6018 230.369 11.9616C230.748 12.3215 231.034 12.7358 231.228 13.2045C231.422 13.6733 231.522 14.1989 231.526 14.7812C231.522 15.6998 231.29 16.4882 230.83 17.1463C230.371 17.8045 229.711 18.3087 228.849 18.6591C227.992 19.0095 226.957 19.1847 225.745 19.1847C224.528 19.1847 223.468 19.0024 222.563 18.6378C221.659 18.2732 220.956 17.7192 220.454 16.9759C219.952 16.2325 219.694 15.2926 219.68 14.1562H223.046C223.075 14.625 223.2 15.0156 223.423 15.3281C223.645 15.6406 223.951 15.8774 224.339 16.0384C224.732 16.1993 225.186 16.2798 225.703 16.2798C226.176 16.2798 226.579 16.2159 226.91 16.0881C227.246 15.9602 227.504 15.7827 227.684 15.5554C227.864 15.3281 227.956 15.0677 227.961 14.7741C227.956 14.4995 227.871 14.2652 227.705 14.071C227.54 13.8722 227.284 13.7017 226.938 13.5597C226.597 13.4129 226.162 13.2779 225.632 13.1548L224.112 12.7997C222.852 12.5109 221.86 12.0445 221.136 11.4006C220.411 10.7519 220.052 9.87595 220.056 8.77273C220.052 7.87311 220.293 7.08475 220.781 6.40767C221.268 5.73059 221.943 5.20265 222.805 4.82386C223.667 4.44508 224.649 4.25568 225.752 4.25568C226.879 4.25568 227.857 4.44744 228.686 4.83097C229.519 5.20975 230.165 5.74242 230.624 6.42898C231.084 7.11553 231.318 7.91098 231.328 8.81534H227.961ZM243.164 8.81534C243.117 8.29451 242.906 7.88968 242.532 7.60085C242.163 7.30729 241.635 7.16051 240.948 7.16051C240.494 7.16051 240.115 7.2197 239.812 7.33807C239.509 7.45644 239.282 7.61979 239.13 7.82812C238.979 8.03172 238.901 8.2661 238.896 8.53125C238.886 8.74905 238.929 8.94081 239.024 9.10653C239.123 9.27225 239.265 9.41903 239.45 9.54688C239.639 9.66998 239.866 9.77888 240.132 9.87358C240.397 9.96828 240.695 10.0511 241.026 10.1222L242.276 10.4062C242.996 10.5625 243.631 10.7708 244.18 11.0312C244.734 11.2917 245.198 11.6018 245.572 11.9616C245.951 12.3215 246.237 12.7358 246.431 13.2045C246.625 13.6733 246.725 14.1989 246.73 14.7812C246.725 15.6998 246.493 16.4882 246.034 17.1463C245.574 17.8045 244.914 18.3087 244.052 18.6591C243.195 19.0095 242.16 19.1847 240.948 19.1847C239.731 19.1847 238.671 19.0024 237.767 18.6378C236.862 18.2732 236.159 17.7192 235.657 16.9759C235.155 16.2325 234.897 15.2926 234.883 14.1562H238.249C238.278 14.625 238.403 15.0156 238.626 15.3281C238.848 15.6406 239.154 15.8774 239.542 16.0384C239.935 16.1993 240.39 16.2798 240.906 16.2798C241.379 16.2798 241.782 16.2159 242.113 16.0881C242.449 15.9602 242.707 15.7827 242.887 15.5554C243.067 15.3281 243.16 15.0677 243.164 14.7741C243.16 14.4995 243.074 14.2652 242.909 14.071C242.743 13.8722 242.487 13.7017 242.142 13.5597C241.801 13.4129 241.365 13.2779 240.835 13.1548L239.315 12.7997C238.055 12.5109 237.063 12.0445 236.339 11.4006C235.615 10.7519 235.255 9.87595 235.259 8.77273C235.255 7.87311 235.496 7.08475 235.984 6.40767C236.472 5.73059 237.146 5.20265 238.008 4.82386C238.87 4.44508 239.852 4.25568 240.955 4.25568C242.082 4.25568 243.06 4.44744 243.889 4.83097C244.722 5.20975 245.368 5.74242 245.828 6.42898C246.287 7.11553 246.521 7.91098 246.531 8.81534H243.164ZM259.305 4.45455H262.813V13.8366C262.813 14.9209 262.555 15.8655 262.039 16.6705C261.523 17.4706 260.803 18.0909 259.88 18.5312C258.957 18.9669 257.884 19.1847 256.663 19.1847C255.427 19.1847 254.347 18.9669 253.424 18.5312C252.501 18.0909 251.784 17.4706 251.272 16.6705C250.761 15.8655 250.505 14.9209 250.505 13.8366V4.45455H254.021V13.5312C254.021 14.0331 254.13 14.4806 254.347 14.8736C254.57 15.2666 254.88 15.5743 255.278 15.7969C255.676 16.0194 256.137 16.1307 256.663 16.1307C257.188 16.1307 257.648 16.0194 258.041 15.7969C258.438 15.5743 258.749 15.2666 258.971 14.8736C259.194 14.4806 259.305 14.0331 259.305 13.5312V4.45455ZM279.396 4.45455V19H276.413L270.625 10.6051H270.532V19H267.017V4.45455H270.042L275.767 12.8352H275.888V4.45455H279.396ZM286.753 19H282.975L287.882 4.45455H292.563L297.47 19H293.692L290.276 8.11932H290.162L286.753 19ZM286.249 13.2756H294.146V15.946H286.249V13.2756ZM191.765 36.1442C190.96 36.1442 190.269 35.9785 189.692 35.647C189.119 35.3156 188.678 34.8549 188.37 34.2649C188.061 33.6716 187.907 32.9856 187.907 32.2067C187.907 31.4245 188.061 30.7384 188.37 30.1484C188.681 29.5552 189.124 29.0928 189.697 28.7614C190.274 28.4299 190.961 28.2642 191.76 28.2642C192.466 28.2642 193.081 28.3918 193.605 28.647C194.132 28.9022 194.543 29.2635 194.838 29.7308C195.136 30.1948 195.293 30.7401 195.31 31.3665H193.038C192.991 30.9754 192.859 30.6688 192.64 30.4467C192.425 30.2247 192.143 30.1136 191.795 30.1136C191.513 30.1136 191.266 30.1932 191.054 30.3523C190.842 30.508 190.676 30.7401 190.557 31.0483C190.441 31.3532 190.383 31.7311 190.383 32.1818C190.383 32.6326 190.441 33.0137 190.557 33.3253C190.676 33.6335 190.842 33.8672 191.054 34.0263C191.266 34.1821 191.513 34.2599 191.795 34.2599C192.02 34.2599 192.219 34.2119 192.392 34.1158C192.567 34.0196 192.711 33.8788 192.824 33.6932C192.937 33.5043 193.008 33.2756 193.038 33.0071H195.31C195.287 33.6368 195.129 34.187 194.838 34.6577C194.549 35.1283 194.143 35.4946 193.62 35.7564C193.099 36.0149 192.481 36.1442 191.765 36.1442ZM201.519 36.1442C200.717 36.1442 200.027 35.9801 199.45 35.652C198.877 35.3205 198.435 34.8598 198.123 34.2699C197.815 33.6766 197.661 32.9889 197.661 32.2067C197.661 31.4212 197.815 30.7334 198.123 30.1435C198.435 29.5502 198.877 29.0895 199.45 28.7614C200.027 28.4299 200.717 28.2642 201.519 28.2642C202.321 28.2642 203.008 28.4299 203.582 28.7614C204.159 29.0895 204.601 29.5502 204.909 30.1435C205.221 30.7334 205.377 31.4212 205.377 32.2067C205.377 32.9889 205.221 33.6766 204.909 34.2699C204.601 34.8598 204.159 35.3205 203.582 35.652C203.008 35.9801 202.321 36.1442 201.519 36.1442ZM201.534 34.3097C201.825 34.3097 202.072 34.2202 202.274 34.0412C202.476 33.8622 202.631 33.6136 202.737 33.2955C202.846 32.9773 202.901 32.6094 202.901 32.1918C202.901 31.7675 202.846 31.3963 202.737 31.0781C202.631 30.7599 202.476 30.5114 202.274 30.3324C202.072 30.1534 201.825 30.0639 201.534 30.0639C201.232 30.0639 200.977 30.1534 200.768 30.3324C200.562 30.5114 200.405 30.7599 200.296 31.0781C200.19 31.3963 200.137 31.7675 200.137 32.1918C200.137 32.6094 200.19 32.9773 200.296 33.2955C200.405 33.6136 200.562 33.8622 200.768 34.0412C200.977 34.2202 201.232 34.3097 201.534 34.3097ZM208.022 36V28.3636H210.334V29.7656H210.418C210.577 29.3016 210.846 28.9354 211.224 28.6669C211.602 28.3984 212.052 28.2642 212.576 28.2642C213.106 28.2642 213.56 28.4001 213.938 28.6719C214.316 28.9437 214.556 29.3082 214.659 29.7656H214.739C214.881 29.3116 215.16 28.9486 215.574 28.6768C215.988 28.4018 216.477 28.2642 217.04 28.2642C217.763 28.2642 218.35 28.4962 218.8 28.9602C219.251 29.4209 219.477 30.054 219.477 30.8594V36H217.045V31.4162C217.045 31.035 216.948 30.745 216.752 30.5462C216.557 30.344 216.303 30.2429 215.991 30.2429C215.657 30.2429 215.393 30.3523 215.201 30.571C215.012 30.7865 214.918 31.0765 214.918 31.4411V36H212.581V31.3913C212.581 31.0367 212.485 30.7566 212.293 30.5511C212.1 30.3456 211.847 30.2429 211.532 30.2429C211.32 30.2429 211.133 30.2943 210.97 30.397C210.808 30.4964 210.68 30.639 210.587 30.8246C210.498 31.0102 210.453 31.2289 210.453 31.4808V36H208.022ZM222.383 36V28.3636H224.695V29.7656H224.779C224.938 29.3016 225.207 28.9354 225.585 28.6669C225.962 28.3984 226.413 28.2642 226.937 28.2642C227.467 28.2642 227.921 28.4001 228.299 28.6719C228.677 28.9437 228.917 29.3082 229.02 29.7656H229.1C229.242 29.3116 229.52 28.9486 229.935 28.6768C230.349 28.4018 230.838 28.2642 231.401 28.2642C232.124 28.2642 232.711 28.4962 233.161 28.9602C233.612 29.4209 233.837 30.054 233.837 30.8594V36H231.406V31.4162C231.406 31.035 231.309 30.745 231.113 30.5462C230.917 30.344 230.664 30.2429 230.352 30.2429C230.018 30.2429 229.754 30.3523 229.562 30.571C229.373 30.7865 229.278 31.0765 229.278 31.4411V36H226.942V31.3913C226.942 31.0367 226.846 30.7566 226.653 30.5511C226.461 30.3456 226.208 30.2429 225.893 30.2429C225.681 30.2429 225.493 30.2943 225.331 30.397C225.169 30.4964 225.041 30.639 224.948 30.8246C224.859 31.0102 224.814 31.2289 224.814 31.4808V36H222.383ZM236.744 36V28.3636H239.175V36H236.744ZM237.962 27.4737C237.62 27.4737 237.327 27.361 237.082 27.1357C236.837 26.907 236.714 26.6319 236.714 26.3104C236.714 25.9922 236.837 25.7204 237.082 25.495C237.327 25.2663 237.62 25.152 237.962 25.152C238.307 25.152 238.6 25.2663 238.842 25.495C239.087 25.7204 239.21 25.9922 239.21 26.3104C239.21 26.6319 239.087 26.907 238.842 27.1357C238.6 27.361 238.307 27.4737 237.962 27.4737ZM248.789 30.6953L246.557 30.755C246.534 30.5959 246.471 30.455 246.368 30.3324C246.265 30.2064 246.131 30.1087 245.965 30.0391C245.803 29.9661 245.614 29.9297 245.399 29.9297C245.117 29.9297 244.877 29.986 244.678 30.0987C244.482 30.2114 244.386 30.3639 244.389 30.5561C244.386 30.7053 244.446 30.8345 244.568 30.9439C244.694 31.0533 244.918 31.1411 245.24 31.2074L246.711 31.4858C247.473 31.6316 248.04 31.8736 248.411 32.2116C248.786 32.5497 248.975 32.9972 248.978 33.554C248.975 34.0777 248.819 34.5334 248.511 34.9212C248.206 35.3089 247.788 35.6106 247.258 35.826C246.728 36.0381 246.121 36.1442 245.438 36.1442C244.348 36.1442 243.488 35.9205 242.858 35.473C242.232 35.0223 241.874 34.419 241.784 33.6634L244.186 33.6037C244.239 33.8821 244.376 34.0942 244.598 34.2401C244.82 34.3859 245.104 34.4588 245.448 34.4588C245.76 34.4588 246.013 34.4008 246.209 34.2848C246.405 34.1688 246.504 34.0147 246.507 33.8224C246.504 33.6501 246.428 33.5125 246.279 33.4098C246.129 33.3037 245.896 33.2209 245.578 33.1612L244.245 32.9077C243.48 32.7685 242.91 32.5116 242.535 32.1371C242.16 31.7592 241.975 31.2786 241.978 30.6953C241.975 30.1849 242.111 29.7491 242.386 29.3878C242.661 29.0232 243.052 28.7448 243.559 28.5526C244.066 28.3603 244.664 28.2642 245.354 28.2642C246.388 28.2642 247.203 28.4813 247.8 28.9155C248.397 29.3464 248.726 29.9396 248.789 30.6953ZM258.242 30.6953L256.01 30.755C255.987 30.5959 255.924 30.455 255.821 30.3324C255.718 30.2064 255.584 30.1087 255.418 30.0391C255.256 29.9661 255.067 29.9297 254.851 29.9297C254.57 29.9297 254.329 29.986 254.13 30.0987C253.935 30.2114 253.839 30.3639 253.842 30.5561C253.839 30.7053 253.898 30.8345 254.021 30.9439C254.147 31.0533 254.371 31.1411 254.692 31.2074L256.164 31.4858C256.926 31.6316 257.493 31.8736 257.864 32.2116C258.239 32.5497 258.428 32.9972 258.431 33.554C258.428 34.0777 258.272 34.5334 257.964 34.9212C257.659 35.3089 257.241 35.6106 256.711 35.826C256.18 36.0381 255.574 36.1442 254.891 36.1442C253.801 36.1442 252.941 35.9205 252.311 35.473C251.684 35.0223 251.327 34.419 251.237 33.6634L253.638 33.6037C253.691 33.8821 253.829 34.0942 254.051 34.2401C254.273 34.3859 254.556 34.4588 254.901 34.4588C255.213 34.4588 255.466 34.4008 255.662 34.2848C255.857 34.1688 255.957 34.0147 255.96 33.8224C255.957 33.6501 255.88 33.5125 255.731 33.4098C255.582 33.3037 255.349 33.2209 255.03 33.1612L253.698 32.9077C252.932 32.7685 252.362 32.5116 251.988 32.1371C251.613 31.7592 251.428 31.2786 251.431 30.6953C251.428 30.1849 251.563 29.7491 251.839 29.3878C252.114 29.0232 252.505 28.7448 253.012 28.5526C253.519 28.3603 254.117 28.2642 254.807 28.2642C255.841 28.2642 256.656 28.4813 257.253 28.9155C257.849 29.3464 258.179 29.9396 258.242 30.6953ZM261.028 36V28.3636H263.459V36H261.028ZM262.246 27.4737C261.904 27.4737 261.611 27.361 261.366 27.1357C261.121 26.907 260.998 26.6319 260.998 26.3104C260.998 25.9922 261.121 25.7204 261.366 25.495C261.611 25.2663 261.904 25.152 262.246 25.152C262.591 25.152 262.884 25.2663 263.126 25.495C263.371 25.7204 263.494 25.9922 263.494 26.3104C263.494 26.6319 263.371 26.907 263.126 27.1357C262.884 27.361 262.591 27.4737 262.246 27.4737ZM269.971 36.1442C269.169 36.1442 268.479 35.9801 267.903 35.652C267.329 35.3205 266.887 34.8598 266.575 34.2699C266.267 33.6766 266.113 32.9889 266.113 32.2067C266.113 31.4212 266.267 30.7334 266.575 30.1435C266.887 29.5502 267.329 29.0895 267.903 28.7614C268.479 28.4299 269.169 28.2642 269.971 28.2642C270.773 28.2642 271.461 28.4299 272.034 28.7614C272.611 29.0895 273.053 29.5502 273.362 30.1435C273.673 30.7334 273.829 31.4212 273.829 32.2067C273.829 32.9889 273.673 33.6766 273.362 34.2699C273.053 34.8598 272.611 35.3205 272.034 35.652C271.461 35.9801 270.773 36.1442 269.971 36.1442ZM269.986 34.3097C270.278 34.3097 270.524 34.2202 270.727 34.0412C270.929 33.8622 271.083 33.6136 271.189 33.2955C271.298 32.9773 271.353 32.6094 271.353 32.1918C271.353 31.7675 271.298 31.3963 271.189 31.0781C271.083 30.7599 270.929 30.5114 270.727 30.3324C270.524 30.1534 270.278 30.0639 269.986 30.0639C269.684 30.0639 269.429 30.1534 269.22 30.3324C269.015 30.5114 268.857 30.7599 268.748 31.0781C268.642 31.3963 268.589 31.7675 268.589 32.1918C268.589 32.6094 268.642 32.9773 268.748 33.2955C268.857 33.6136 269.015 33.8622 269.22 34.0412C269.429 34.2202 269.684 34.3097 269.986 34.3097ZM278.905 31.6449V36H276.474V28.3636H278.786V29.7656H278.871C279.04 29.2983 279.328 28.9321 279.736 28.6669C280.143 28.3984 280.629 28.2642 281.192 28.2642C281.729 28.2642 282.195 28.3852 282.589 28.6271C282.987 28.8658 283.295 29.2005 283.514 29.6314C283.736 30.0589 283.846 30.5594 283.842 31.1328V36H281.411V31.6101C281.414 31.1858 281.307 30.8544 281.088 30.6158C280.873 30.3771 280.573 30.2578 280.188 30.2578C279.933 30.2578 279.707 30.3142 279.512 30.4268C279.32 30.5362 279.171 30.6937 279.065 30.8991C278.962 31.1046 278.909 31.3532 278.905 31.6449ZM290.317 36.1442C289.518 36.1442 288.829 35.9867 288.249 35.6719C287.672 35.3537 287.228 34.9013 286.916 34.3146C286.608 33.7247 286.454 33.0237 286.454 32.2116C286.454 31.4228 286.61 30.7334 286.921 30.1435C287.233 29.5502 287.672 29.0895 288.239 28.7614C288.806 28.4299 289.473 28.2642 290.242 28.2642C290.786 28.2642 291.283 28.3487 291.734 28.5178C292.185 28.6868 292.574 28.937 292.902 29.2685C293.23 29.5999 293.486 30.0092 293.668 30.4964C293.85 30.9804 293.941 31.5355 293.941 32.1619V32.7685H287.304V31.3565H291.679C291.676 31.098 291.615 30.8677 291.495 30.6655C291.376 30.4633 291.212 30.3059 291.003 30.1932C290.798 30.0772 290.561 30.0192 290.292 30.0192C290.02 30.0192 289.777 30.0805 289.561 30.2031C289.346 30.3224 289.175 30.4865 289.049 30.6953C288.923 30.9008 288.857 31.1345 288.85 31.3963V32.8331C288.85 33.1446 288.912 33.4181 289.034 33.6534C289.157 33.8854 289.331 34.0661 289.556 34.1953C289.782 34.3246 290.05 34.3892 290.362 34.3892C290.577 34.3892 290.773 34.3594 290.948 34.2997C291.124 34.2401 291.275 34.1522 291.401 34.0362C291.527 33.9202 291.621 33.7777 291.684 33.6087L293.916 33.6733C293.824 34.1738 293.62 34.6096 293.305 34.9808C292.993 35.3487 292.584 35.6354 292.077 35.8409C291.57 36.0431 290.983 36.1442 290.317 36.1442ZM299.442 25.8182L299.213 32.8828H297.17L296.941 25.8182H299.442ZM298.189 36.1442C297.834 36.1442 297.529 36.0182 297.274 35.7663C297.022 35.5144 296.896 35.2095 296.896 34.8516C296.896 34.5002 297.022 34.2003 297.274 33.9517C297.529 33.6998 297.834 33.5739 298.189 33.5739C298.53 33.5739 298.83 33.6998 299.089 33.9517C299.35 34.2003 299.481 34.5002 299.481 34.8516C299.481 35.0902 299.42 35.3073 299.297 35.5028C299.178 35.6984 299.021 35.8542 298.825 35.9702C298.633 36.0862 298.421 36.1442 298.189 36.1442Z" fill="white"/>
<path d="M43.1293 52.029V51.0702L46.7301 47.1284C47.1527 46.6668 47.5007 46.2655 47.7741 45.9246C48.0476 45.5801 48.25 45.257 48.3814 44.9551C48.5163 44.6497 48.5838 44.3301 48.5838 43.9963C48.5838 43.6128 48.4915 43.2808 48.3068 43.0002C48.1257 42.7197 47.8771 42.5031 47.5611 42.3504C47.245 42.1977 46.8899 42.1213 46.4957 42.1213C46.0767 42.1213 45.7109 42.2083 45.3984 42.3823C45.0895 42.5528 44.8498 42.7925 44.6793 43.1014C44.5124 43.4104 44.429 43.7726 44.429 44.1881H43.1719C43.1719 43.5489 43.3192 42.9878 43.614 42.5048C43.9087 42.0219 44.31 41.6455 44.8178 41.3756C45.3292 41.1057 45.9027 40.9708 46.5384 40.9708C47.1776 40.9708 47.744 41.1057 48.2376 41.3756C48.7312 41.6455 49.1183 42.0095 49.3988 42.4676C49.6793 42.9257 49.8196 43.4352 49.8196 43.9963C49.8196 44.3976 49.7468 44.79 49.6012 45.1735C49.4592 45.5535 49.2106 45.9779 48.8555 46.4466C48.5039 46.9118 48.0156 47.48 47.3906 48.1512L44.9403 50.7719V50.8571H50.0114V52.029H43.1293ZM53.2212 49.7918V48.7051L58.0153 41.1199H58.8036V42.8031H58.271L54.6488 48.5347V48.6199H61.1048V49.7918H53.2212ZM58.3562 52.029V49.4615V48.9555V41.1199H59.6133V52.029H58.3562ZM68.4788 40.6085L64.9632 53.6696H63.8126L67.3282 40.6085H68.4788ZM71.7885 52.029L76.6678 42.377V42.2918H71.0428V41.1199H78.0314V42.3557L73.1735 52.029H71.7885Z" fill="white"/>
<path d="M203.166 66.8696H199.8V55.9605H203.315C204.373 55.9605 205.279 56.1789 206.032 56.6157C206.785 57.0489 207.362 57.6721 207.763 58.4853C208.164 59.295 208.365 60.2645 208.365 61.3937C208.365 62.5301 208.162 63.5084 207.758 64.3287C207.353 65.1455 206.763 65.774 205.989 66.2144C205.215 66.6512 204.274 66.8696 203.166 66.8696ZM201.121 65.6977H203.081C203.983 65.6977 204.73 65.5237 205.323 65.1757C205.916 64.8277 206.358 64.3323 206.65 63.6895C206.941 63.0468 207.086 62.2815 207.086 61.3937C207.086 60.513 206.943 59.7549 206.655 59.1192C206.367 58.48 205.938 57.99 205.366 57.649C204.794 57.3046 204.082 57.1324 203.23 57.1324H201.121V65.6977ZM212.081 66.8696V55.9605H218.665V57.1324H213.402V60.8184H218.324V61.9903H213.402V65.6977H218.75V66.8696H212.081ZM222.546 66.8696V55.9605H226.232C227.088 55.9605 227.787 56.115 228.33 56.4239C228.877 56.7293 229.282 57.143 229.545 57.665C229.808 58.187 229.939 58.7694 229.939 59.4122C229.939 60.0549 229.808 60.6391 229.545 61.1647C229.286 61.6902 228.884 62.1093 228.341 62.4218C227.798 62.7307 227.102 62.8852 226.253 62.8852H223.611V61.7133H226.21C226.796 61.7133 227.267 61.6121 227.622 61.4097C227.977 61.2073 228.235 60.9338 228.394 60.5894C228.558 60.2414 228.639 59.849 228.639 59.4122C228.639 58.9754 228.558 58.5848 228.394 58.2403C228.235 57.8958 227.975 57.626 227.617 57.4306C227.258 57.2318 226.782 57.1324 226.189 57.1324H223.867V66.8696H222.546ZM242.772 61.415C242.772 62.5656 242.564 63.5599 242.148 64.398C241.733 65.236 241.163 65.8824 240.439 66.3369C239.714 66.7914 238.887 67.0187 237.956 67.0187C237.026 67.0187 236.199 66.7914 235.474 66.3369C234.75 65.8824 234.18 65.236 233.764 64.398C233.349 63.5599 233.141 62.5656 233.141 61.415C233.141 60.2645 233.349 59.2701 233.764 58.4321C234.18 57.594 234.75 56.9477 235.474 56.4931C236.199 56.0386 237.026 55.8113 237.956 55.8113C238.887 55.8113 239.714 56.0386 240.439 56.4931C241.163 56.9477 241.733 57.594 242.148 58.4321C242.564 59.2701 242.772 60.2645 242.772 61.415ZM241.493 61.415C241.493 60.4704 241.335 59.6732 241.019 59.0233C240.707 58.3735 240.282 57.8816 239.746 57.5478C239.213 57.214 238.617 57.0471 237.956 57.0471C237.296 57.0471 236.697 57.214 236.161 57.5478C235.629 57.8816 235.204 58.3735 234.888 59.0233C234.576 59.6732 234.419 60.4704 234.419 61.415C234.419 62.3596 234.576 63.1569 234.888 63.8067C235.204 64.4566 235.629 64.9484 236.161 65.2822C236.697 65.616 237.296 65.7829 237.956 65.7829C238.617 65.7829 239.213 65.616 239.746 65.2822C240.282 64.9484 240.707 64.4566 241.019 63.8067C241.335 63.1569 241.493 62.3596 241.493 61.415ZM252.459 58.6877C252.395 58.148 252.136 57.7289 251.681 57.4306C251.227 57.1324 250.669 56.9832 250.009 56.9832C249.526 56.9832 249.103 57.0613 248.741 57.2176C248.382 57.3738 248.102 57.5887 247.899 57.8621C247.7 58.1355 247.601 58.4463 247.601 58.7943C247.601 59.0855 247.67 59.3358 247.809 59.5453C247.951 59.7513 248.132 59.9235 248.352 60.062C248.572 60.197 248.803 60.3088 249.044 60.3976C249.286 60.4828 249.508 60.5521 249.71 60.6054L250.818 60.9037C251.102 60.9782 251.418 61.0812 251.766 61.2126C252.118 61.344 252.453 61.5233 252.773 61.7506C253.096 61.9743 253.363 62.262 253.572 62.6135C253.782 62.9651 253.886 63.3966 253.886 63.9079C253.886 64.4974 253.732 65.0301 253.423 65.5059C253.118 65.9818 252.67 66.36 252.081 66.6405C251.495 66.9211 250.783 67.0613 249.945 67.0613C249.163 67.0613 248.487 66.9353 247.915 66.6831C247.347 66.431 246.9 66.0794 246.573 65.6284C246.25 65.1775 246.067 64.6537 246.024 64.0571H247.388C247.423 64.469 247.562 64.8099 247.803 65.0798C248.048 65.3461 248.357 65.545 248.73 65.6764C249.107 65.8042 249.511 65.8681 249.945 65.8681C250.449 65.8681 250.902 65.7865 251.303 65.6231C251.704 65.4562 252.022 65.2254 252.256 64.9306C252.491 64.6324 252.608 64.2843 252.608 63.8866C252.608 63.5244 252.507 63.2297 252.304 63.0024C252.102 62.7751 251.836 62.5904 251.505 62.4484C251.175 62.3064 250.818 62.1821 250.435 62.0755L249.092 61.692C248.24 61.447 247.565 61.0972 247.068 60.6427C246.571 60.1881 246.322 59.5933 246.322 58.8582C246.322 58.2474 246.488 57.7147 246.818 57.2602C247.152 56.8021 247.599 56.447 248.16 56.1949C248.725 55.9392 249.355 55.8113 250.051 55.8113C250.754 55.8113 251.379 55.9374 251.926 56.1895C252.473 56.4381 252.906 56.779 253.226 57.2123C253.549 57.6455 253.719 58.1373 253.737 58.6877H252.459ZM258.879 55.9605V66.8696H257.558V55.9605H258.879ZM262.431 57.1324V55.9605H270.613V57.1324H267.183V66.8696H265.862V57.1324H262.431ZM282.903 61.415C282.903 62.5656 282.695 63.5599 282.279 64.398C281.864 65.236 281.294 65.8824 280.569 66.3369C279.845 66.7914 279.018 67.0187 278.087 67.0187C277.157 67.0187 276.329 66.7914 275.605 66.3369C274.881 65.8824 274.311 65.236 273.895 64.398C273.48 63.5599 273.272 62.5656 273.272 61.415C273.272 60.2645 273.48 59.2701 273.895 58.4321C274.311 57.594 274.881 56.9477 275.605 56.4931C276.329 56.0386 277.157 55.8113 278.087 55.8113C279.018 55.8113 279.845 56.0386 280.569 56.4931C281.294 56.9477 281.864 57.594 282.279 58.4321C282.695 59.2701 282.903 60.2645 282.903 61.415ZM281.624 61.415C281.624 60.4704 281.466 59.6732 281.15 59.0233C280.838 58.3735 280.413 57.8816 279.877 57.5478C279.344 57.214 278.748 57.0471 278.087 57.0471C277.427 57.0471 276.828 57.214 276.292 57.5478C275.759 57.8816 275.335 58.3735 275.019 59.0233C274.706 59.6732 274.55 60.4704 274.55 61.415C274.55 62.3596 274.706 63.1569 275.019 63.8067C275.335 64.4566 275.759 64.9484 276.292 65.2822C276.828 65.616 277.427 65.7829 278.087 65.7829C278.748 65.7829 279.344 65.616 279.877 65.2822C280.413 64.9484 280.838 64.4566 281.15 63.8067C281.466 63.1569 281.624 62.3596 281.624 61.415ZM196.728 84.8696V73.9605H203.312V75.1324H198.049V78.8184H202.971V79.9903H198.049V83.6977H203.397V84.8696H196.728ZM212.911 84.8696V73.9605H216.597C217.453 73.9605 218.153 74.115 218.696 74.4239C219.243 74.7293 219.648 75.143 219.911 75.665C220.173 76.187 220.305 76.7694 220.305 77.4122C220.305 78.0549 220.173 78.6391 219.911 79.1647C219.651 79.6902 219.25 80.1093 218.707 80.4218C218.163 80.7307 217.467 80.8852 216.619 80.8852H213.977V79.7133H216.576C217.162 79.7133 217.633 79.6121 217.988 79.4097C218.343 79.2073 218.6 78.9338 218.76 78.5894C218.923 78.2414 219.005 77.849 219.005 77.4122C219.005 76.9754 218.923 76.5848 218.76 76.2403C218.6 75.8958 218.341 75.626 217.982 75.4306C217.624 75.2318 217.148 75.1324 216.555 75.1324H214.232V84.8696H212.911ZM223.933 84.8696V73.9605H227.619C228.471 73.9605 229.171 74.1061 229.718 74.3973C230.265 74.6849 230.669 75.0809 230.932 75.5851C231.195 76.0894 231.326 76.6629 231.326 77.3056C231.326 77.9484 231.195 78.5184 230.932 79.0155C230.669 79.5127 230.266 79.9033 229.723 80.1874C229.18 80.4679 228.485 80.6082 227.64 80.6082H224.657V79.415H227.598C228.18 79.415 228.649 79.3298 229.004 79.1593C229.363 78.9889 229.622 78.7474 229.782 78.4349C229.945 78.1189 230.027 77.7424 230.027 77.3056C230.027 76.8689 229.945 76.4871 229.782 76.1604C229.618 75.8337 229.357 75.5816 228.999 75.404C228.64 75.2229 228.166 75.1324 227.576 75.1324H225.254V84.8696H223.933ZM229.068 79.969L231.752 84.8696H230.218L227.576 79.969H229.068ZM235.028 84.8696V73.9605H241.611V75.1324H236.349V78.8184H241.27V79.9903H236.349V83.6977H241.697V84.8696H235.028ZM245.492 84.8696V73.9605H246.813V83.6977H251.884V84.8696H245.492ZM256.751 73.9605V84.8696H255.43V73.9605H256.751ZM260.9 84.8696V73.9605H267.483V75.1324H262.221V78.8184H267.143V79.9903H262.221V83.6977H267.569V84.8696H260.9ZM271.812 73.9605L275.051 83.1437H275.178L278.417 73.9605H279.802L275.796 84.8696H274.433L270.427 73.9605H271.812ZM291.693 79.415C291.693 80.5656 291.485 81.5599 291.07 82.398C290.654 83.236 290.084 83.8824 289.36 84.3369C288.636 84.7914 287.808 85.0187 286.878 85.0187C285.947 85.0187 285.12 84.7914 284.395 84.3369C283.671 83.8824 283.101 83.236 282.686 82.398C282.27 81.5599 282.062 80.5656 282.062 79.415C282.062 78.2645 282.27 77.2701 282.686 76.4321C283.101 75.594 283.671 74.9477 284.395 74.4931C285.12 74.0386 285.947 73.8113 286.878 73.8113C287.808 73.8113 288.636 74.0386 289.36 74.4931C290.084 74.9477 290.654 75.594 291.07 76.4321C291.485 77.2701 291.693 78.2645 291.693 79.415ZM290.415 79.415C290.415 78.4704 290.257 77.6732 289.941 77.0233C289.628 76.3735 289.204 75.8816 288.667 75.5478C288.135 75.214 287.538 75.0471 286.878 75.0471C286.217 75.0471 285.619 75.214 285.083 75.5478C284.55 75.8816 284.126 76.3735 283.81 77.0233C283.497 77.6732 283.341 78.4704 283.341 79.415C283.341 80.3596 283.497 81.1569 283.81 81.8067C284.126 82.4566 284.55 82.9484 285.083 83.2822C285.619 83.616 286.217 83.7829 286.878 83.7829C287.538 83.7829 288.135 83.616 288.667 83.2822C289.204 82.9484 289.628 82.4566 289.941 81.8067C290.257 81.1569 290.415 80.3596 290.415 79.415Z" fill="white"/>
<path d="M425.264 45.5C425.147 45.1413 424.992 44.82 424.8 44.5359C424.612 44.2482 424.387 44.0032 424.124 43.8008C423.865 43.5984 423.57 43.4439 423.24 43.3374C422.909 43.2308 422.547 43.1776 422.153 43.1776C421.507 43.1776 420.919 43.3445 420.39 43.6783C419.861 44.0121 419.44 44.5039 419.127 45.1538C418.815 45.8036 418.659 46.6009 418.659 47.5455C418.659 48.4901 418.817 49.2873 419.133 49.9371C419.449 50.587 419.877 51.0788 420.416 51.4126C420.956 51.7464 421.563 51.9134 422.238 51.9134C422.863 51.9134 423.414 51.7802 423.889 51.5138C424.369 51.244 424.742 50.864 425.008 50.3739C425.278 49.8803 425.413 49.2997 425.413 48.6321L425.818 48.7173H422.536V47.5455H426.691V48.7173C426.691 49.6158 426.5 50.397 426.116 51.0611C425.736 51.7251 425.21 52.2401 424.539 52.6058C423.872 52.968 423.105 53.1491 422.238 53.1491C421.272 53.1491 420.424 52.9219 419.692 52.4673C418.964 52.0128 418.396 51.3665 417.987 50.5284C417.583 49.6903 417.38 48.696 417.38 47.5455C417.38 46.6825 417.496 45.9066 417.726 45.2177C417.961 44.5252 418.291 43.9357 418.717 43.4492C419.143 42.9627 419.648 42.5898 420.23 42.3306C420.812 42.0714 421.453 41.9418 422.153 41.9418C422.728 41.9418 423.264 42.0288 423.762 42.2028C424.262 42.3732 424.708 42.6165 425.099 42.9325C425.493 43.245 425.821 43.6197 426.084 44.0565C426.347 44.4897 426.528 44.9709 426.627 45.5H425.264ZM431.775 42.0909V53H430.454V42.0909H431.775ZM445.128 47.5455C445.128 48.696 444.92 49.6903 444.505 50.5284C444.089 51.3665 443.519 52.0128 442.795 52.4673C442.071 52.9219 441.243 53.1491 440.313 53.1491C439.382 53.1491 438.555 52.9219 437.831 52.4673C437.106 52.0128 436.536 51.3665 436.121 50.5284C435.705 49.6903 435.497 48.696 435.497 47.5455C435.497 46.3949 435.705 45.4006 436.121 44.5625C436.536 43.7244 437.106 43.0781 437.831 42.6236C438.555 42.169 439.382 41.9418 440.313 41.9418C441.243 41.9418 442.071 42.169 442.795 42.6236C443.519 43.0781 444.089 43.7244 444.505 44.5625C444.92 45.4006 445.128 46.3949 445.128 47.5455ZM443.85 47.5455C443.85 46.6009 443.692 45.8036 443.376 45.1538C443.063 44.5039 442.639 44.0121 442.103 43.6783C441.57 43.3445 440.973 43.1776 440.313 43.1776C439.652 43.1776 439.054 43.3445 438.518 43.6783C437.985 44.0121 437.561 44.5039 437.245 45.1538C436.932 45.8036 436.776 46.6009 436.776 47.5455C436.776 48.4901 436.932 49.2873 437.245 49.9371C437.561 50.587 437.985 51.0788 438.518 51.4126C439.054 51.7464 439.652 51.9134 440.313 51.9134C440.973 51.9134 441.57 51.7464 442.103 51.4126C442.639 51.0788 443.063 50.587 443.376 49.9371C443.692 49.2873 443.85 48.4901 443.85 47.5455ZM457.628 45.5H456.307C456.229 45.12 456.092 44.7862 455.897 44.4986C455.705 44.2109 455.47 43.9695 455.193 43.7741C454.92 43.5753 454.616 43.4261 454.283 43.3267C453.949 43.2273 453.601 43.1776 453.239 43.1776C452.578 43.1776 451.98 43.3445 451.443 43.6783C450.911 44.0121 450.486 44.5039 450.17 45.1538C449.858 45.8036 449.702 46.6009 449.702 47.5455C449.702 48.4901 449.858 49.2873 450.17 49.9371C450.486 50.587 450.911 51.0788 451.443 51.4126C451.98 51.7464 452.578 51.9134 453.239 51.9134C453.601 51.9134 453.949 51.8636 454.283 51.7642C454.616 51.6648 454.92 51.5174 455.193 51.3221C455.47 51.1232 455.705 50.88 455.897 50.5923C456.092 50.3011 456.229 49.9673 456.307 49.5909H457.628C457.528 50.1484 457.347 50.6474 457.084 51.0877C456.822 51.5281 456.495 51.9027 456.104 52.2116C455.714 52.517 455.275 52.7496 454.789 52.9094C454.306 53.0692 453.789 53.1491 453.239 53.1491C452.308 53.1491 451.481 52.9219 450.756 52.4673C450.032 52.0128 449.462 51.3665 449.046 50.5284C448.631 49.6903 448.423 48.696 448.423 47.5455C448.423 46.3949 448.631 45.4006 449.046 44.5625C449.462 43.7244 450.032 43.0781 450.756 42.6236C451.481 42.169 452.308 41.9418 453.239 41.9418C453.789 41.9418 454.306 42.0217 454.789 42.1815C455.275 42.3413 455.714 42.5756 456.104 42.8846C456.495 43.19 456.822 43.5629 457.084 44.0032C457.347 44.44 457.528 44.9389 457.628 45.5ZM461.262 53V42.0909H462.583V46.9489H468.4V42.0909H469.721V53H468.4V48.1207H462.583V53H461.262ZM475.187 42.0909V53H473.866V42.0909H475.187Z" fill="white"/>
<path d="M386.83 13.5824C386.83 15.1828 386.522 16.5393 385.906 17.652C385.291 18.7647 384.457 19.6098 383.406 20.1875C382.36 20.7651 381.186 21.054 379.884 21.054C378.577 21.054 377.4 20.7628 376.354 20.1804C375.307 19.598 374.476 18.7528 373.861 17.6449C373.25 16.5322 372.945 15.178 372.945 13.5824C372.945 11.982 373.25 10.6255 373.861 9.51277C374.476 8.40008 375.307 7.55491 376.354 6.97726C377.4 6.39961 378.577 6.11078 379.884 6.11078C381.186 6.11078 382.36 6.39961 383.406 6.97726C384.457 7.55491 385.291 8.40008 385.906 9.51277C386.522 10.6255 386.83 11.982 386.83 13.5824ZM383.236 13.5824C383.236 12.6354 383.101 11.8352 382.831 11.1818C382.566 10.5284 382.182 10.0336 381.68 9.69743C381.183 9.36126 380.584 9.19317 379.884 9.19317C379.188 9.19317 378.589 9.36126 378.087 9.69743C377.585 10.0336 377.199 10.5284 376.929 11.1818C376.664 11.8352 376.531 12.6354 376.531 13.5824C376.531 14.5293 376.664 15.3295 376.929 15.9829C377.199 16.6364 377.585 17.1311 378.087 17.4673C378.589 17.8035 379.188 17.9716 379.884 17.9716C380.584 17.9716 381.183 17.8035 381.68 17.4673C382.182 17.1311 382.566 16.6364 382.831 15.9829C383.101 15.3295 383.236 14.5293 383.236 13.5824ZM390.682 20.8551V6.30965H394.198V18H400.249V20.8551H390.682ZM401.616 9.16476V6.30965H413.91V9.16476H409.499V20.8551H406.033V9.16476H401.616ZM417.427 20.8551V6.30965H423.435C424.524 6.30965 425.464 6.50614 426.255 6.89914C427.05 7.28739 427.663 7.84611 428.094 8.57527C428.525 9.2997 428.741 10.1591 428.741 11.1534C428.741 12.1619 428.52 13.0189 428.08 13.7244C427.64 14.4252 427.015 14.9602 426.205 15.3295C425.395 15.6941 424.437 15.8764 423.329 15.8764H419.529V13.1065H422.675C423.206 13.1065 423.648 13.0379 424.003 12.9006C424.363 12.7585 424.635 12.5454 424.82 12.2614C425.005 11.9725 425.097 11.6032 425.097 11.1534C425.097 10.7036 425.005 10.3319 424.82 10.0383C424.635 9.74005 424.363 9.51751 424.003 9.37073C423.643 9.21921 423.201 9.14346 422.675 9.14346H420.942V20.8551H417.427ZM425.616 14.2074L429.238 20.8551H425.402L421.851 14.2074H425.616ZM432.469 20.8551V6.30965H442.611V9.16476H435.984V12.1477H442.092V15.0099H435.984V18H442.611V20.8551H432.469Z" fill="white"/>
<path d="M452.681 20.8551V18.3267L457.986 13.6818C458.384 13.322 458.723 12.9929 459.002 12.6946C459.281 12.3916 459.494 12.0885 459.641 11.7855C459.788 11.4777 459.861 11.1439 459.861 10.7841C459.861 10.3816 459.774 10.0383 459.599 9.75425C459.423 9.46542 459.182 9.24289 458.874 9.08664C458.566 8.93039 458.214 8.85226 457.816 8.85226C457.414 8.85226 457.061 8.93512 456.758 9.10084C456.455 9.26183 456.218 9.4962 456.048 9.80397C455.882 10.1117 455.799 10.4858 455.799 10.9261H452.468C452.468 9.93654 452.691 9.0819 453.136 8.36221C453.581 7.64251 454.206 7.08853 455.011 6.70027C455.82 6.30728 456.76 6.11078 457.83 6.11078C458.933 6.11078 459.892 6.29544 460.707 6.66476C461.521 7.03408 462.151 7.55018 462.596 8.21306C463.046 8.8712 463.271 9.63588 463.271 10.5071C463.271 11.0611 463.159 11.6103 462.937 12.1548C462.714 12.6993 462.314 13.3007 461.736 13.9588C461.164 14.6169 460.349 15.4053 459.293 16.3239L457.553 17.929V18.0213H463.448V20.8551H452.681ZM473.251 21.2102C471.982 21.2102 470.888 20.9096 469.969 20.3082C469.051 19.7022 468.343 18.8333 467.846 17.7017C467.349 16.5653 467.102 15.1993 467.107 13.6037C467.112 12.008 467.36 10.6539 467.853 9.54118C468.35 8.42376 469.055 7.57385 469.969 6.99147C470.888 6.40434 471.982 6.11078 473.251 6.11078C474.52 6.11078 475.613 6.40434 476.532 6.99147C477.455 7.57385 478.165 8.42376 478.662 9.54118C479.16 10.6586 479.406 12.0128 479.401 13.6037C479.401 15.2041 479.153 16.5724 478.655 17.7088C478.158 18.8452 477.45 19.714 476.532 20.3153C475.618 20.9119 474.524 21.2102 473.251 21.2102ZM473.251 18.3338C474.008 18.3338 474.621 17.9479 475.09 17.1761C475.559 16.3996 475.791 15.2088 475.786 13.6037C475.786 12.5525 475.68 11.6861 475.466 11.0043C475.253 10.3177 474.957 9.80633 474.579 9.47016C474.2 9.13398 473.757 8.9659 473.251 8.9659C472.498 8.9659 471.889 9.34705 471.425 10.1094C470.961 10.8669 470.727 12.0317 470.722 13.6037C470.717 14.669 470.819 15.5521 471.028 16.2528C471.241 16.9536 471.539 17.4768 471.922 17.8224C472.306 18.1633 472.749 18.3338 473.251 18.3338ZM489.23 21.2102C487.961 21.2102 486.868 20.9096 485.949 20.3082C485.03 19.7022 484.323 18.8333 483.825 17.7017C483.328 16.5653 483.082 15.1993 483.087 13.6037C483.092 12.008 483.34 10.6539 483.833 9.54118C484.33 8.42376 485.035 7.57385 485.949 6.99147C486.868 6.40434 487.961 6.11078 489.23 6.11078C490.499 6.11078 491.593 6.40434 492.512 6.99147C493.435 7.57385 494.145 8.42376 494.642 9.54118C495.139 10.6586 495.386 12.0128 495.381 13.6037C495.381 15.2041 495.132 16.5724 494.635 17.7088C494.138 18.8452 493.43 19.714 492.512 20.3153C491.598 20.9119 490.504 21.2102 489.23 21.2102ZM489.23 18.3338C489.988 18.3338 490.601 17.9479 491.07 17.1761C491.538 16.3996 491.771 15.2088 491.766 13.6037C491.766 12.5525 491.659 11.6861 491.446 11.0043C491.233 10.3177 490.937 9.80633 490.558 9.47016C490.18 9.13398 489.737 8.9659 489.23 8.9659C488.477 8.9659 487.869 9.34705 487.405 10.1094C486.941 10.8669 486.707 12.0317 486.702 13.6037C486.697 14.669 486.799 15.5521 487.007 16.2528C487.22 16.9536 487.519 17.4768 487.902 17.8224C488.286 18.1633 488.728 18.3338 489.23 18.3338ZM505.21 21.2102C503.941 21.2102 502.847 20.9096 501.929 20.3082C501.01 19.7022 500.302 18.8333 499.805 17.7017C499.308 16.5653 499.062 15.1993 499.066 13.6037C499.071 12.008 499.32 10.6539 499.812 9.54118C500.309 8.42376 501.015 7.57385 501.929 6.99147C502.847 6.40434 503.941 6.11078 505.21 6.11078C506.479 6.11078 507.573 6.40434 508.491 6.99147C509.414 7.57385 510.125 8.42376 510.622 9.54118C511.119 10.6586 511.365 12.0128 511.361 13.6037C511.361 15.2041 511.112 16.5724 510.615 17.7088C510.118 18.8452 509.41 19.714 508.491 20.3153C507.577 20.9119 506.484 21.2102 505.21 21.2102ZM505.21 18.3338C505.968 18.3338 506.581 17.9479 507.049 17.1761C507.518 16.3996 507.75 15.2088 507.745 13.6037C507.745 12.5525 507.639 11.6861 507.426 11.0043C507.213 10.3177 506.917 9.80633 506.538 9.47016C506.159 9.13398 505.717 8.9659 505.21 8.9659C504.457 8.9659 503.849 9.34705 503.385 10.1094C502.921 10.8669 502.686 12.0317 502.682 13.6037C502.677 14.669 502.779 15.5521 502.987 16.2528C503.2 16.9536 503.498 17.4768 503.882 17.8224C504.265 18.1633 504.708 18.3338 505.21 18.3338Z" fill="#F1C300"/>
</svg>
