<svg width="513" height="57" viewBox="0 0 513 57" fill="none" xmlns="http://www.w3.org/2000/svg">
<g clip-path="url(#clip0_21_12)">
<path d="M14.304 10.7244H10.7528C10.7055 10.3598 10.6084 10.0308 10.4616 9.73722C10.3149 9.44366 10.1207 9.19271 9.87926 8.98438C9.63778 8.77604 9.35133 8.61742 9.01989 8.50852C8.69318 8.39489 8.33097 8.33807 7.93324 8.33807C7.22775 8.33807 6.61932 8.51089 6.10795 8.85653C5.60133 9.20218 5.2107 9.7017 4.93608 10.3551C4.66619 11.0085 4.53125 11.7992 4.53125 12.7273C4.53125 13.6932 4.66856 14.5028 4.94318 15.1562C5.22254 15.8049 5.61316 16.295 6.11506 16.6264C6.62169 16.9531 7.22064 17.1165 7.91193 17.1165C8.30019 17.1165 8.65294 17.0668 8.97017 16.9673C9.29214 16.8679 9.57386 16.7235 9.81534 16.5341C10.0616 16.34 10.2628 16.1056 10.419 15.831C10.58 15.5516 10.6913 15.2367 10.7528 14.8864L14.304 14.9077C14.2424 15.5516 14.0554 16.1861 13.7429 16.8111C13.4351 17.4361 13.0114 18.0066 12.4716 18.5227C11.9318 19.0341 11.2737 19.4413 10.4972 19.7443C9.72538 20.0473 8.83996 20.1989 7.84091 20.1989C6.52462 20.1989 5.34564 19.91 4.30398 19.3324C3.26705 18.75 2.44792 17.9025 1.84659 16.7898C1.24527 15.6771 0.944602 14.3229 0.944602 12.7273C0.944602 11.1269 1.25 9.77036 1.8608 8.65767C2.47159 7.54498 3.29782 6.69981 4.33949 6.12216C5.38116 5.54451 6.5483 5.25568 7.84091 5.25568C8.72159 5.25568 9.53598 5.37879 10.2841 5.625C11.0322 5.86648 11.6903 6.22159 12.2585 6.69034C12.8267 7.15436 13.2884 7.72491 13.6435 8.40199C13.9986 9.07907 14.2188 9.85322 14.304 10.7244ZM18.3157 20V5.45455H21.8313V11.2926H27.5629V5.45455H31.0714V20H27.5629V14.1548H21.8313V20H18.3157ZM38.4229 20H34.6445L39.5522 5.45455H44.2326L49.1403 20H45.3619L41.9457 9.11932H41.832L38.4229 20ZM37.9187 14.2756H45.8164V16.946H37.9187V14.2756ZM50.4141 8.30966V5.45455H62.7081V8.30966H58.2976V20H54.8317V8.30966H50.4141Z" fill="white"/>
<path d="M72.7219 20V5.45455H76.2376V17.1449H82.2887V20H72.7219ZM89.6243 5.45455V20H86.1087V5.45455H89.6243ZM97.1339 5.45455L100.387 16.108H100.507L103.76 5.45455H107.695L102.787 20H98.1069L93.1992 5.45455H97.1339ZM111.261 20V5.45455H121.403V8.30966H114.777V11.2926H120.885V14.1548H114.777V17.1449H121.403V20H111.261Z" fill="#E4B800"/>
<path d="M202.545 4.45455V19H199.562L193.773 10.6051H193.681V19H190.165V4.45455H193.191L198.915 12.8352H199.036V4.45455H202.545ZM206.755 19V4.45455H216.897V7.30966H210.271V10.2926H216.379V13.1548H210.271V16.1449H216.897V19H206.755ZM228.961 8.81534C228.914 8.29451 228.703 7.88968 228.329 7.60085C227.96 7.30729 227.432 7.16051 226.745 7.16051C226.291 7.16051 225.912 7.2197 225.609 7.33807C225.306 7.45644 225.079 7.61979 224.927 7.82812C224.776 8.03172 224.697 8.2661 224.693 8.53125C224.683 8.74905 224.726 8.94081 224.82 9.10653C224.92 9.27225 225.062 9.41903 225.247 9.54688C225.436 9.66998 225.663 9.77888 225.928 9.87358C226.194 9.96828 226.492 10.0511 226.823 10.1222L228.073 10.4062C228.793 10.5625 229.427 10.7708 229.977 11.0312C230.531 11.2917 230.995 11.6018 231.369 11.9616C231.748 12.3215 232.034 12.7358 232.228 13.2045C232.422 13.6733 232.522 14.1989 232.526 14.7812C232.522 15.6998 232.29 16.4882 231.83 17.1463C231.371 17.8045 230.711 18.3087 229.849 18.6591C228.992 19.0095 227.957 19.1847 226.745 19.1847C225.528 19.1847 224.468 19.0024 223.563 18.6378C222.659 18.2732 221.956 17.7192 221.454 16.9759C220.952 16.2325 220.694 15.2926 220.68 14.1562H224.046C224.075 14.625 224.2 15.0156 224.423 15.3281C224.645 15.6406 224.951 15.8774 225.339 16.0384C225.732 16.1993 226.186 16.2798 226.703 16.2798C227.176 16.2798 227.579 16.2159 227.91 16.0881C228.246 15.9602 228.504 15.7827 228.684 15.5554C228.864 15.3281 228.956 15.0677 228.961 14.7741C228.956 14.4995 228.871 14.2652 228.705 14.071C228.54 13.8722 228.284 13.7017 227.938 13.5597C227.597 13.4129 227.162 13.2779 226.632 13.1548L225.112 12.7997C223.852 12.5109 222.86 12.0445 222.136 11.4006C221.411 10.7519 221.052 9.87595 221.056 8.77273C221.052 7.87311 221.293 7.08475 221.781 6.40767C222.268 5.73059 222.943 5.20265 223.805 4.82386C224.667 4.44508 225.649 4.25568 226.752 4.25568C227.879 4.25568 228.857 4.44744 229.686 4.83097C230.519 5.20975 231.165 5.74242 231.624 6.42898C232.084 7.11553 232.318 7.91098 232.328 8.81534H228.961ZM244.164 8.81534C244.117 8.29451 243.906 7.88968 243.532 7.60085C243.163 7.30729 242.635 7.16051 241.948 7.16051C241.494 7.16051 241.115 7.2197 240.812 7.33807C240.509 7.45644 240.282 7.61979 240.13 7.82812C239.979 8.03172 239.901 8.2661 239.896 8.53125C239.886 8.74905 239.929 8.94081 240.024 9.10653C240.123 9.27225 240.265 9.41903 240.45 9.54688C240.639 9.66998 240.866 9.77888 241.132 9.87358C241.397 9.96828 241.695 10.0511 242.026 10.1222L243.276 10.4062C243.996 10.5625 244.631 10.7708 245.18 11.0312C245.734 11.2917 246.198 11.6018 246.572 11.9616C246.951 12.3215 247.237 12.7358 247.431 13.2045C247.625 13.6733 247.725 14.1989 247.73 14.7812C247.725 15.6998 247.493 16.4882 247.034 17.1463C246.574 17.8045 245.914 18.3087 245.052 18.6591C244.195 19.0095 243.16 19.1847 241.948 19.1847C240.731 19.1847 239.671 19.0024 238.767 18.6378C237.862 18.2732 237.159 17.7192 236.657 16.9759C236.155 16.2325 235.897 15.2926 235.883 14.1562H239.249C239.278 14.625 239.403 15.0156 239.626 15.3281C239.848 15.6406 240.154 15.8774 240.542 16.0384C240.935 16.1993 241.39 16.2798 241.906 16.2798C242.379 16.2798 242.782 16.2159 243.113 16.0881C243.449 15.9602 243.707 15.7827 243.887 15.5554C244.067 15.3281 244.16 15.0677 244.164 14.7741C244.16 14.4995 244.074 14.2652 243.909 14.071C243.743 13.8722 243.487 13.7017 243.142 13.5597C242.801 13.4129 242.365 13.2779 241.835 13.1548L240.315 12.7997C239.055 12.5109 238.063 12.0445 237.339 11.4006C236.615 10.7519 236.255 9.87595 236.259 8.77273C236.255 7.87311 236.496 7.08475 236.984 6.40767C237.472 5.73059 238.146 5.20265 239.008 4.82386C239.87 4.44508 240.852 4.25568 241.955 4.25568C243.082 4.25568 244.06 4.44744 244.889 4.83097C245.722 5.20975 246.368 5.74242 246.828 6.42898C247.287 7.11553 247.521 7.91098 247.531 8.81534H244.164ZM260.305 4.45455H263.813V13.8366C263.813 14.9209 263.555 15.8655 263.039 16.6705C262.523 17.4706 261.803 18.0909 260.88 18.5312C259.957 18.9669 258.884 19.1847 257.663 19.1847C256.427 19.1847 255.347 18.9669 254.424 18.5312C253.501 18.0909 252.784 17.4706 252.272 16.6705C251.761 15.8655 251.505 14.9209 251.505 13.8366V4.45455H255.021V13.5312C255.021 14.0331 255.13 14.4806 255.347 14.8736C255.57 15.2666 255.88 15.5743 256.278 15.7969C256.676 16.0194 257.137 16.1307 257.663 16.1307C258.188 16.1307 258.648 16.0194 259.041 15.7969C259.438 15.5743 259.749 15.2666 259.971 14.8736C260.194 14.4806 260.305 14.0331 260.305 13.5312V4.45455ZM280.396 4.45455V19H277.413L271.625 10.6051H271.532V19H268.017V4.45455H271.042L276.767 12.8352H276.888V4.45455H280.396ZM287.753 19H283.975L288.882 4.45455H293.563L298.47 19H294.692L291.276 8.11932H291.162L287.753 19ZM287.249 13.2756H295.146V15.946H287.249V13.2756ZM192.765 36.1442C191.96 36.1442 191.269 35.9785 190.692 35.647C190.119 35.3156 189.678 34.8549 189.37 34.2649C189.061 33.6716 188.907 32.9856 188.907 32.2067C188.907 31.4245 189.061 30.7384 189.37 30.1484C189.681 29.5552 190.124 29.0928 190.697 28.7614C191.274 28.4299 191.961 28.2642 192.76 28.2642C193.466 28.2642 194.081 28.3918 194.605 28.647C195.132 28.9022 195.543 29.2635 195.838 29.7308C196.136 30.1948 196.293 30.7401 196.31 31.3665H194.038C193.991 30.9754 193.859 30.6688 193.64 30.4467C193.425 30.2247 193.143 30.1136 192.795 30.1136C192.513 30.1136 192.266 30.1932 192.054 30.3523C191.842 30.508 191.676 30.7401 191.557 31.0483C191.441 31.3532 191.383 31.7311 191.383 32.1818C191.383 32.6326 191.441 33.0137 191.557 33.3253C191.676 33.6335 191.842 33.8672 192.054 34.0263C192.266 34.1821 192.513 34.2599 192.795 34.2599C193.02 34.2599 193.219 34.2119 193.392 34.1158C193.567 34.0196 193.711 33.8788 193.824 33.6932C193.937 33.5043 194.008 33.2756 194.038 33.0071H196.31C196.287 33.6368 196.129 34.187 195.838 34.6577C195.549 35.1283 195.143 35.4946 194.62 35.7564C194.099 36.0149 193.481 36.1442 192.765 36.1442ZM202.519 36.1442C201.717 36.1442 201.027 35.9801 200.45 35.652C199.877 35.3205 199.435 34.8598 199.123 34.2699C198.815 33.6766 198.661 32.9889 198.661 32.2067C198.661 31.4212 198.815 30.7334 199.123 30.1435C199.435 29.5502 199.877 29.0895 200.45 28.7614C201.027 28.4299 201.717 28.2642 202.519 28.2642C203.321 28.2642 204.008 28.4299 204.582 28.7614C205.159 29.0895 205.601 29.5502 205.909 30.1435C206.221 30.7334 206.377 31.4212 206.377 32.2067C206.377 32.9889 206.221 33.6766 205.909 34.2699C205.601 34.8598 205.159 35.3205 204.582 35.652C204.008 35.9801 203.321 36.1442 202.519 36.1442ZM202.534 34.3097C202.825 34.3097 203.072 34.2202 203.274 34.0412C203.476 33.8622 203.631 33.6136 203.737 33.2955C203.846 32.9773 203.901 32.6094 203.901 32.1918C203.901 31.7675 203.846 31.3963 203.737 31.0781C203.631 30.7599 203.476 30.5114 203.274 30.3324C203.072 30.1534 202.825 30.0639 202.534 30.0639C202.232 30.0639 201.977 30.1534 201.768 30.3324C201.562 30.5114 201.405 30.7599 201.296 31.0781C201.19 31.3963 201.137 31.7675 201.137 32.1918C201.137 32.6094 201.19 32.9773 201.296 33.2955C201.405 33.6136 201.562 33.8622 201.768 34.0412C201.977 34.2202 202.232 34.3097 202.534 34.3097ZM209.022 36V28.3636H211.334V29.7656H211.418C211.577 29.3016 211.846 28.9354 212.224 28.6669C212.602 28.3984 213.052 28.2642 213.576 28.2642C214.106 28.2642 214.56 28.4001 214.938 28.6719C215.316 28.9437 215.556 29.3082 215.659 29.7656H215.739C215.881 29.3116 216.16 28.9486 216.574 28.6768C216.988 28.4018 217.477 28.2642 218.04 28.2642C218.763 28.2642 219.35 28.4962 219.8 28.9602C220.251 29.4209 220.477 30.054 220.477 30.8594V36H218.045V31.4162C218.045 31.035 217.948 30.745 217.752 30.5462C217.557 30.344 217.303 30.2429 216.991 30.2429C216.657 30.2429 216.393 30.3523 216.201 30.571C216.012 30.7865 215.918 31.0765 215.918 31.4411V36H213.581V31.3913C213.581 31.0367 213.485 30.7566 213.293 30.5511C213.1 30.3456 212.847 30.2429 212.532 30.2429C212.32 30.2429 212.133 30.2943 211.97 30.397C211.808 30.4964 211.68 30.639 211.587 30.8246C211.498 31.0102 211.453 31.2289 211.453 31.4808V36H209.022ZM223.383 36V28.3636H225.695V29.7656H225.779C225.938 29.3016 226.207 28.9354 226.585 28.6669C226.962 28.3984 227.413 28.2642 227.937 28.2642C228.467 28.2642 228.921 28.4001 229.299 28.6719C229.677 28.9437 229.917 29.3082 230.02 29.7656H230.1C230.242 29.3116 230.52 28.9486 230.935 28.6768C231.349 28.4018 231.838 28.2642 232.401 28.2642C233.124 28.2642 233.711 28.4962 234.161 28.9602C234.612 29.4209 234.837 30.054 234.837 30.8594V36H232.406V31.4162C232.406 31.035 232.309 30.745 232.113 30.5462C231.917 30.344 231.664 30.2429 231.352 30.2429C231.018 30.2429 230.754 30.3523 230.562 30.571C230.373 30.7865 230.278 31.0765 230.278 31.4411V36H227.942V31.3913C227.942 31.0367 227.846 30.7566 227.653 30.5511C227.461 30.3456 227.208 30.2429 226.893 30.2429C226.681 30.2429 226.493 30.2943 226.331 30.397C226.169 30.4964 226.041 30.639 225.948 30.8246C225.859 31.0102 225.814 31.2289 225.814 31.4808V36H223.383ZM237.744 36V28.3636H240.175V36H237.744ZM238.962 27.4737C238.62 27.4737 238.327 27.361 238.082 27.1357C237.837 26.907 237.714 26.6319 237.714 26.3104C237.714 25.9922 237.837 25.7204 238.082 25.495C238.327 25.2663 238.62 25.152 238.962 25.152C239.307 25.152 239.6 25.2663 239.842 25.495C240.087 25.7204 240.21 25.9922 240.21 26.3104C240.21 26.6319 240.087 26.907 239.842 27.1357C239.6 27.361 239.307 27.4737 238.962 27.4737ZM249.789 30.6953L247.557 30.755C247.534 30.5959 247.471 30.455 247.368 30.3324C247.265 30.2064 247.131 30.1087 246.965 30.0391C246.803 29.9661 246.614 29.9297 246.399 29.9297C246.117 29.9297 245.877 29.986 245.678 30.0987C245.482 30.2114 245.386 30.3639 245.389 30.5561C245.386 30.7053 245.446 30.8345 245.568 30.9439C245.694 31.0533 245.918 31.1411 246.24 31.2074L247.711 31.4858C248.473 31.6316 249.04 31.8736 249.411 32.2116C249.786 32.5497 249.975 32.9972 249.978 33.554C249.975 34.0777 249.819 34.5334 249.511 34.9212C249.206 35.3089 248.788 35.6106 248.258 35.826C247.728 36.0381 247.121 36.1442 246.438 36.1442C245.348 36.1442 244.488 35.9205 243.858 35.473C243.232 35.0223 242.874 34.419 242.784 33.6634L245.186 33.6037C245.239 33.8821 245.376 34.0942 245.598 34.2401C245.82 34.3859 246.104 34.4588 246.448 34.4588C246.76 34.4588 247.013 34.4008 247.209 34.2848C247.405 34.1688 247.504 34.0147 247.507 33.8224C247.504 33.6501 247.428 33.5125 247.279 33.4098C247.129 33.3037 246.896 33.2209 246.578 33.1612L245.245 32.9077C244.48 32.7685 243.91 32.5116 243.535 32.1371C243.16 31.7592 242.975 31.2786 242.978 30.6953C242.975 30.1849 243.111 29.7491 243.386 29.3878C243.661 29.0232 244.052 28.7448 244.559 28.5526C245.066 28.3603 245.664 28.2642 246.354 28.2642C247.388 28.2642 248.203 28.4813 248.8 28.9155C249.397 29.3464 249.726 29.9396 249.789 30.6953ZM259.242 30.6953L257.01 30.755C256.987 30.5959 256.924 30.455 256.821 30.3324C256.718 30.2064 256.584 30.1087 256.418 30.0391C256.256 29.9661 256.067 29.9297 255.851 29.9297C255.57 29.9297 255.329 29.986 255.13 30.0987C254.935 30.2114 254.839 30.3639 254.842 30.5561C254.839 30.7053 254.898 30.8345 255.021 30.9439C255.147 31.0533 255.371 31.1411 255.692 31.2074L257.164 31.4858C257.926 31.6316 258.493 31.8736 258.864 32.2116C259.239 32.5497 259.428 32.9972 259.431 33.554C259.428 34.0777 259.272 34.5334 258.964 34.9212C258.659 35.3089 258.241 35.6106 257.711 35.826C257.18 36.0381 256.574 36.1442 255.891 36.1442C254.801 36.1442 253.941 35.9205 253.311 35.473C252.684 35.0223 252.327 34.419 252.237 33.6634L254.638 33.6037C254.691 33.8821 254.829 34.0942 255.051 34.2401C255.273 34.3859 255.556 34.4588 255.901 34.4588C256.213 34.4588 256.466 34.4008 256.662 34.2848C256.857 34.1688 256.957 34.0147 256.96 33.8224C256.957 33.6501 256.88 33.5125 256.731 33.4098C256.582 33.3037 256.349 33.2209 256.03 33.1612L254.698 32.9077C253.932 32.7685 253.362 32.5116 252.988 32.1371C252.613 31.7592 252.428 31.2786 252.431 30.6953C252.428 30.1849 252.563 29.7491 252.839 29.3878C253.114 29.0232 253.505 28.7448 254.012 28.5526C254.519 28.3603 255.117 28.2642 255.807 28.2642C256.841 28.2642 257.656 28.4813 258.253 28.9155C258.849 29.3464 259.179 29.9396 259.242 30.6953ZM262.028 36V28.3636H264.459V36H262.028ZM263.246 27.4737C262.904 27.4737 262.611 27.361 262.366 27.1357C262.121 26.907 261.998 26.6319 261.998 26.3104C261.998 25.9922 262.121 25.7204 262.366 25.495C262.611 25.2663 262.904 25.152 263.246 25.152C263.591 25.152 263.884 25.2663 264.126 25.495C264.371 25.7204 264.494 25.9922 264.494 26.3104C264.494 26.6319 264.371 26.907 264.126 27.1357C263.884 27.361 263.591 27.4737 263.246 27.4737ZM270.971 36.1442C270.169 36.1442 269.479 35.9801 268.903 35.652C268.329 35.3205 267.887 34.8598 267.575 34.2699C267.267 33.6766 267.113 32.9889 267.113 32.2067C267.113 31.4212 267.267 30.7334 267.575 30.1435C267.887 29.5502 268.329 29.0895 268.903 28.7614C269.479 28.4299 270.169 28.2642 270.971 28.2642C271.773 28.2642 272.461 28.4299 273.034 28.7614C273.611 29.0895 274.053 29.5502 274.362 30.1435C274.673 30.7334 274.829 31.4212 274.829 32.2067C274.829 32.9889 274.673 33.6766 274.362 34.2699C274.053 34.8598 273.611 35.3205 273.034 35.652C272.461 35.9801 271.773 36.1442 270.971 36.1442ZM270.986 34.3097C271.278 34.3097 271.524 34.2202 271.727 34.0412C271.929 33.8622 272.083 33.6136 272.189 33.2955C272.298 32.9773 272.353 32.6094 272.353 32.1918C272.353 31.7675 272.298 31.3963 272.189 31.0781C272.083 30.7599 271.929 30.5114 271.727 30.3324C271.524 30.1534 271.278 30.0639 270.986 30.0639C270.684 30.0639 270.429 30.1534 270.22 30.3324C270.015 30.5114 269.857 30.7599 269.748 31.0781C269.642 31.3963 269.589 31.7675 269.589 32.1918C269.589 32.6094 269.642 32.9773 269.748 33.2955C269.857 33.6136 270.015 33.8622 270.22 34.0412C270.429 34.2202 270.684 34.3097 270.986 34.3097ZM279.905 31.6449V36H277.474V28.3636H279.786V29.7656H279.871C280.04 29.2983 280.328 28.9321 280.736 28.6669C281.143 28.3984 281.629 28.2642 282.192 28.2642C282.729 28.2642 283.195 28.3852 283.589 28.6271C283.987 28.8658 284.295 29.2005 284.514 29.6314C284.736 30.0589 284.846 30.5594 284.842 31.1328V36H282.411V31.6101C282.414 31.1858 282.307 30.8544 282.088 30.6158C281.873 30.3771 281.573 30.2578 281.188 30.2578C280.933 30.2578 280.707 30.3142 280.512 30.4268C280.32 30.5362 280.171 30.6937 280.065 30.8991C279.962 31.1046 279.909 31.3532 279.905 31.6449ZM291.317 36.1442C290.518 36.1442 289.829 35.9867 289.249 35.6719C288.672 35.3537 288.228 34.9013 287.916 34.3146C287.608 33.7247 287.454 33.0237 287.454 32.2116C287.454 31.4228 287.61 30.7334 287.921 30.1435C288.233 29.5502 288.672 29.0895 289.239 28.7614C289.806 28.4299 290.473 28.2642 291.242 28.2642C291.786 28.2642 292.283 28.3487 292.734 28.5178C293.185 28.6868 293.574 28.937 293.902 29.2685C294.23 29.5999 294.486 30.0092 294.668 30.4964C294.85 30.9804 294.941 31.5355 294.941 32.1619V32.7685H288.304V31.3565H292.679C292.676 31.098 292.615 30.8677 292.495 30.6655C292.376 30.4633 292.212 30.3059 292.003 30.1932C291.798 30.0772 291.561 30.0192 291.292 30.0192C291.02 30.0192 290.777 30.0805 290.561 30.2031C290.346 30.3224 290.175 30.4865 290.049 30.6953C289.923 30.9008 289.857 31.1345 289.85 31.3963V32.8331C289.85 33.1446 289.912 33.4181 290.034 33.6534C290.157 33.8854 290.331 34.0661 290.556 34.1953C290.782 34.3246 291.05 34.3892 291.362 34.3892C291.577 34.3892 291.773 34.3594 291.948 34.2997C292.124 34.2401 292.275 34.1522 292.401 34.0362C292.527 33.9202 292.621 33.7777 292.684 33.6087L294.916 33.6733C294.824 34.1738 294.62 34.6096 294.305 34.9808C293.993 35.3487 293.584 35.6354 293.077 35.8409C292.57 36.0431 291.983 36.1442 291.317 36.1442ZM300.442 25.8182L300.213 32.8828H298.17L297.941 25.8182H300.442ZM299.189 36.1442C298.834 36.1442 298.529 36.0182 298.274 35.7663C298.022 35.5144 297.896 35.2095 297.896 34.8516C297.896 34.5002 298.022 34.2003 298.274 33.9517C298.529 33.6998 298.834 33.5739 299.189 33.5739C299.53 33.5739 299.83 33.6998 300.089 33.9517C300.35 34.2003 300.481 34.5002 300.481 34.8516C300.481 35.0902 300.42 35.3073 300.297 35.5028C300.178 35.6984 300.021 35.8542 299.825 35.9702C299.633 36.0862 299.421 36.1442 299.189 36.1442Z" fill="white"/>
<path d="M41.5057 49V47.7216L46.3068 42.4659C46.8703 41.8504 47.3343 41.3153 47.6989 40.8608C48.0634 40.4015 48.3333 39.9706 48.5085 39.5682C48.6884 39.161 48.7784 38.7348 48.7784 38.2898C48.7784 37.7784 48.6553 37.3357 48.4091 36.9616C48.1676 36.5876 47.8362 36.2988 47.4148 36.0952C46.9934 35.8916 46.5199 35.7898 45.9943 35.7898C45.4356 35.7898 44.9479 35.9058 44.5312 36.1378C44.1193 36.3651 43.7997 36.6847 43.5724 37.0966C43.3499 37.5085 43.2386 37.9915 43.2386 38.5455H41.5625C41.5625 37.6932 41.759 36.9451 42.152 36.3011C42.545 35.6572 43.08 35.1553 43.7571 34.7955C44.4389 34.4356 45.2036 34.2557 46.0511 34.2557C46.9034 34.2557 47.6586 34.4356 48.3168 34.7955C48.9749 35.1553 49.491 35.6406 49.8651 36.2514C50.2391 36.8622 50.4261 37.5417 50.4261 38.2898C50.4261 38.8248 50.3291 39.348 50.1349 39.8594C49.9455 40.366 49.6141 40.9318 49.1406 41.5568C48.6719 42.1771 48.0208 42.9347 47.1875 43.8295L43.9205 47.3239V47.4375H50.6818V49H41.5057ZM52.9616 46.017V44.5682L59.3537 34.4545H60.4048V36.6989H59.6946L54.8651 44.3409V44.4545H63.473V46.017H52.9616ZM59.8082 49V45.5767V44.902V34.4545H61.4844V49H59.8082ZM71.305 33.7727L66.6175 51.1875H65.0835L69.771 33.7727H71.305ZM73.718 49L80.2237 36.1307V36.017H72.7237V34.4545H82.0419V36.1023L75.5646 49H73.718Z" fill="white"/>
<path d="M177.609 54H174.018V42.3636H177.768C178.897 42.3636 179.863 42.5966 180.666 43.0625C181.469 43.5246 182.085 44.1894 182.513 45.0568C182.941 45.9205 183.155 46.9545 183.155 48.1591C183.155 49.3712 182.939 50.4148 182.507 51.2898C182.075 52.161 181.446 52.8314 180.621 53.3011C179.795 53.767 178.791 54 177.609 54ZM175.428 52.75H177.518C178.481 52.75 179.278 52.5644 179.911 52.1932C180.543 51.822 181.015 51.2936 181.325 50.608C181.636 49.9223 181.791 49.1061 181.791 48.1591C181.791 47.2197 181.638 46.411 181.331 45.733C181.024 45.0511 180.566 44.5284 179.956 44.1648C179.346 43.7973 178.587 43.6136 177.678 43.6136H175.428V52.75ZM188.996 54.1818C188.155 54.1818 187.429 53.9962 186.82 53.625C186.214 53.25 185.746 52.7273 185.416 52.0568C185.09 51.3826 184.928 50.5985 184.928 49.7045C184.928 48.8106 185.09 48.0227 185.416 47.3409C185.746 46.6553 186.204 46.1212 186.791 45.7386C187.382 45.3523 188.071 45.1591 188.859 45.1591C189.314 45.1591 189.763 45.2348 190.206 45.3864C190.649 45.5379 191.053 45.7841 191.416 46.125C191.78 46.4621 192.07 46.9091 192.286 47.4659C192.501 48.0227 192.609 48.7083 192.609 49.5227V50.0909H185.882V48.9318H191.246C191.246 48.4394 191.147 48 190.95 47.6136C190.757 47.2273 190.481 46.9223 190.121 46.6989C189.765 46.4754 189.344 46.3636 188.859 46.3636C188.325 46.3636 187.863 46.4962 187.473 46.7614C187.087 47.0227 186.789 47.3636 186.581 47.7841C186.373 48.2045 186.268 48.6553 186.268 49.1364V49.9091C186.268 50.5682 186.382 51.1269 186.609 51.5852C186.84 52.0398 187.161 52.3864 187.57 52.625C187.979 52.8598 188.454 52.9773 188.996 52.9773C189.348 52.9773 189.666 52.928 189.95 52.8295C190.238 52.7273 190.486 52.5758 190.695 52.375C190.903 52.1705 191.064 51.9167 191.178 51.6136L192.473 51.9773C192.337 52.4167 192.107 52.803 191.786 53.1364C191.464 53.4659 191.066 53.7235 190.592 53.9091C190.119 54.0909 189.587 54.1818 188.996 54.1818ZM194.649 57.2727V45.2727H195.945V46.6591H196.104C196.202 46.5076 196.339 46.3144 196.513 46.0795C196.691 45.8409 196.945 45.6288 197.274 45.4432C197.607 45.2538 198.058 45.1591 198.626 45.1591C199.361 45.1591 200.009 45.3428 200.57 45.7102C201.13 46.0777 201.568 46.5985 201.882 47.2727C202.196 47.947 202.354 48.7424 202.354 49.6591C202.354 50.5833 202.196 51.3845 201.882 52.0625C201.568 52.7367 201.132 53.2595 200.575 53.6307C200.018 53.9981 199.376 54.1818 198.649 54.1818C198.089 54.1818 197.64 54.089 197.303 53.9034C196.965 53.714 196.706 53.5 196.524 53.2614C196.342 53.0189 196.202 52.8182 196.104 52.6591H195.99V57.2727H194.649ZM195.967 49.6364C195.967 50.2955 196.064 50.8769 196.257 51.3807C196.45 51.8807 196.732 52.2727 197.104 52.5568C197.475 52.8371 197.929 52.9773 198.467 52.9773C199.028 52.9773 199.496 52.8295 199.871 52.5341C200.25 52.2348 200.534 51.8333 200.723 51.3295C200.916 50.822 201.013 50.2576 201.013 49.6364C201.013 49.0227 200.918 48.4697 200.729 47.9773C200.543 47.4811 200.261 47.089 199.882 46.8011C199.507 46.5095 199.036 46.3636 198.467 46.3636C197.922 46.3636 197.464 46.5019 197.092 46.7784C196.721 47.0511 196.441 47.4337 196.251 47.9261C196.062 48.4148 195.967 48.9848 195.967 49.6364ZM207.945 54.1818C207.157 54.1818 206.465 53.9943 205.871 53.6193C205.28 53.2443 204.818 52.7197 204.484 52.0455C204.155 51.3712 203.99 50.5833 203.99 49.6818C203.99 48.7727 204.155 47.9792 204.484 47.3011C204.818 46.6231 205.28 46.0966 205.871 45.7216C206.465 45.3466 207.157 45.1591 207.945 45.1591C208.732 45.1591 209.422 45.3466 210.013 45.7216C210.607 46.0966 211.07 46.6231 211.399 47.3011C211.732 47.9792 211.899 48.7727 211.899 49.6818C211.899 50.5833 211.732 51.3712 211.399 52.0455C211.07 52.7197 210.607 53.2443 210.013 53.6193C209.422 53.9943 208.732 54.1818 207.945 54.1818ZM207.945 52.9773C208.543 52.9773 209.036 52.8239 209.422 52.517C209.808 52.2102 210.094 51.8068 210.28 51.3068C210.465 50.8068 210.558 50.2652 210.558 49.6818C210.558 49.0985 210.465 48.5549 210.28 48.0511C210.094 47.5473 209.808 47.1402 209.422 46.8295C209.036 46.5189 208.543 46.3636 207.945 46.3636C207.346 46.3636 206.854 46.5189 206.467 46.8295C206.081 47.1402 205.795 47.5473 205.609 48.0511C205.424 48.5549 205.331 49.0985 205.331 49.6818C205.331 50.2652 205.424 50.8068 205.609 51.3068C205.795 51.8068 206.081 52.2102 206.467 52.517C206.854 52.8239 207.346 52.9773 207.945 52.9773ZM220.128 47.2273L218.923 47.5682C218.848 47.3674 218.736 47.1723 218.588 46.983C218.444 46.7898 218.247 46.6307 217.997 46.5057C217.747 46.3807 217.427 46.3182 217.037 46.3182C216.503 46.3182 216.058 46.4413 215.702 46.6875C215.349 46.9299 215.173 47.2386 215.173 47.6136C215.173 47.947 215.295 48.2102 215.537 48.4034C215.779 48.5966 216.158 48.7576 216.673 48.8864L217.969 49.2045C218.749 49.3939 219.33 49.6837 219.713 50.0739C220.096 50.4602 220.287 50.9583 220.287 51.5682C220.287 52.0682 220.143 52.5152 219.855 52.9091C219.571 53.303 219.173 53.6136 218.662 53.8409C218.151 54.0682 217.556 54.1818 216.878 54.1818C215.988 54.1818 215.251 53.9886 214.668 53.6023C214.084 53.2159 213.715 52.6515 213.56 51.9091L214.832 51.5909C214.954 52.0606 215.183 52.4129 215.52 52.6477C215.861 52.8826 216.306 53 216.855 53C217.48 53 217.976 52.8674 218.344 52.6023C218.715 52.3333 218.901 52.0114 218.901 51.6364C218.901 51.3333 218.795 51.0795 218.582 50.875C218.37 50.6667 218.045 50.5114 217.605 50.4091L216.151 50.0682C215.351 49.8788 214.764 49.5852 214.389 49.1875C214.018 48.786 213.832 48.2841 213.832 47.6818C213.832 47.1894 213.971 46.7538 214.247 46.375C214.527 45.9962 214.908 45.6989 215.389 45.483C215.874 45.267 216.423 45.1591 217.037 45.1591C217.901 45.1591 218.579 45.3485 219.071 45.7273C219.567 46.1061 219.92 46.6061 220.128 47.2273ZM222.305 54V45.2727H223.646V54H222.305ZM222.987 43.8182C222.726 43.8182 222.5 43.7292 222.311 43.5511C222.125 43.3731 222.033 43.1591 222.033 42.9091C222.033 42.6591 222.125 42.4451 222.311 42.267C222.5 42.089 222.726 42 222.987 42C223.249 42 223.472 42.089 223.658 42.267C223.847 42.4451 223.942 42.6591 223.942 42.9091C223.942 43.1591 223.847 43.3731 223.658 43.5511C223.472 43.7292 223.249 43.8182 222.987 43.8182ZM229.898 45.2727V46.4091H225.375V45.2727H229.898ZM226.693 43.1818H228.034V51.5C228.034 51.8788 228.089 52.1629 228.199 52.3523C228.313 52.5379 228.456 52.6629 228.631 52.7273C228.809 52.7879 228.996 52.8182 229.193 52.8182C229.341 52.8182 229.462 52.8106 229.557 52.7955C229.652 52.7765 229.727 52.7614 229.784 52.75L230.057 53.9545C229.966 53.9886 229.839 54.0227 229.676 54.0568C229.513 54.0947 229.307 54.1136 229.057 54.1136C228.678 54.1136 228.307 54.0322 227.943 53.8693C227.583 53.7064 227.284 53.4583 227.045 53.125C226.811 52.7917 226.693 52.3712 226.693 51.8636V43.1818ZM235.366 54.1818C234.579 54.1818 233.887 53.9943 233.293 53.6193C232.702 53.2443 232.24 52.7197 231.906 52.0455C231.577 51.3712 231.412 50.5833 231.412 49.6818C231.412 48.7727 231.577 47.9792 231.906 47.3011C232.24 46.6231 232.702 46.0966 233.293 45.7216C233.887 45.3466 234.579 45.1591 235.366 45.1591C236.154 45.1591 236.844 45.3466 237.435 45.7216C238.029 46.0966 238.491 46.6231 238.821 47.3011C239.154 47.9792 239.321 48.7727 239.321 49.6818C239.321 50.5833 239.154 51.3712 238.821 52.0455C238.491 52.7197 238.029 53.2443 237.435 53.6193C236.844 53.9943 236.154 54.1818 235.366 54.1818ZM235.366 52.9773C235.965 52.9773 236.457 52.8239 236.844 52.517C237.23 52.2102 237.516 51.8068 237.702 51.3068C237.887 50.8068 237.98 50.2652 237.98 49.6818C237.98 49.0985 237.887 48.5549 237.702 48.0511C237.516 47.5473 237.23 47.1402 236.844 46.8295C236.457 46.5189 235.965 46.3636 235.366 46.3636C234.768 46.3636 234.276 46.5189 233.889 46.8295C233.503 47.1402 233.217 47.5473 233.031 48.0511C232.846 48.5549 232.753 49.0985 232.753 49.6818C232.753 50.2652 232.846 50.8068 233.031 51.3068C233.217 51.8068 233.503 52.2102 233.889 52.517C234.276 52.8239 234.768 52.9773 235.366 52.9773ZM249.527 54.1818C248.686 54.1818 247.961 53.9962 247.351 53.625C246.745 53.25 246.277 52.7273 245.947 52.0568C245.622 51.3826 245.459 50.5985 245.459 49.7045C245.459 48.8106 245.622 48.0227 245.947 47.3409C246.277 46.6553 246.735 46.1212 247.322 45.7386C247.913 45.3523 248.603 45.1591 249.391 45.1591C249.845 45.1591 250.294 45.2348 250.737 45.3864C251.18 45.5379 251.584 45.7841 251.947 46.125C252.311 46.4621 252.601 46.9091 252.817 47.4659C253.033 48.0227 253.141 48.7083 253.141 49.5227V50.0909H246.413V48.9318H251.777C251.777 48.4394 251.679 48 251.482 47.6136C251.288 47.2273 251.012 46.9223 250.652 46.6989C250.296 46.4754 249.875 46.3636 249.391 46.3636C248.857 46.3636 248.394 46.4962 248.004 46.7614C247.618 47.0227 247.321 47.3636 247.112 47.7841C246.904 48.2045 246.8 48.6553 246.8 49.1364V49.9091C246.8 50.5682 246.913 51.1269 247.141 51.5852C247.372 52.0398 247.692 52.3864 248.101 52.625C248.51 52.8598 248.985 52.9773 249.527 52.9773C249.879 52.9773 250.197 52.928 250.482 52.8295C250.769 52.7273 251.018 52.5758 251.226 52.375C251.434 52.1705 251.595 51.9167 251.709 51.6136L253.004 51.9773C252.868 52.4167 252.639 52.803 252.317 53.1364C251.995 53.4659 251.597 53.7235 251.124 53.9091C250.65 54.0909 250.118 54.1818 249.527 54.1818ZM259.862 54V42.3636H263.794C264.707 42.3636 265.453 42.5284 266.033 42.858C266.616 43.1837 267.048 43.625 267.328 44.1818C267.608 44.7386 267.749 45.3598 267.749 46.0455C267.749 46.7311 267.608 47.3542 267.328 47.9148C267.052 48.4754 266.624 48.9223 266.044 49.2557C265.464 49.5852 264.722 49.75 263.817 49.75H260.999V48.5H263.771C264.396 48.5 264.898 48.392 265.277 48.1761C265.656 47.9602 265.93 47.6686 266.101 47.3011C266.275 46.9299 266.362 46.5114 266.362 46.0455C266.362 45.5795 266.275 45.1629 266.101 44.7955C265.93 44.428 265.654 44.1402 265.271 43.9318C264.889 43.7197 264.381 43.6136 263.749 43.6136H261.271V54H259.862ZM269.837 54V45.2727H271.132V46.5909H271.223C271.382 46.1591 271.67 45.8087 272.087 45.5398C272.503 45.2708 272.973 45.1364 273.496 45.1364C273.594 45.1364 273.717 45.1383 273.865 45.142C274.013 45.1458 274.125 45.1515 274.2 45.1591V46.5227C274.155 46.5114 274.051 46.4943 273.888 46.4716C273.729 46.4451 273.56 46.4318 273.382 46.4318C272.958 46.4318 272.579 46.5208 272.246 46.6989C271.916 46.8731 271.655 47.1155 271.462 47.4261C271.272 47.733 271.178 48.0833 271.178 48.4773V54H269.837ZM279.183 54.1818C278.342 54.1818 277.617 53.9962 277.007 53.625C276.401 53.25 275.933 52.7273 275.604 52.0568C275.278 51.3826 275.115 50.5985 275.115 49.7045C275.115 48.8106 275.278 48.0227 275.604 47.3409C275.933 46.6553 276.392 46.1212 276.979 45.7386C277.57 45.3523 278.259 45.1591 279.047 45.1591C279.501 45.1591 279.95 45.2348 280.393 45.3864C280.837 45.5379 281.24 45.7841 281.604 46.125C281.967 46.4621 282.257 46.9091 282.473 47.4659C282.689 48.0227 282.797 48.7083 282.797 49.5227V50.0909H276.07V48.9318H281.433C281.433 48.4394 281.335 48 281.138 47.6136C280.945 47.2273 280.668 46.9223 280.308 46.6989C279.952 46.4754 279.532 46.3636 279.047 46.3636C278.513 46.3636 278.051 46.4962 277.661 46.7614C277.274 47.0227 276.977 47.3636 276.768 47.7841C276.56 48.2045 276.456 48.6553 276.456 49.1364V49.9091C276.456 50.5682 276.57 51.1269 276.797 51.5852C277.028 52.0398 277.348 52.3864 277.757 52.625C278.166 52.8598 278.642 52.9773 279.183 52.9773C279.536 52.9773 279.854 52.928 280.138 52.8295C280.426 52.7273 280.674 52.5758 280.882 52.375C281.09 52.1705 281.251 51.9167 281.365 51.6136L282.661 51.9773C282.524 52.4167 282.295 52.803 281.973 53.1364C281.651 53.4659 281.253 53.7235 280.78 53.9091C280.306 54.0909 279.774 54.1818 279.183 54.1818ZM286.178 42.3636V54H284.837V42.3636H286.178ZM288.634 54V45.2727H289.974V54H288.634ZM289.315 43.8182C289.054 43.8182 288.829 43.7292 288.639 43.5511C288.454 43.3731 288.361 43.1591 288.361 42.9091C288.361 42.6591 288.454 42.4451 288.639 42.267C288.829 42.089 289.054 42 289.315 42C289.577 42 289.8 42.089 289.986 42.267C290.175 42.4451 290.27 42.6591 290.27 42.9091C290.27 43.1591 290.175 43.3731 289.986 43.5511C289.8 43.7292 289.577 43.8182 289.315 43.8182ZM296.089 54.1818C295.249 54.1818 294.523 53.9962 293.913 53.625C293.307 53.25 292.839 52.7273 292.51 52.0568C292.184 51.3826 292.021 50.5985 292.021 49.7045C292.021 48.8106 292.184 48.0227 292.51 47.3409C292.839 46.6553 293.298 46.1212 293.885 45.7386C294.476 45.3523 295.165 45.1591 295.953 45.1591C296.408 45.1591 296.857 45.2348 297.3 45.3864C297.743 45.5379 298.146 45.7841 298.51 46.125C298.874 46.4621 299.163 46.9091 299.379 47.4659C299.595 48.0227 299.703 48.7083 299.703 49.5227V50.0909H292.976V48.9318H298.339C298.339 48.4394 298.241 48 298.044 47.6136C297.851 47.2273 297.574 46.9223 297.214 46.6989C296.858 46.4754 296.438 46.3636 295.953 46.3636C295.419 46.3636 294.957 46.4962 294.567 46.7614C294.18 47.0227 293.883 47.3636 293.675 47.7841C293.466 48.2045 293.362 48.6553 293.362 49.1364V49.9091C293.362 50.5682 293.476 51.1269 293.703 51.5852C293.934 52.0398 294.254 52.3864 294.663 52.625C295.072 52.8598 295.548 52.9773 296.089 52.9773C296.442 52.9773 296.76 52.928 297.044 52.8295C297.332 52.7273 297.58 52.5758 297.788 52.375C297.997 52.1705 298.158 51.9167 298.271 51.6136L299.567 51.9773C299.43 52.4167 299.201 52.803 298.879 53.1364C298.557 53.4659 298.16 53.7235 297.686 53.9091C297.213 54.0909 296.68 54.1818 296.089 54.1818ZM308.614 45.2727L305.386 54H304.023L300.795 45.2727H302.25L304.659 52.2273H304.75L307.159 45.2727H308.614ZM313.616 54.1818C312.829 54.1818 312.137 53.9943 311.543 53.6193C310.952 53.2443 310.49 52.7197 310.156 52.0455C309.827 51.3712 309.662 50.5833 309.662 49.6818C309.662 48.7727 309.827 47.9792 310.156 47.3011C310.49 46.6231 310.952 46.0966 311.543 45.7216C312.137 45.3466 312.829 45.1591 313.616 45.1591C314.404 45.1591 315.094 45.3466 315.685 45.7216C316.279 46.0966 316.741 46.6231 317.071 47.3011C317.404 47.9792 317.571 48.7727 317.571 49.6818C317.571 50.5833 317.404 51.3712 317.071 52.0455C316.741 52.7197 316.279 53.2443 315.685 53.6193C315.094 53.9943 314.404 54.1818 313.616 54.1818ZM313.616 52.9773C314.215 52.9773 314.707 52.8239 315.094 52.517C315.48 52.2102 315.766 51.8068 315.952 51.3068C316.137 50.8068 316.23 50.2652 316.23 49.6818C316.23 49.0985 316.137 48.5549 315.952 48.0511C315.766 47.5473 315.48 47.1402 315.094 46.8295C314.707 46.5189 314.215 46.3636 313.616 46.3636C313.018 46.3636 312.526 46.5189 312.139 46.8295C311.753 47.1402 311.467 47.5473 311.281 48.0511C311.096 48.5549 311.003 49.0985 311.003 49.6818C311.003 50.2652 311.096 50.8068 311.281 51.3068C311.467 51.8068 311.753 52.2102 312.139 52.517C312.526 52.8239 313.018 52.9773 313.616 52.9773Z" fill="white"/>
<path d="M412.637 53.3182C411.827 53.3182 411.131 53.214 410.549 53.0057C409.966 52.8021 409.481 52.5322 409.093 52.196C408.709 51.8646 408.404 51.5095 408.176 51.1307L409.512 50.1932C409.663 50.392 409.855 50.6193 410.087 50.875C410.319 51.1354 410.636 51.3603 411.039 51.5497C411.446 51.7438 411.979 51.8409 412.637 51.8409C413.517 51.8409 414.244 51.6278 414.817 51.2017C415.39 50.7756 415.676 50.108 415.676 49.1989V46.983H415.534C415.411 47.1818 415.236 47.428 415.009 47.7216C414.786 48.0104 414.464 48.2685 414.043 48.4957C413.626 48.7183 413.063 48.8295 412.353 48.8295C411.472 48.8295 410.681 48.6212 409.98 48.2045C409.284 47.7879 408.733 47.1818 408.326 46.3864C407.923 45.5909 407.722 44.625 407.722 43.4886C407.722 42.3712 407.918 41.3982 408.311 40.5696C408.704 39.7363 409.251 39.0923 409.952 38.6378C410.653 38.1785 411.462 37.9489 412.381 37.9489C413.091 37.9489 413.655 38.0672 414.071 38.304C414.493 38.536 414.815 38.8011 415.037 39.0994C415.265 39.393 415.44 39.6345 415.563 39.8239H415.733V38.0909H417.353V49.3125C417.353 50.25 417.14 51.0123 416.713 51.5994C416.292 52.1913 415.724 52.6245 415.009 52.8991C414.299 53.1785 413.508 53.3182 412.637 53.3182ZM412.58 47.3239C413.252 47.3239 413.82 47.17 414.284 46.8622C414.748 46.5545 415.101 46.1117 415.343 45.5341C415.584 44.9564 415.705 44.2652 415.705 43.4602C415.705 42.6742 415.587 41.9806 415.35 41.3793C415.113 40.7779 414.763 40.3068 414.299 39.9659C413.835 39.625 413.262 39.4545 412.58 39.4545C411.87 39.4545 411.278 39.6345 410.804 39.9943C410.336 40.3542 409.983 40.8371 409.746 41.4432C409.514 42.0492 409.398 42.7216 409.398 43.4602C409.398 44.2178 409.516 44.8878 409.753 45.4702C409.995 46.0478 410.35 46.5024 410.819 46.8338C411.292 47.1605 411.879 47.3239 412.58 47.3239ZM420.421 49V38.0909H422.097V49H420.421ZM421.273 36.2727C420.946 36.2727 420.665 36.1615 420.428 35.9389C420.196 35.7164 420.08 35.4489 420.08 35.1364C420.08 34.8239 420.196 34.5563 420.428 34.3338C420.665 34.1113 420.946 34 421.273 34C421.6 34 421.879 34.1113 422.111 34.3338C422.348 34.5563 422.466 34.8239 422.466 35.1364C422.466 35.4489 422.348 35.7164 422.111 35.9389C421.879 36.1615 421.6 36.2727 421.273 36.2727ZM429.599 49.2273C428.614 49.2273 427.75 48.9929 427.006 48.5241C426.268 48.0554 425.69 47.3996 425.273 46.5568C424.862 45.714 424.656 44.7292 424.656 43.6023C424.656 42.4659 424.862 41.474 425.273 40.6264C425.69 39.7789 426.268 39.1207 427.006 38.652C427.75 38.1832 428.614 37.9489 429.599 37.9489C430.584 37.9489 431.445 38.1832 432.184 38.652C432.927 39.1207 433.505 39.7789 433.917 40.6264C434.334 41.474 434.542 42.4659 434.542 43.6023C434.542 44.7292 434.334 45.714 433.917 46.5568C433.505 47.3996 432.927 48.0554 432.184 48.5241C431.445 48.9929 430.584 49.2273 429.599 49.2273ZM429.599 47.7216C430.347 47.7216 430.962 47.5298 431.445 47.1463C431.928 46.7628 432.286 46.2585 432.518 45.6335C432.75 45.0085 432.866 44.3314 432.866 43.6023C432.866 42.8731 432.75 42.1937 432.518 41.5639C432.286 40.9342 431.928 40.4252 431.445 40.0369C430.962 39.6487 430.347 39.4545 429.599 39.4545C428.851 39.4545 428.235 39.6487 427.752 40.0369C427.269 40.4252 426.912 40.9342 426.68 41.5639C426.448 42.1937 426.332 42.8731 426.332 43.6023C426.332 44.3314 426.448 45.0085 426.68 45.6335C426.912 46.2585 427.269 46.7628 427.752 47.1463C428.235 47.5298 428.851 47.7216 429.599 47.7216ZM441.532 49.2273C440.51 49.2273 439.629 48.9858 438.89 48.5028C438.152 48.0199 437.583 47.3546 437.186 46.5071C436.788 45.6596 436.589 44.6913 436.589 43.6023C436.589 42.4943 436.793 41.5166 437.2 40.669C437.612 39.8168 438.185 39.1515 438.919 38.6733C439.657 38.1903 440.519 37.9489 441.504 37.9489C442.271 37.9489 442.962 38.0909 443.578 38.375C444.193 38.6591 444.698 39.0568 445.091 39.5682C445.484 40.0795 445.727 40.6761 445.822 41.358H444.146C444.018 40.8608 443.734 40.4205 443.294 40.0369C442.858 39.6487 442.271 39.4545 441.532 39.4545C440.879 39.4545 440.306 39.625 439.814 39.9659C439.326 40.3021 438.945 40.7779 438.67 41.3935C438.4 42.0043 438.265 42.7216 438.265 43.5455C438.265 44.3883 438.398 45.1222 438.663 45.7472C438.933 46.3722 439.312 46.8575 439.799 47.2031C440.292 47.5488 440.869 47.7216 441.532 47.7216C441.968 47.7216 442.363 47.6458 442.718 47.4943C443.074 47.3428 443.374 47.125 443.62 46.8409C443.867 46.5568 444.042 46.2159 444.146 45.8182H445.822C445.727 46.4621 445.493 47.0421 445.119 47.5582C444.75 48.0696 444.26 48.4768 443.649 48.7798C443.043 49.0781 442.337 49.2273 441.532 49.2273ZM449.949 42.4375V49H448.272V34.4545H449.949V39.7955H450.091C450.346 39.232 450.73 38.7846 451.241 38.4531C451.757 38.117 452.444 37.9489 453.301 37.9489C454.044 37.9489 454.695 38.098 455.254 38.3963C455.813 38.6899 456.246 39.142 456.554 39.7528C456.866 40.3589 457.022 41.1307 457.022 42.0682V49H455.346V42.1818C455.346 41.3153 455.121 40.6454 454.672 40.1719C454.226 39.6937 453.609 39.4545 452.818 39.4545C452.269 39.4545 451.776 39.5705 451.341 39.8026C450.91 40.0346 450.569 40.3731 450.318 40.8182C450.072 41.2633 449.949 41.803 449.949 42.4375ZM460.089 49V38.0909H461.765V49H460.089ZM460.941 36.2727C460.614 36.2727 460.333 36.1615 460.096 35.9389C459.864 35.7164 459.748 35.4489 459.748 35.1364C459.748 34.8239 459.864 34.5563 460.096 34.3338C460.333 34.1113 460.614 34 460.941 34C461.268 34 461.547 34.1113 461.779 34.3338C462.016 34.5563 462.134 34.8239 462.134 35.1364C462.134 35.4489 462.016 35.7164 461.779 35.9389C461.547 36.1615 461.268 36.2727 460.941 36.2727Z" fill="white"/>
<path d="M371.83 12.7273C371.83 14.3277 371.522 15.6842 370.906 16.7969C370.291 17.9096 369.457 18.7547 368.406 19.3324C367.36 19.91 366.186 20.1989 364.884 20.1989C363.577 20.1989 362.4 19.9077 361.354 19.3253C360.307 18.7429 359.476 17.8977 358.861 16.7898C358.25 15.6771 357.945 14.3229 357.945 12.7273C357.945 11.1269 358.25 9.77036 358.861 8.65767C359.476 7.54498 360.307 6.69981 361.354 6.12216C362.4 5.54451 363.577 5.25568 364.884 5.25568C366.186 5.25568 367.36 5.54451 368.406 6.12216C369.457 6.69981 370.291 7.54498 370.906 8.65767C371.522 9.77036 371.83 11.1269 371.83 12.7273ZM368.236 12.7273C368.236 11.7803 368.101 10.9801 367.831 10.3267C367.566 9.67329 367.182 9.1785 366.68 8.84233C366.183 8.50615 365.584 8.33807 364.884 8.33807C364.188 8.33807 363.589 8.50615 363.087 8.84233C362.585 9.1785 362.199 9.67329 361.929 10.3267C361.664 10.9801 361.531 11.7803 361.531 12.7273C361.531 13.6742 361.664 14.4744 361.929 15.1278C362.199 15.7812 362.585 16.276 363.087 16.6122C363.589 16.9484 364.188 17.1165 364.884 17.1165C365.584 17.1165 366.183 16.9484 366.68 16.6122C367.182 16.276 367.566 15.7812 367.831 15.1278C368.101 14.4744 368.236 13.6742 368.236 12.7273ZM375.682 20V5.45455H379.198V17.1449H385.249V20H375.682ZM386.616 8.30966V5.45455H398.91V8.30966H394.499V20H391.033V8.30966H386.616ZM402.427 20V5.45455H408.435C409.524 5.45455 410.464 5.65104 411.255 6.04403C412.05 6.43229 412.663 6.991 413.094 7.72017C413.525 8.4446 413.741 9.30398 413.741 10.2983C413.741 11.3068 413.52 12.1638 413.08 12.8693C412.64 13.5701 412.015 14.1051 411.205 14.4744C410.395 14.839 409.437 15.0213 408.329 15.0213H404.529V12.2514H407.675C408.206 12.2514 408.648 12.1828 409.003 12.0455C409.363 11.9034 409.635 11.6903 409.82 11.4062C410.005 11.1174 410.097 10.7481 410.097 10.2983C410.097 9.84848 410.005 9.4768 409.82 9.18324C409.635 8.88494 409.363 8.66241 409.003 8.51562C408.643 8.36411 408.201 8.28835 407.675 8.28835H405.942V20H402.427ZM410.616 13.3523L414.238 20H410.402L406.851 13.3523H410.616ZM417.469 20V5.45455H427.611V8.30966H420.984V11.2926H427.092V14.1548H420.984V17.1449H427.611V20H417.469Z" fill="white"/>
<path d="M437.681 20V17.4716L442.986 12.8267C443.384 12.4669 443.723 12.1378 444.002 11.8395C444.281 11.5365 444.494 11.2334 444.641 10.9304C444.788 10.6226 444.861 10.2888 444.861 9.92898C444.861 9.52652 444.774 9.18324 444.599 8.89915C444.423 8.61032 444.182 8.38778 443.874 8.23153C443.566 8.07528 443.214 7.99716 442.816 7.99716C442.414 7.99716 442.061 8.08002 441.758 8.24574C441.455 8.40672 441.218 8.6411 441.048 8.94886C440.882 9.25663 440.799 9.63068 440.799 10.071H437.468C437.468 9.08144 437.691 8.2268 438.136 7.5071C438.581 6.78741 439.206 6.23343 440.011 5.84517C440.82 5.45218 441.76 5.25568 442.83 5.25568C443.933 5.25568 444.892 5.44034 445.707 5.80966C446.521 6.17898 447.151 6.69508 447.596 7.35795C448.046 8.0161 448.271 8.78078 448.271 9.65199C448.271 10.206 448.159 10.7552 447.937 11.2997C447.714 11.8442 447.314 12.4455 446.736 13.1037C446.164 13.7618 445.349 14.5502 444.293 15.4688L442.553 17.0739V17.1662H448.448V20H437.681ZM458.251 20.3551C456.982 20.3551 455.888 20.0545 454.969 19.4531C454.051 18.8471 453.343 17.9782 452.846 16.8466C452.349 15.7102 452.102 14.3442 452.107 12.7486C452.112 11.1529 452.36 9.79877 452.853 8.68608C453.35 7.56865 454.055 6.71875 454.969 6.13636C455.888 5.54924 456.982 5.25568 458.251 5.25568C459.52 5.25568 460.613 5.54924 461.532 6.13636C462.455 6.71875 463.165 7.56865 463.662 8.68608C464.16 9.8035 464.406 11.1577 464.401 12.7486C464.401 14.349 464.153 15.7173 463.655 16.8537C463.158 17.9901 462.45 18.8589 461.532 19.4602C460.618 20.0568 459.524 20.3551 458.251 20.3551ZM458.251 17.4787C459.008 17.4787 459.621 17.0928 460.09 16.321C460.559 15.5445 460.791 14.3537 460.786 12.7486C460.786 11.6974 460.68 10.831 460.466 10.1491C460.253 9.46259 459.957 8.95123 459.579 8.61506C459.2 8.27888 458.757 8.1108 458.251 8.1108C457.498 8.1108 456.889 8.49195 456.425 9.25426C455.961 10.0118 455.727 11.1766 455.722 12.7486C455.717 13.8139 455.819 14.697 456.028 15.3977C456.241 16.0985 456.539 16.6217 456.922 16.9673C457.306 17.3082 457.749 17.4787 458.251 17.4787ZM474.23 20.3551C472.961 20.3551 471.868 20.0545 470.949 19.4531C470.03 18.8471 469.323 17.9782 468.825 16.8466C468.328 15.7102 468.082 14.3442 468.087 12.7486C468.092 11.1529 468.34 9.79877 468.833 8.68608C469.33 7.56865 470.035 6.71875 470.949 6.13636C471.868 5.54924 472.961 5.25568 474.23 5.25568C475.499 5.25568 476.593 5.54924 477.512 6.13636C478.435 6.71875 479.145 7.56865 479.642 8.68608C480.139 9.8035 480.386 11.1577 480.381 12.7486C480.381 14.349 480.132 15.7173 479.635 16.8537C479.138 17.9901 478.43 18.8589 477.512 19.4602C476.598 20.0568 475.504 20.3551 474.23 20.3551ZM474.23 17.4787C474.988 17.4787 475.601 17.0928 476.07 16.321C476.538 15.5445 476.771 14.3537 476.766 12.7486C476.766 11.6974 476.659 10.831 476.446 10.1491C476.233 9.46259 475.937 8.95123 475.558 8.61506C475.18 8.27888 474.737 8.1108 474.23 8.1108C473.477 8.1108 472.869 8.49195 472.405 9.25426C471.941 10.0118 471.707 11.1766 471.702 12.7486C471.697 13.8139 471.799 14.697 472.007 15.3977C472.22 16.0985 472.519 16.6217 472.902 16.9673C473.286 17.3082 473.728 17.4787 474.23 17.4787ZM490.21 20.3551C488.941 20.3551 487.847 20.0545 486.929 19.4531C486.01 18.8471 485.302 17.9782 484.805 16.8466C484.308 15.7102 484.062 14.3442 484.066 12.7486C484.071 11.1529 484.32 9.79877 484.812 8.68608C485.309 7.56865 486.015 6.71875 486.929 6.13636C487.847 5.54924 488.941 5.25568 490.21 5.25568C491.479 5.25568 492.573 5.54924 493.491 6.13636C494.414 6.71875 495.125 7.56865 495.622 8.68608C496.119 9.8035 496.365 11.1577 496.361 12.7486C496.361 14.349 496.112 15.7173 495.615 16.8537C495.118 17.9901 494.41 18.8589 493.491 19.4602C492.577 20.0568 491.484 20.3551 490.21 20.3551ZM490.21 17.4787C490.968 17.4787 491.581 17.0928 492.049 16.321C492.518 15.5445 492.75 14.3537 492.745 12.7486C492.745 11.6974 492.639 10.831 492.426 10.1491C492.213 9.46259 491.917 8.95123 491.538 8.61506C491.159 8.27888 490.717 8.1108 490.21 8.1108C489.457 8.1108 488.849 8.49195 488.385 9.25426C487.921 10.0118 487.686 11.1766 487.682 12.7486C487.677 13.8139 487.779 14.697 487.987 15.3977C488.2 16.0985 488.498 16.6217 488.882 16.9673C489.265 17.3082 489.708 17.4787 490.21 17.4787ZM504.535 17.8977V7.61364H507.397V17.8977H504.535ZM500.82 14.1903V11.321H511.104V14.1903H500.82Z" fill="#F1C300"/>
</g>
<defs>
<clipPath id="clip0_21_12">
<rect width="513" height="57" fill="white"/>
</clipPath>
</defs>
</svg>
