<svg width="513" height="122" viewBox="0 0 513 122" fill="none" xmlns="http://www.w3.org/2000/svg">
<g clip-path="url(#clip0_21_12)">
<path d="M14.304 11.7244H10.7528C10.7055 11.3598 10.6084 11.0308 10.4616 10.7372C10.3149 10.4437 10.1207 10.1927 9.87926 9.98438C9.63778 9.77604 9.35133 9.61742 9.01989 9.50852C8.69318 9.39489 8.33097 9.33807 7.93324 9.33807C7.22775 9.33807 6.61932 9.51089 6.10795 9.85653C5.60133 10.2022 5.2107 10.7017 4.93608 11.3551C4.66619 12.0085 4.53125 12.7992 4.53125 13.7273C4.53125 14.6932 4.66856 15.5028 4.94318 16.1562C5.22254 16.8049 5.61316 17.295 6.11506 17.6264C6.62169 17.9531 7.22064 18.1165 7.91193 18.1165C8.30019 18.1165 8.65294 18.0668 8.97017 17.9673C9.29214 17.8679 9.57386 17.7235 9.81534 17.5341C10.0616 17.34 10.2628 17.1056 10.419 16.831C10.58 16.5516 10.6913 16.2367 10.7528 15.8864L14.304 15.9077C14.2424 16.5516 14.0554 17.1861 13.7429 17.8111C13.4351 18.4361 13.0114 19.0066 12.4716 19.5227C11.9318 20.0341 11.2737 20.4413 10.4972 20.7443C9.72538 21.0473 8.83996 21.1989 7.84091 21.1989C6.52462 21.1989 5.34564 20.91 4.30398 20.3324C3.26705 19.75 2.44792 18.9025 1.84659 17.7898C1.24527 16.6771 0.944602 15.3229 0.944602 13.7273C0.944602 12.1269 1.25 10.7704 1.8608 9.65767C2.47159 8.54498 3.29782 7.69981 4.33949 7.12216C5.38116 6.54451 6.5483 6.25568 7.84091 6.25568C8.72159 6.25568 9.53598 6.37879 10.2841 6.625C11.0322 6.86648 11.6903 7.22159 12.2585 7.69034C12.8267 8.15436 13.2884 8.72491 13.6435 9.40199C13.9986 10.0791 14.2188 10.8532 14.304 11.7244ZM18.3157 21V6.45455H21.8313V12.2926H27.5629V6.45455H31.0714V21H27.5629V15.1548H21.8313V21H18.3157ZM38.4229 21H34.6445L39.5522 6.45455H44.2326L49.1403 21H45.3619L41.9457 10.1193H41.832L38.4229 21ZM37.9187 15.2756H45.8164V17.946H37.9187V15.2756ZM50.4141 9.30966V6.45455H62.7081V9.30966H58.2976V21H54.8317V9.30966H50.4141Z" fill="white"/>
<path d="M72.7219 21V6.45455H76.2376V18.1449H82.2887V21H72.7219ZM89.6243 6.45455V21H86.1087V6.45455H89.6243ZM97.1339 6.45455L100.387 17.108H100.507L103.76 6.45455H107.695L102.787 21H98.1069L93.1992 6.45455H97.1339ZM111.261 21V6.45455H121.403V9.30966H114.777V12.2926H120.885V15.1548H114.777V18.1449H121.403V21H111.261Z" fill="#E4B800"/>
<path d="M201.545 4.45455V19H198.562L192.773 10.6051H192.681V19H189.165V4.45455H192.191L197.915 12.8352H198.036V4.45455H201.545ZM205.755 19V4.45455H215.897V7.30966H209.271V10.2926H215.379V13.1548H209.271V16.1449H215.897V19H205.755ZM227.961 8.81534C227.914 8.29451 227.703 7.88968 227.329 7.60085C226.96 7.30729 226.432 7.16051 225.745 7.16051C225.291 7.16051 224.912 7.2197 224.609 7.33807C224.306 7.45644 224.079 7.61979 223.927 7.82812C223.776 8.03172 223.697 8.2661 223.693 8.53125C223.683 8.74905 223.726 8.94081 223.82 9.10653C223.92 9.27225 224.062 9.41903 224.247 9.54688C224.436 9.66998 224.663 9.77888 224.928 9.87358C225.194 9.96828 225.492 10.0511 225.823 10.1222L227.073 10.4062C227.793 10.5625 228.427 10.7708 228.977 11.0312C229.531 11.2917 229.995 11.6018 230.369 11.9616C230.748 12.3215 231.034 12.7358 231.228 13.2045C231.422 13.6733 231.522 14.1989 231.526 14.7812C231.522 15.6998 231.29 16.4882 230.83 17.1463C230.371 17.8045 229.711 18.3087 228.849 18.6591C227.992 19.0095 226.957 19.1847 225.745 19.1847C224.528 19.1847 223.468 19.0024 222.563 18.6378C221.659 18.2732 220.956 17.7192 220.454 16.9759C219.952 16.2325 219.694 15.2926 219.68 14.1562H223.046C223.075 14.625 223.2 15.0156 223.423 15.3281C223.645 15.6406 223.951 15.8774 224.339 16.0384C224.732 16.1993 225.186 16.2798 225.703 16.2798C226.176 16.2798 226.579 16.2159 226.91 16.0881C227.246 15.9602 227.504 15.7827 227.684 15.5554C227.864 15.3281 227.956 15.0677 227.961 14.7741C227.956 14.4995 227.871 14.2652 227.705 14.071C227.54 13.8722 227.284 13.7017 226.938 13.5597C226.597 13.4129 226.162 13.2779 225.632 13.1548L224.112 12.7997C222.852 12.5109 221.86 12.0445 221.136 11.4006C220.411 10.7519 220.052 9.87595 220.056 8.77273C220.052 7.87311 220.293 7.08475 220.781 6.40767C221.268 5.73059 221.943 5.20265 222.805 4.82386C223.667 4.44508 224.649 4.25568 225.752 4.25568C226.879 4.25568 227.857 4.44744 228.686 4.83097C229.519 5.20975 230.165 5.74242 230.624 6.42898C231.084 7.11553 231.318 7.91098 231.328 8.81534H227.961ZM243.164 8.81534C243.117 8.29451 242.906 7.88968 242.532 7.60085C242.163 7.30729 241.635 7.16051 240.948 7.16051C240.494 7.16051 240.115 7.2197 239.812 7.33807C239.509 7.45644 239.282 7.61979 239.13 7.82812C238.979 8.03172 238.901 8.2661 238.896 8.53125C238.886 8.74905 238.929 8.94081 239.024 9.10653C239.123 9.27225 239.265 9.41903 239.45 9.54688C239.639 9.66998 239.866 9.77888 240.132 9.87358C240.397 9.96828 240.695 10.0511 241.026 10.1222L242.276 10.4062C242.996 10.5625 243.631 10.7708 244.18 11.0312C244.734 11.2917 245.198 11.6018 245.572 11.9616C245.951 12.3215 246.237 12.7358 246.431 13.2045C246.625 13.6733 246.725 14.1989 246.73 14.7812C246.725 15.6998 246.493 16.4882 246.034 17.1463C245.574 17.8045 244.914 18.3087 244.052 18.6591C243.195 19.0095 242.16 19.1847 240.948 19.1847C239.731 19.1847 238.671 19.0024 237.767 18.6378C236.862 18.2732 236.159 17.7192 235.657 16.9759C235.155 16.2325 234.897 15.2926 234.883 14.1562H238.249C238.278 14.625 238.403 15.0156 238.626 15.3281C238.848 15.6406 239.154 15.8774 239.542 16.0384C239.935 16.1993 240.39 16.2798 240.906 16.2798C241.379 16.2798 241.782 16.2159 242.113 16.0881C242.449 15.9602 242.707 15.7827 242.887 15.5554C243.067 15.3281 243.16 15.0677 243.164 14.7741C243.16 14.4995 243.074 14.2652 242.909 14.071C242.743 13.8722 242.487 13.7017 242.142 13.5597C241.801 13.4129 241.365 13.2779 240.835 13.1548L239.315 12.7997C238.055 12.5109 237.063 12.0445 236.339 11.4006C235.615 10.7519 235.255 9.87595 235.259 8.77273C235.255 7.87311 235.496 7.08475 235.984 6.40767C236.472 5.73059 237.146 5.20265 238.008 4.82386C238.87 4.44508 239.852 4.25568 240.955 4.25568C242.082 4.25568 243.06 4.44744 243.889 4.83097C244.722 5.20975 245.368 5.74242 245.828 6.42898C246.287 7.11553 246.521 7.91098 246.531 8.81534H243.164ZM259.305 4.45455H262.813V13.8366C262.813 14.9209 262.555 15.8655 262.039 16.6705C261.523 17.4706 260.803 18.0909 259.88 18.5312C258.957 18.9669 257.884 19.1847 256.663 19.1847C255.427 19.1847 254.347 18.9669 253.424 18.5312C252.501 18.0909 251.784 17.4706 251.272 16.6705C250.761 15.8655 250.505 14.9209 250.505 13.8366V4.45455H254.021V13.5312C254.021 14.0331 254.13 14.4806 254.347 14.8736C254.57 15.2666 254.88 15.5743 255.278 15.7969C255.676 16.0194 256.137 16.1307 256.663 16.1307C257.188 16.1307 257.648 16.0194 258.041 15.7969C258.438 15.5743 258.749 15.2666 258.971 14.8736C259.194 14.4806 259.305 14.0331 259.305 13.5312V4.45455ZM279.396 4.45455V19H276.413L270.625 10.6051H270.532V19H267.017V4.45455H270.042L275.767 12.8352H275.888V4.45455H279.396ZM286.753 19H282.975L287.882 4.45455H292.563L297.47 19H293.692L290.276 8.11932H290.162L286.753 19ZM286.249 13.2756H294.146V15.946H286.249V13.2756ZM191.765 36.1442C190.96 36.1442 190.269 35.9785 189.692 35.647C189.119 35.3156 188.678 34.8549 188.37 34.2649C188.061 33.6716 187.907 32.9856 187.907 32.2067C187.907 31.4245 188.061 30.7384 188.37 30.1484C188.681 29.5552 189.124 29.0928 189.697 28.7614C190.274 28.4299 190.961 28.2642 191.76 28.2642C192.466 28.2642 193.081 28.3918 193.605 28.647C194.132 28.9022 194.543 29.2635 194.838 29.7308C195.136 30.1948 195.293 30.7401 195.31 31.3665H193.038C192.991 30.9754 192.859 30.6688 192.64 30.4467C192.425 30.2247 192.143 30.1136 191.795 30.1136C191.513 30.1136 191.266 30.1932 191.054 30.3523C190.842 30.508 190.676 30.7401 190.557 31.0483C190.441 31.3532 190.383 31.7311 190.383 32.1818C190.383 32.6326 190.441 33.0137 190.557 33.3253C190.676 33.6335 190.842 33.8672 191.054 34.0263C191.266 34.1821 191.513 34.2599 191.795 34.2599C192.02 34.2599 192.219 34.2119 192.392 34.1158C192.567 34.0196 192.711 33.8788 192.824 33.6932C192.937 33.5043 193.008 33.2756 193.038 33.0071H195.31C195.287 33.6368 195.129 34.187 194.838 34.6577C194.549 35.1283 194.143 35.4946 193.62 35.7564C193.099 36.0149 192.481 36.1442 191.765 36.1442ZM201.519 36.1442C200.717 36.1442 200.027 35.9801 199.45 35.652C198.877 35.3205 198.435 34.8598 198.123 34.2699C197.815 33.6766 197.661 32.9889 197.661 32.2067C197.661 31.4212 197.815 30.7334 198.123 30.1435C198.435 29.5502 198.877 29.0895 199.45 28.7614C200.027 28.4299 200.717 28.2642 201.519 28.2642C202.321 28.2642 203.008 28.4299 203.582 28.7614C204.159 29.0895 204.601 29.5502 204.909 30.1435C205.221 30.7334 205.377 31.4212 205.377 32.2067C205.377 32.9889 205.221 33.6766 204.909 34.2699C204.601 34.8598 204.159 35.3205 203.582 35.652C203.008 35.9801 202.321 36.1442 201.519 36.1442ZM201.534 34.3097C201.825 34.3097 202.072 34.2202 202.274 34.0412C202.476 33.8622 202.631 33.6136 202.737 33.2955C202.846 32.9773 202.901 32.6094 202.901 32.1918C202.901 31.7675 202.846 31.3963 202.737 31.0781C202.631 30.7599 202.476 30.5114 202.274 30.3324C202.072 30.1534 201.825 30.0639 201.534 30.0639C201.232 30.0639 200.977 30.1534 200.768 30.3324C200.562 30.5114 200.405 30.7599 200.296 31.0781C200.19 31.3963 200.137 31.7675 200.137 32.1918C200.137 32.6094 200.19 32.9773 200.296 33.2955C200.405 33.6136 200.562 33.8622 200.768 34.0412C200.977 34.2202 201.232 34.3097 201.534 34.3097ZM208.022 36V28.3636H210.334V29.7656H210.418C210.577 29.3016 210.846 28.9354 211.224 28.6669C211.602 28.3984 212.052 28.2642 212.576 28.2642C213.106 28.2642 213.56 28.4001 213.938 28.6719C214.316 28.9437 214.556 29.3082 214.659 29.7656H214.739C214.881 29.3116 215.16 28.9486 215.574 28.6768C215.988 28.4018 216.477 28.2642 217.04 28.2642C217.763 28.2642 218.35 28.4962 218.8 28.9602C219.251 29.4209 219.477 30.054 219.477 30.8594V36H217.045V31.4162C217.045 31.035 216.948 30.745 216.752 30.5462C216.557 30.344 216.303 30.2429 215.991 30.2429C215.657 30.2429 215.393 30.3523 215.201 30.571C215.012 30.7865 214.918 31.0765 214.918 31.4411V36H212.581V31.3913C212.581 31.0367 212.485 30.7566 212.293 30.5511C212.1 30.3456 211.847 30.2429 211.532 30.2429C211.32 30.2429 211.133 30.2943 210.97 30.397C210.808 30.4964 210.68 30.639 210.587 30.8246C210.498 31.0102 210.453 31.2289 210.453 31.4808V36H208.022ZM222.383 36V28.3636H224.695V29.7656H224.779C224.938 29.3016 225.207 28.9354 225.585 28.6669C225.962 28.3984 226.413 28.2642 226.937 28.2642C227.467 28.2642 227.921 28.4001 228.299 28.6719C228.677 28.9437 228.917 29.3082 229.02 29.7656H229.1C229.242 29.3116 229.52 28.9486 229.935 28.6768C230.349 28.4018 230.838 28.2642 231.401 28.2642C232.124 28.2642 232.711 28.4962 233.161 28.9602C233.612 29.4209 233.837 30.054 233.837 30.8594V36H231.406V31.4162C231.406 31.035 231.309 30.745 231.113 30.5462C230.917 30.344 230.664 30.2429 230.352 30.2429C230.018 30.2429 229.754 30.3523 229.562 30.571C229.373 30.7865 229.278 31.0765 229.278 31.4411V36H226.942V31.3913C226.942 31.0367 226.846 30.7566 226.653 30.5511C226.461 30.3456 226.208 30.2429 225.893 30.2429C225.681 30.2429 225.493 30.2943 225.331 30.397C225.169 30.4964 225.041 30.639 224.948 30.8246C224.859 31.0102 224.814 31.2289 224.814 31.4808V36H222.383ZM236.744 36V28.3636H239.175V36H236.744ZM237.962 27.4737C237.62 27.4737 237.327 27.361 237.082 27.1357C236.837 26.907 236.714 26.6319 236.714 26.3104C236.714 25.9922 236.837 25.7204 237.082 25.495C237.327 25.2663 237.62 25.152 237.962 25.152C238.307 25.152 238.6 25.2663 238.842 25.495C239.087 25.7204 239.21 25.9922 239.21 26.3104C239.21 26.6319 239.087 26.907 238.842 27.1357C238.6 27.361 238.307 27.4737 237.962 27.4737ZM248.789 30.6953L246.557 30.755C246.534 30.5959 246.471 30.455 246.368 30.3324C246.265 30.2064 246.131 30.1087 245.965 30.0391C245.803 29.9661 245.614 29.9297 245.399 29.9297C245.117 29.9297 244.877 29.986 244.678 30.0987C244.482 30.2114 244.386 30.3639 244.389 30.5561C244.386 30.7053 244.446 30.8345 244.568 30.9439C244.694 31.0533 244.918 31.1411 245.24 31.2074L246.711 31.4858C247.473 31.6316 248.04 31.8736 248.411 32.2116C248.786 32.5497 248.975 32.9972 248.978 33.554C248.975 34.0777 248.819 34.5334 248.511 34.9212C248.206 35.3089 247.788 35.6106 247.258 35.826C246.728 36.0381 246.121 36.1442 245.438 36.1442C244.348 36.1442 243.488 35.9205 242.858 35.473C242.232 35.0223 241.874 34.419 241.784 33.6634L244.186 33.6037C244.239 33.8821 244.376 34.0942 244.598 34.2401C244.82 34.3859 245.104 34.4588 245.448 34.4588C245.76 34.4588 246.013 34.4008 246.209 34.2848C246.405 34.1688 246.504 34.0147 246.507 33.8224C246.504 33.6501 246.428 33.5125 246.279 33.4098C246.129 33.3037 245.896 33.2209 245.578 33.1612L244.245 32.9077C243.48 32.7685 242.91 32.5116 242.535 32.1371C242.16 31.7592 241.975 31.2786 241.978 30.6953C241.975 30.1849 242.111 29.7491 242.386 29.3878C242.661 29.0232 243.052 28.7448 243.559 28.5526C244.066 28.3603 244.664 28.2642 245.354 28.2642C246.388 28.2642 247.203 28.4813 247.8 28.9155C248.397 29.3464 248.726 29.9396 248.789 30.6953ZM258.242 30.6953L256.01 30.755C255.987 30.5959 255.924 30.455 255.821 30.3324C255.718 30.2064 255.584 30.1087 255.418 30.0391C255.256 29.9661 255.067 29.9297 254.851 29.9297C254.57 29.9297 254.329 29.986 254.13 30.0987C253.935 30.2114 253.839 30.3639 253.842 30.5561C253.839 30.7053 253.898 30.8345 254.021 30.9439C254.147 31.0533 254.371 31.1411 254.692 31.2074L256.164 31.4858C256.926 31.6316 257.493 31.8736 257.864 32.2116C258.239 32.5497 258.428 32.9972 258.431 33.554C258.428 34.0777 258.272 34.5334 257.964 34.9212C257.659 35.3089 257.241 35.6106 256.711 35.826C256.18 36.0381 255.574 36.1442 254.891 36.1442C253.801 36.1442 252.941 35.9205 252.311 35.473C251.684 35.0223 251.327 34.419 251.237 33.6634L253.638 33.6037C253.691 33.8821 253.829 34.0942 254.051 34.2401C254.273 34.3859 254.556 34.4588 254.901 34.4588C255.213 34.4588 255.466 34.4008 255.662 34.2848C255.857 34.1688 255.957 34.0147 255.96 33.8224C255.957 33.6501 255.88 33.5125 255.731 33.4098C255.582 33.3037 255.349 33.2209 255.03 33.1612L253.698 32.9077C252.932 32.7685 252.362 32.5116 251.988 32.1371C251.613 31.7592 251.428 31.2786 251.431 30.6953C251.428 30.1849 251.563 29.7491 251.839 29.3878C252.114 29.0232 252.505 28.7448 253.012 28.5526C253.519 28.3603 254.117 28.2642 254.807 28.2642C255.841 28.2642 256.656 28.4813 257.253 28.9155C257.849 29.3464 258.179 29.9396 258.242 30.6953ZM261.028 36V28.3636H263.459V36H261.028ZM262.246 27.4737C261.904 27.4737 261.611 27.361 261.366 27.1357C261.121 26.907 260.998 26.6319 260.998 26.3104C260.998 25.9922 261.121 25.7204 261.366 25.495C261.611 25.2663 261.904 25.152 262.246 25.152C262.591 25.152 262.884 25.2663 263.126 25.495C263.371 25.7204 263.494 25.9922 263.494 26.3104C263.494 26.6319 263.371 26.907 263.126 27.1357C262.884 27.361 262.591 27.4737 262.246 27.4737ZM269.971 36.1442C269.169 36.1442 268.479 35.9801 267.903 35.652C267.329 35.3205 266.887 34.8598 266.575 34.2699C266.267 33.6766 266.113 32.9889 266.113 32.2067C266.113 31.4212 266.267 30.7334 266.575 30.1435C266.887 29.5502 267.329 29.0895 267.903 28.7614C268.479 28.4299 269.169 28.2642 269.971 28.2642C270.773 28.2642 271.461 28.4299 272.034 28.7614C272.611 29.0895 273.053 29.5502 273.362 30.1435C273.673 30.7334 273.829 31.4212 273.829 32.2067C273.829 32.9889 273.673 33.6766 273.362 34.2699C273.053 34.8598 272.611 35.3205 272.034 35.652C271.461 35.9801 270.773 36.1442 269.971 36.1442ZM269.986 34.3097C270.278 34.3097 270.524 34.2202 270.727 34.0412C270.929 33.8622 271.083 33.6136 271.189 33.2955C271.298 32.9773 271.353 32.6094 271.353 32.1918C271.353 31.7675 271.298 31.3963 271.189 31.0781C271.083 30.7599 270.929 30.5114 270.727 30.3324C270.524 30.1534 270.278 30.0639 269.986 30.0639C269.684 30.0639 269.429 30.1534 269.22 30.3324C269.015 30.5114 268.857 30.7599 268.748 31.0781C268.642 31.3963 268.589 31.7675 268.589 32.1918C268.589 32.6094 268.642 32.9773 268.748 33.2955C268.857 33.6136 269.015 33.8622 269.22 34.0412C269.429 34.2202 269.684 34.3097 269.986 34.3097ZM278.905 31.6449V36H276.474V28.3636H278.786V29.7656H278.871C279.04 29.2983 279.328 28.9321 279.736 28.6669C280.143 28.3984 280.629 28.2642 281.192 28.2642C281.729 28.2642 282.195 28.3852 282.589 28.6271C282.987 28.8658 283.295 29.2005 283.514 29.6314C283.736 30.0589 283.846 30.5594 283.842 31.1328V36H281.411V31.6101C281.414 31.1858 281.307 30.8544 281.088 30.6158C280.873 30.3771 280.573 30.2578 280.188 30.2578C279.933 30.2578 279.707 30.3142 279.512 30.4268C279.32 30.5362 279.171 30.6937 279.065 30.8991C278.962 31.1046 278.909 31.3532 278.905 31.6449ZM290.317 36.1442C289.518 36.1442 288.829 35.9867 288.249 35.6719C287.672 35.3537 287.228 34.9013 286.916 34.3146C286.608 33.7247 286.454 33.0237 286.454 32.2116C286.454 31.4228 286.61 30.7334 286.921 30.1435C287.233 29.5502 287.672 29.0895 288.239 28.7614C288.806 28.4299 289.473 28.2642 290.242 28.2642C290.786 28.2642 291.283 28.3487 291.734 28.5178C292.185 28.6868 292.574 28.937 292.902 29.2685C293.23 29.5999 293.486 30.0092 293.668 30.4964C293.85 30.9804 293.941 31.5355 293.941 32.1619V32.7685H287.304V31.3565H291.679C291.676 31.098 291.615 30.8677 291.495 30.6655C291.376 30.4633 291.212 30.3059 291.003 30.1932C290.798 30.0772 290.561 30.0192 290.292 30.0192C290.02 30.0192 289.777 30.0805 289.561 30.2031C289.346 30.3224 289.175 30.4865 289.049 30.6953C288.923 30.9008 288.857 31.1345 288.85 31.3963V32.8331C288.85 33.1446 288.912 33.4181 289.034 33.6534C289.157 33.8854 289.331 34.0661 289.556 34.1953C289.782 34.3246 290.05 34.3892 290.362 34.3892C290.577 34.3892 290.773 34.3594 290.948 34.2997C291.124 34.2401 291.275 34.1522 291.401 34.0362C291.527 33.9202 291.621 33.7777 291.684 33.6087L293.916 33.6733C293.824 34.1738 293.62 34.6096 293.305 34.9808C292.993 35.3487 292.584 35.6354 292.077 35.8409C291.57 36.0431 290.983 36.1442 290.317 36.1442ZM299.442 25.8182L299.213 32.8828H297.17L296.941 25.8182H299.442ZM298.189 36.1442C297.834 36.1442 297.529 36.0182 297.274 35.7663C297.022 35.5144 296.896 35.2095 296.896 34.8516C296.896 34.5002 297.022 34.2003 297.274 33.9517C297.529 33.6998 297.834 33.5739 298.189 33.5739C298.53 33.5739 298.83 33.6998 299.089 33.9517C299.35 34.2003 299.481 34.5002 299.481 34.8516C299.481 35.0902 299.42 35.3073 299.297 35.5028C299.178 35.6984 299.021 35.8542 298.825 35.9702C298.633 36.0862 298.421 36.1442 298.189 36.1442Z" fill="white"/>
<path d="M35.5057 55V53.7216L40.3068 48.4659C40.8703 47.8504 41.3343 47.3153 41.6989 46.8608C42.0634 46.4015 42.3333 45.9706 42.5085 45.5682C42.6884 45.161 42.7784 44.7348 42.7784 44.2898C42.7784 43.7784 42.6553 43.3357 42.4091 42.9616C42.1676 42.5876 41.8362 42.2988 41.4148 42.0952C40.9934 41.8916 40.5199 41.7898 39.9943 41.7898C39.4356 41.7898 38.9479 41.9058 38.5312 42.1378C38.1193 42.3651 37.7997 42.6847 37.5724 43.0966C37.3499 43.5085 37.2386 43.9915 37.2386 44.5455H35.5625C35.5625 43.6932 35.759 42.9451 36.152 42.3011C36.545 41.6572 37.08 41.1553 37.7571 40.7955C38.4389 40.4356 39.2036 40.2557 40.0511 40.2557C40.9034 40.2557 41.6586 40.4356 42.3168 40.7955C42.9749 41.1553 43.491 41.6406 43.8651 42.2514C44.2391 42.8622 44.4261 43.5417 44.4261 44.2898C44.4261 44.8248 44.3291 45.348 44.1349 45.8594C43.9455 46.366 43.6141 46.9318 43.1406 47.5568C42.6719 48.1771 42.0208 48.9347 41.1875 49.8295L37.9205 53.3239V53.4375H44.6818V55H35.5057ZM48.9616 52.017V50.5682L55.3537 40.4545H56.4048V42.6989H55.6946L50.8651 50.3409V50.4545H59.473V52.017H48.9616ZM55.8082 55V51.5767V50.902V40.4545H57.4844V55H55.8082ZM69.305 39.7727L64.6175 57.1875H63.0835L67.771 39.7727H69.305ZM73.718 55L80.2237 42.1307V42.017H72.7237V40.4545H82.0419V42.1023L75.5646 55H73.718Z" fill="white"/>
<path d="M194.562 68H190.972V56.3636H194.722C195.85 56.3636 196.816 56.5966 197.619 57.0625C198.422 57.5246 199.038 58.1894 199.466 59.0568C199.894 59.9205 200.108 60.9545 200.108 62.1591C200.108 63.3712 199.892 64.4148 199.46 65.2898C199.028 66.161 198.4 66.8314 197.574 67.3011C196.748 67.767 195.744 68 194.562 68ZM192.381 66.75H194.472C195.434 66.75 196.231 66.5644 196.864 66.1932C197.496 65.822 197.968 65.2936 198.278 64.608C198.589 63.9223 198.744 63.1061 198.744 62.1591C198.744 61.2197 198.591 60.411 198.284 59.733C197.977 59.0511 197.519 58.5284 196.909 58.1648C196.299 57.7973 195.54 57.6136 194.631 57.6136H192.381V66.75ZM204.072 68V56.3636H211.094V57.6136H205.481V61.5455H210.731V62.7955H205.481V66.75H211.185V68H204.072ZM215.234 68V56.3636H219.166C220.079 56.3636 220.825 56.5284 221.405 56.858C221.988 57.1837 222.42 57.625 222.7 58.1818C222.98 58.7386 223.12 59.3598 223.12 60.0455C223.12 60.7311 222.98 61.3542 222.7 61.9148C222.423 62.4754 221.995 62.9223 221.416 63.2557C220.836 63.5852 220.094 63.75 219.189 63.75H216.37V62.5H219.143C219.768 62.5 220.27 62.392 220.649 62.1761C221.028 61.9602 221.302 61.6686 221.473 61.3011C221.647 60.9299 221.734 60.5114 221.734 60.0455C221.734 59.5795 221.647 59.1629 221.473 58.7955C221.302 58.428 221.026 58.1402 220.643 57.9318C220.261 57.7197 219.753 57.6136 219.12 57.6136H216.643V68H215.234ZM236.809 62.1818C236.809 63.4091 236.587 64.4697 236.144 65.3636C235.701 66.2576 235.093 66.947 234.32 67.4318C233.547 67.9167 232.665 68.1591 231.672 68.1591C230.68 68.1591 229.797 67.9167 229.024 67.4318C228.252 66.947 227.644 66.2576 227.201 65.3636C226.757 64.4697 226.536 63.4091 226.536 62.1818C226.536 60.9545 226.757 59.8939 227.201 59C227.644 58.1061 228.252 57.4167 229.024 56.9318C229.797 56.447 230.68 56.2045 231.672 56.2045C232.665 56.2045 233.547 56.447 234.32 56.9318C235.093 57.4167 235.701 58.1061 236.144 59C236.587 59.8939 236.809 60.9545 236.809 62.1818ZM235.445 62.1818C235.445 61.1742 235.276 60.3239 234.939 59.6307C234.606 58.9375 234.153 58.4129 233.581 58.0568C233.013 57.7008 232.377 57.5227 231.672 57.5227C230.968 57.5227 230.329 57.7008 229.757 58.0568C229.189 58.4129 228.737 58.9375 228.399 59.6307C228.066 60.3239 227.899 61.1742 227.899 62.1818C227.899 63.1894 228.066 64.0398 228.399 64.733C228.737 65.4261 229.189 65.9508 229.757 66.3068C230.329 66.6629 230.968 66.8409 231.672 66.8409C232.377 66.8409 233.013 66.6629 233.581 66.3068C234.153 65.9508 234.606 65.4261 234.939 64.733C235.276 64.0398 235.445 63.1894 235.445 62.1818ZM247.141 59.2727C247.073 58.697 246.797 58.25 246.312 57.9318C245.827 57.6136 245.232 57.4545 244.528 57.4545C244.013 57.4545 243.562 57.5379 243.176 57.7045C242.793 57.8712 242.494 58.1004 242.278 58.392C242.066 58.6837 241.96 59.0152 241.96 59.3864C241.96 59.697 242.034 59.964 242.181 60.1875C242.333 60.4072 242.526 60.5909 242.761 60.7386C242.996 60.8826 243.242 61.0019 243.499 61.0966C243.757 61.1875 243.994 61.2614 244.21 61.3182L245.391 61.6364C245.695 61.7159 246.032 61.8258 246.403 61.9659C246.778 62.1061 247.136 62.2973 247.477 62.5398C247.821 62.7784 248.105 63.0852 248.329 63.4602C248.552 63.8352 248.664 64.2955 248.664 64.8409C248.664 65.4697 248.499 66.0379 248.17 66.5455C247.844 67.053 247.367 67.4564 246.738 67.7557C246.113 68.0549 245.354 68.2045 244.46 68.2045C243.626 68.2045 242.905 68.0701 242.295 67.8011C241.689 67.5322 241.212 67.1572 240.863 66.6761C240.518 66.1951 240.323 65.6364 240.278 65H241.732C241.77 65.4394 241.918 65.803 242.176 66.0909C242.437 66.375 242.766 66.5871 243.164 66.7273C243.566 66.8636 243.998 66.9318 244.46 66.9318C244.998 66.9318 245.48 66.8447 245.909 66.6705C246.337 66.4924 246.676 66.2462 246.926 65.9318C247.176 65.6136 247.301 65.2424 247.301 64.8182C247.301 64.4318 247.193 64.1174 246.977 63.875C246.761 63.6326 246.477 63.4356 246.124 63.2841C245.772 63.1326 245.391 63 244.982 62.8864L243.551 62.4773C242.641 62.2159 241.922 61.8428 241.391 61.358C240.861 60.8731 240.596 60.2386 240.596 59.4545C240.596 58.803 240.772 58.2348 241.124 57.75C241.48 57.2614 241.958 56.8826 242.556 56.6136C243.159 56.3409 243.831 56.2045 244.573 56.2045C245.323 56.2045 245.99 56.339 246.573 56.608C247.157 56.8731 247.619 57.2367 247.96 57.6989C248.304 58.161 248.486 58.6856 248.505 59.2727H247.141ZM253.99 56.3636V68H252.581V56.3636H253.99ZM257.779 57.6136V56.3636H266.506V57.6136H262.847V68H261.438V57.6136H257.779ZM279.615 62.1818C279.615 63.4091 279.393 64.4697 278.95 65.3636C278.507 66.2576 277.899 66.947 277.126 67.4318C276.353 67.9167 275.471 68.1591 274.478 68.1591C273.486 68.1591 272.603 67.9167 271.831 67.4318C271.058 66.947 270.45 66.2576 270.007 65.3636C269.564 64.4697 269.342 63.4091 269.342 62.1818C269.342 60.9545 269.564 59.8939 270.007 59C270.45 58.1061 271.058 57.4167 271.831 56.9318C272.603 56.447 273.486 56.2045 274.478 56.2045C275.471 56.2045 276.353 56.447 277.126 56.9318C277.899 57.4167 278.507 58.1061 278.95 59C279.393 59.8939 279.615 60.9545 279.615 62.1818ZM278.251 62.1818C278.251 61.1742 278.083 60.3239 277.745 59.6307C277.412 58.9375 276.959 58.4129 276.387 58.0568C275.819 57.7008 275.183 57.5227 274.478 57.5227C273.774 57.5227 273.136 57.7008 272.564 58.0568C271.995 58.4129 271.543 58.9375 271.206 59.6307C270.872 60.3239 270.706 61.1742 270.706 62.1818C270.706 63.1894 270.872 64.0398 271.206 64.733C271.543 65.4261 271.995 65.9508 272.564 66.3068C273.136 66.6629 273.774 66.8409 274.478 66.8409C275.183 66.8409 275.819 66.6629 276.387 66.3068C276.959 65.9508 277.412 65.4261 277.745 64.733C278.083 64.0398 278.251 63.1894 278.251 62.1818ZM289.684 68V56.3636H296.707V57.6136H291.093V61.5455H296.343V62.7955H291.093V66.75H296.798V68H289.684ZM202.708 87V75.3636H206.639C207.552 75.3636 208.298 75.5284 208.878 75.858C209.461 76.1837 209.893 76.625 210.173 77.1818C210.454 77.7386 210.594 78.3598 210.594 79.0455C210.594 79.7311 210.454 80.3542 210.173 80.9148C209.897 81.4754 209.469 81.9223 208.889 82.2557C208.31 82.5852 207.567 82.75 206.662 82.75H203.844V81.5H206.617C207.242 81.5 207.744 81.392 208.122 81.1761C208.501 80.9602 208.776 80.6686 208.946 80.3011C209.12 79.9299 209.208 79.5114 209.208 79.0455C209.208 78.5795 209.12 78.1629 208.946 77.7955C208.776 77.428 208.499 77.1402 208.117 76.9318C207.734 76.7197 207.226 76.6136 206.594 76.6136H204.117V87H202.708ZM214.464 87V75.3636H218.396C219.305 75.3636 220.051 75.5189 220.634 75.8295C221.218 76.1364 221.649 76.5587 221.93 77.0966C222.21 77.6345 222.35 78.2462 222.35 78.9318C222.35 79.6174 222.21 80.2254 221.93 80.7557C221.649 81.286 221.219 81.7027 220.64 82.0057C220.06 82.3049 219.32 82.4545 218.418 82.4545H215.237V81.1818H218.373C218.994 81.1818 219.494 81.0909 219.873 80.9091C220.255 80.7273 220.532 80.4697 220.702 80.1364C220.877 79.7992 220.964 79.3977 220.964 78.9318C220.964 78.4659 220.877 78.0587 220.702 77.7102C220.528 77.3617 220.25 77.0928 219.867 76.9034C219.485 76.7102 218.979 76.6136 218.35 76.6136H215.873V87H214.464ZM219.941 81.7727L222.805 87H221.168L218.35 81.7727H219.941ZM226.298 87V75.3636H233.321V76.6136H227.707V80.5455H232.957V81.7955H227.707V85.75H233.412V87H226.298ZM237.461 87V75.3636H238.87V85.75H244.279V87H237.461ZM249.47 75.3636V87H248.061V75.3636H249.47ZM253.895 87V75.3636H260.918V76.6136H255.304V80.5455H260.554V81.7955H255.304V85.75H261.009V87H253.895ZM265.535 75.3636L268.989 85.1591H269.126L272.58 75.3636H274.058L269.785 87H268.33L264.058 75.3636H265.535ZM286.741 81.1818C286.741 82.4091 286.52 83.4697 286.077 84.3636C285.633 85.2576 285.025 85.947 284.253 86.4318C283.48 86.9167 282.597 87.1591 281.605 87.1591C280.613 87.1591 279.73 86.9167 278.957 86.4318C278.185 85.947 277.577 85.2576 277.133 84.3636C276.69 83.4697 276.469 82.4091 276.469 81.1818C276.469 79.9545 276.69 78.8939 277.133 78C277.577 77.1061 278.185 76.4167 278.957 75.9318C279.73 75.447 280.613 75.2045 281.605 75.2045C282.597 75.2045 283.48 75.447 284.253 75.9318C285.025 76.4167 285.633 77.1061 286.077 78C286.52 78.8939 286.741 79.9545 286.741 81.1818ZM285.378 81.1818C285.378 80.1742 285.209 79.3239 284.872 78.6307C284.539 77.9375 284.086 77.4129 283.514 77.0568C282.946 76.7008 282.31 76.5227 281.605 76.5227C280.9 76.5227 280.262 76.7008 279.69 77.0568C279.122 77.4129 278.669 77.9375 278.332 78.6307C277.999 79.3239 277.832 80.1742 277.832 81.1818C277.832 82.1894 277.999 83.0398 278.332 83.733C278.669 84.4261 279.122 84.9508 279.69 85.3068C280.262 85.6629 280.9 85.8409 281.605 85.8409C282.31 85.8409 282.946 85.6629 283.514 85.3068C284.086 84.9508 284.539 84.4261 284.872 83.733C285.209 83.0398 285.378 82.1894 285.378 81.1818Z" fill="white"/>
<path d="M411.185 50C411.029 49.5218 410.823 49.0933 410.567 48.7145C410.316 48.331 410.016 48.0043 409.665 47.7344C409.319 47.4645 408.926 47.2585 408.486 47.1165C408.046 46.9744 407.563 46.9034 407.037 46.9034C406.176 46.9034 405.392 47.1259 404.686 47.571C403.981 48.0161 403.42 48.6719 403.003 49.5384C402.587 50.4048 402.378 51.4678 402.378 52.7273C402.378 53.9867 402.589 55.0497 403.01 55.9162C403.432 56.7827 404.002 57.4384 404.722 57.8835C405.442 58.3286 406.251 58.5511 407.151 58.5511C407.984 58.5511 408.718 58.3736 409.353 58.0185C409.992 57.6586 410.489 57.152 410.844 56.4986C411.204 55.8404 411.384 55.0663 411.384 54.1761L411.924 54.2898H407.549V52.7273H413.088V54.2898C413.088 55.4877 412.833 56.5294 412.321 57.4148C411.815 58.3002 411.114 58.9867 410.219 59.4744C409.329 59.9574 408.306 60.1989 407.151 60.1989C405.863 60.1989 404.731 59.8958 403.756 59.2898C402.785 58.6837 402.028 57.822 401.483 56.7045C400.944 55.5871 400.674 54.2614 400.674 52.7273C400.674 51.5767 400.828 50.5421 401.135 49.6236C401.448 48.7003 401.888 47.9143 402.456 47.2656C403.025 46.617 403.697 46.1198 404.473 45.7741C405.25 45.4285 406.105 45.2557 407.037 45.2557C407.804 45.2557 408.519 45.3717 409.182 45.6037C409.85 45.831 410.444 46.1553 410.965 46.5767C411.49 46.9934 411.928 47.4929 412.279 48.0753C412.629 48.6529 412.871 49.2945 413.003 50H411.185ZM417.866 45.4545V60H416.105V45.4545H417.866ZM433.671 52.7273C433.671 54.2614 433.394 55.5871 432.84 56.7045C432.286 57.822 431.526 58.6837 430.56 59.2898C429.594 59.8958 428.491 60.1989 427.25 60.1989C426.01 60.1989 424.907 59.8958 423.941 59.2898C422.975 58.6837 422.215 57.822 421.661 56.7045C421.107 55.5871 420.83 54.2614 420.83 52.7273C420.83 51.1932 421.107 49.8674 421.661 48.75C422.215 47.6326 422.975 46.7708 423.941 46.1648C424.907 45.5587 426.01 45.2557 427.25 45.2557C428.491 45.2557 429.594 45.5587 430.56 46.1648C431.526 46.7708 432.286 47.6326 432.84 48.75C433.394 49.8674 433.671 51.1932 433.671 52.7273ZM431.966 52.7273C431.966 51.4678 431.756 50.4048 431.334 49.5384C430.917 48.6719 430.352 48.0161 429.637 47.571C428.926 47.1259 428.131 46.9034 427.25 46.9034C426.37 46.9034 425.572 47.1259 424.857 47.571C424.147 48.0161 423.581 48.6719 423.159 49.5384C422.743 50.4048 422.534 51.4678 422.534 52.7273C422.534 53.9867 422.743 55.0497 423.159 55.9162C423.581 56.7827 424.147 57.4384 424.857 57.8835C425.572 58.3286 426.37 58.5511 427.25 58.5511C428.131 58.5511 428.926 58.3286 429.637 57.8835C430.352 57.4384 430.917 56.7827 431.334 55.9162C431.756 55.0497 431.966 53.9867 431.966 52.7273ZM448.337 50H446.576C446.471 49.4934 446.289 49.0483 446.029 48.6648C445.773 48.2812 445.461 47.9593 445.091 47.6989C444.727 47.4337 444.322 47.2348 443.877 47.1023C443.432 46.9697 442.968 46.9034 442.485 46.9034C441.604 46.9034 440.806 47.1259 440.091 47.571C439.381 48.0161 438.815 48.6719 438.394 49.5384C437.977 50.4048 437.769 51.4678 437.769 52.7273C437.769 53.9867 437.977 55.0497 438.394 55.9162C438.815 56.7827 439.381 57.4384 440.091 57.8835C440.806 58.3286 441.604 58.5511 442.485 58.5511C442.968 58.5511 443.432 58.4848 443.877 58.3523C444.322 58.2197 444.727 58.0232 445.091 57.7628C445.461 57.4976 445.773 57.1733 446.029 56.7898C446.289 56.4015 446.471 55.9564 446.576 55.4545H448.337C448.204 56.1979 447.963 56.8632 447.613 57.4503C447.262 58.0374 446.827 58.5369 446.306 58.9489C445.785 59.3561 445.2 59.6662 444.551 59.8793C443.908 60.0923 443.219 60.1989 442.485 60.1989C441.244 60.1989 440.141 59.8958 439.175 59.2898C438.209 58.6837 437.449 57.822 436.895 56.7045C436.341 55.5871 436.064 54.2614 436.064 52.7273C436.064 51.1932 436.341 49.8674 436.895 48.75C437.449 47.6326 438.209 46.7708 439.175 46.1648C440.141 45.5587 441.244 45.2557 442.485 45.2557C443.219 45.2557 443.908 45.3622 444.551 45.5753C445.2 45.7884 445.785 46.1009 446.306 46.5128C446.827 46.92 447.262 47.4171 447.613 48.0043C447.963 48.5866 448.204 49.2519 448.337 50ZM451.183 60V45.4545H452.945V51.9318H460.7V45.4545H462.462V60H460.7V53.4943H452.945V60H451.183ZM467.749 45.4545V60H465.988V45.4545H467.749Z" fill="white"/>
<path d="M371.83 13.7273C371.83 15.3277 371.522 16.6842 370.906 17.7969C370.291 18.9096 369.457 19.7547 368.406 20.3324C367.36 20.91 366.186 21.1989 364.884 21.1989C363.577 21.1989 362.4 20.9077 361.354 20.3253C360.307 19.7429 359.476 18.8977 358.861 17.7898C358.25 16.6771 357.945 15.3229 357.945 13.7273C357.945 12.1269 358.25 10.7704 358.861 9.65767C359.476 8.54498 360.307 7.69981 361.354 7.12216C362.4 6.54451 363.577 6.25568 364.884 6.25568C366.186 6.25568 367.36 6.54451 368.406 7.12216C369.457 7.69981 370.291 8.54498 370.906 9.65767C371.522 10.7704 371.83 12.1269 371.83 13.7273ZM368.236 13.7273C368.236 12.7803 368.101 11.9801 367.831 11.3267C367.566 10.6733 367.182 10.1785 366.68 9.84233C366.183 9.50615 365.584 9.33807 364.884 9.33807C364.188 9.33807 363.589 9.50615 363.087 9.84233C362.585 10.1785 362.199 10.6733 361.929 11.3267C361.664 11.9801 361.531 12.7803 361.531 13.7273C361.531 14.6742 361.664 15.4744 361.929 16.1278C362.199 16.7812 362.585 17.276 363.087 17.6122C363.589 17.9484 364.188 18.1165 364.884 18.1165C365.584 18.1165 366.183 17.9484 366.68 17.6122C367.182 17.276 367.566 16.7812 367.831 16.1278C368.101 15.4744 368.236 14.6742 368.236 13.7273ZM375.682 21V6.45455H379.198V18.1449H385.249V21H375.682ZM386.616 9.30966V6.45455H398.91V9.30966H394.499V21H391.033V9.30966H386.616ZM402.427 21V6.45455H408.435C409.524 6.45455 410.464 6.65104 411.255 7.04403C412.05 7.43229 412.663 7.991 413.094 8.72017C413.525 9.4446 413.741 10.304 413.741 11.2983C413.741 12.3068 413.52 13.1638 413.08 13.8693C412.64 14.5701 412.015 15.1051 411.205 15.4744C410.395 15.839 409.437 16.0213 408.329 16.0213H404.529V13.2514H407.675C408.206 13.2514 408.648 13.1828 409.003 13.0455C409.363 12.9034 409.635 12.6903 409.82 12.4062C410.005 12.1174 410.097 11.7481 410.097 11.2983C410.097 10.8485 410.005 10.4768 409.82 10.1832C409.635 9.88494 409.363 9.66241 409.003 9.51562C408.643 9.36411 408.201 9.28835 407.675 9.28835H405.942V21H402.427ZM410.616 14.3523L414.238 21H410.402L406.851 14.3523H410.616ZM417.469 21V6.45455H427.611V9.30966H420.984V12.2926H427.092V15.1548H420.984V18.1449H427.611V21H417.469Z" fill="white"/>
<path d="M437.681 21V18.4716L442.986 13.8267C443.384 13.4669 443.723 13.1378 444.002 12.8395C444.281 12.5365 444.494 12.2334 444.641 11.9304C444.788 11.6226 444.861 11.2888 444.861 10.929C444.861 10.5265 444.774 10.1832 444.599 9.89915C444.423 9.61032 444.182 9.38778 443.874 9.23153C443.566 9.07528 443.214 8.99716 442.816 8.99716C442.414 8.99716 442.061 9.08002 441.758 9.24574C441.455 9.40672 441.218 9.6411 441.048 9.94886C440.882 10.2566 440.799 10.6307 440.799 11.071H437.468C437.468 10.0814 437.691 9.2268 438.136 8.5071C438.581 7.78741 439.206 7.23343 440.011 6.84517C440.82 6.45218 441.76 6.25568 442.83 6.25568C443.933 6.25568 444.892 6.44034 445.707 6.80966C446.521 7.17898 447.151 7.69508 447.596 8.35795C448.046 9.0161 448.271 9.78078 448.271 10.652C448.271 11.206 448.159 11.7552 447.937 12.2997C447.714 12.8442 447.314 13.4455 446.736 14.1037C446.164 14.7618 445.349 15.5502 444.293 16.4688L442.553 18.0739V18.1662H448.448V21H437.681ZM458.251 21.3551C456.982 21.3551 455.888 21.0545 454.969 20.4531C454.051 19.8471 453.343 18.9782 452.846 17.8466C452.349 16.7102 452.102 15.3442 452.107 13.7486C452.112 12.1529 452.36 10.7988 452.853 9.68608C453.35 8.56865 454.055 7.71875 454.969 7.13636C455.888 6.54924 456.982 6.25568 458.251 6.25568C459.52 6.25568 460.613 6.54924 461.532 7.13636C462.455 7.71875 463.165 8.56865 463.662 9.68608C464.16 10.8035 464.406 12.1577 464.401 13.7486C464.401 15.349 464.153 16.7173 463.655 17.8537C463.158 18.9901 462.45 19.8589 461.532 20.4602C460.618 21.0568 459.524 21.3551 458.251 21.3551ZM458.251 18.4787C459.008 18.4787 459.621 18.0928 460.09 17.321C460.559 16.5445 460.791 15.3537 460.786 13.7486C460.786 12.6974 460.68 11.831 460.466 11.1491C460.253 10.4626 459.957 9.95123 459.579 9.61506C459.2 9.27888 458.757 9.1108 458.251 9.1108C457.498 9.1108 456.889 9.49195 456.425 10.2543C455.961 11.0118 455.727 12.1766 455.722 13.7486C455.717 14.8139 455.819 15.697 456.028 16.3977C456.241 17.0985 456.539 17.6217 456.922 17.9673C457.306 18.3082 457.749 18.4787 458.251 18.4787ZM474.23 21.3551C472.961 21.3551 471.868 21.0545 470.949 20.4531C470.03 19.8471 469.323 18.9782 468.825 17.8466C468.328 16.7102 468.082 15.3442 468.087 13.7486C468.092 12.1529 468.34 10.7988 468.833 9.68608C469.33 8.56865 470.035 7.71875 470.949 7.13636C471.868 6.54924 472.961 6.25568 474.23 6.25568C475.499 6.25568 476.593 6.54924 477.512 7.13636C478.435 7.71875 479.145 8.56865 479.642 9.68608C480.139 10.8035 480.386 12.1577 480.381 13.7486C480.381 15.349 480.132 16.7173 479.635 17.8537C479.138 18.9901 478.43 19.8589 477.512 20.4602C476.598 21.0568 475.504 21.3551 474.23 21.3551ZM474.23 18.4787C474.988 18.4787 475.601 18.0928 476.07 17.321C476.538 16.5445 476.771 15.3537 476.766 13.7486C476.766 12.6974 476.659 11.831 476.446 11.1491C476.233 10.4626 475.937 9.95123 475.558 9.61506C475.18 9.27888 474.737 9.1108 474.23 9.1108C473.477 9.1108 472.869 9.49195 472.405 10.2543C471.941 11.0118 471.707 12.1766 471.702 13.7486C471.697 14.8139 471.799 15.697 472.007 16.3977C472.22 17.0985 472.519 17.6217 472.902 17.9673C473.286 18.3082 473.728 18.4787 474.23 18.4787ZM490.21 21.3551C488.941 21.3551 487.847 21.0545 486.929 20.4531C486.01 19.8471 485.302 18.9782 484.805 17.8466C484.308 16.7102 484.062 15.3442 484.066 13.7486C484.071 12.1529 484.32 10.7988 484.812 9.68608C485.309 8.56865 486.015 7.71875 486.929 7.13636C487.847 6.54924 488.941 6.25568 490.21 6.25568C491.479 6.25568 492.573 6.54924 493.491 7.13636C494.414 7.71875 495.125 8.56865 495.622 9.68608C496.119 10.8035 496.365 12.1577 496.361 13.7486C496.361 15.349 496.112 16.7173 495.615 17.8537C495.118 18.9901 494.41 19.8589 493.491 20.4602C492.577 21.0568 491.484 21.3551 490.21 21.3551ZM490.21 18.4787C490.968 18.4787 491.581 18.0928 492.049 17.321C492.518 16.5445 492.75 15.3537 492.745 13.7486C492.745 12.6974 492.639 11.831 492.426 11.1491C492.213 10.4626 491.917 9.95123 491.538 9.61506C491.159 9.27888 490.717 9.1108 490.21 9.1108C489.457 9.1108 488.849 9.49195 488.385 10.2543C487.921 11.0118 487.686 12.1766 487.682 13.7486C487.677 14.8139 487.779 15.697 487.987 16.3977C488.2 17.0985 488.498 17.6217 488.882 17.9673C489.265 18.3082 489.708 18.4787 490.21 18.4787ZM504.535 18.8977V8.61364H507.397V18.8977H504.535ZM500.82 15.1903V12.321H511.104V15.1903H500.82Z" fill="#F1C300"/>
</g>
<defs>
<clipPath id="clip0_21_12">
<rect width="513" height="122" fill="white"/>
</clipPath>
</defs>
</svg>
